<?xml version="1.0" encoding="UTF-8" standalone="no"?>
<svg
   xmlns:dc="http://purl.org/dc/elements/1.1/"
   xmlns:cc="http://creativecommons.org/ns#"
   xmlns:rdf="http://www.w3.org/1999/02/22-rdf-syntax-ns#"
   xmlns:svg="http://www.w3.org/2000/svg"
   xmlns="http://www.w3.org/2000/svg"
   xmlns:xlink="http://www.w3.org/1999/xlink"
   xmlns:sodipodi="http://sodipodi.sourceforge.net/DTD/sodipodi-0.dtd"
   xmlns:inkscape="http://www.inkscape.org/namespaces/inkscape"
   version="1.0"
   width="369.63812"
   height="212.79568"
   id="svg2"
   sodipodi:version="0.32"
   inkscape:version="0.92.2 5c3e80d, 2017-08-06"
   sodipodi:docname="lisp-lizard-with-text.svg"
   inkscape:output_extension="org.inkscape.output.svg.inkscape"
   inkscape:export-filename="inkscape.png"
   inkscape:export-xdpi="90"
   inkscape:export-ydpi="90">
  <title
     id="title841">lisp-lizard-with-text</title>
  <sodipodi:namedview
     bordercohor="#666666"
     inkscape:window-height="715"
     inkscape:window-width="1366"
     inkscape:pageshadow="2"
     inkscape:pageopacity="0.0"
     guidetolerance="10.0"
     gridtolerance="10.0"
     objecttolerance="10.0"
     borderopacity="1.0"
     bordercolor="#666666"
     pagecolor="#ffffff"
     id="base"
     inkscape:zoom="1.4142136"
     inkscape:cx="-43.731965"
     inkscape:cy="50.18071"
     inkscape:window-x="0"
     inkscape:window-y="28"
     inkscape:current-layer="svg2"
     showgrid="false"
     inkscape:window-maximized="1"
     fit-margin-top="0"
     fit-margin-left="0"
     fit-margin-right="0"
     fit-margin-bottom="0" />
  <defs
     id="defs4">
    <linearGradient
       id="WhiteTransparent"
       gradientUnits="userSpaceOnUse">
      <stop
         style="stop-color:white;stop-opacity:1"
         offset="0"
         id="stop7" />
      <stop
         style="stop-color:white;stop-opacity:0"
         offset="1"
         id="stop9" />
    </linearGradient>
    <linearGradient
       id="BlackTransparent"
       gradientUnits="userSpaceOnUse">
      <stop
         style="stop-color:black;stop-opacity:1"
         offset="0"
         id="stop12" />
      <stop
         style="stop-color:black;stop-opacity:0"
         offset="1"
         id="stop14" />
    </linearGradient>
    <linearGradient
       id="liquidShade"
       xlink:href="#BlackTransparent"
       x1="0"
       y1="128"
       x2="0"
       y2="64"
       gradientUnits="userSpaceOnUse" />
    <linearGradient
       id="liquidSpecular"
       xlink:href="#WhiteTransparent"
       x1="0"
       y1="128"
       x2="0"
       y2="76"
       gradientUnits="userSpaceOnUse" />
    <linearGradient
       id="sideSpecular"
       xlink:href="#WhiteTransparent"
       x1="80"
       y1="20"
       x2="60"
       y2="40"
       gradientUnits="userSpaceOnUse" />
    <linearGradient
       id="IcecapTip"
       xlink:href="#WhiteTransparent"
       x1="60"
       y1="20"
       x2="90"
       y2="50"
       gradientUnits="userSpaceOnUse" />
    <linearGradient
       id="shinySpecular"
       xlink:href="#WhiteTransparent"
       x1="33"
       y1="35"
       x2="58"
       y2="60"
       gradientUnits="userSpaceOnUse" />
    <clipPath
       clipPathUnits="userSpaceOnUse"
       id="clipoutline1">
      <path
         id="outline1"
         d="M 54.1,12.5 12.9,54.7 C -2.7,70.3 23,69 32.3,74.9 36.6,77.7 18.5,81.3 22.2,85 c 3.6,3.7 21.7,7.1 25.3,10.7 3.6,3.7 -7.3,7.6 -3.7,11.3 3.5,3.7 11.9,0.2 13.4,8.6 1.1,6.2 15.4,3.1 21.8,-2.2 4,-3.4 -6.9,-3.4 -3.3,-7.1 9,-9.1 17,-4.1 20.3,-12.5 1.8,-4.5 -13.6,-7.7 -9.5,-10.6 9.8,-6.9 45.8,-10.4 29.2,-27 L 73,12.5 c -5.3,-5 -14,-5 -18.9,0 z m -9.9,64.7 c 0.9,0 30.8,4 19.3,7.1 -4.4,1.2 -24.6,-7.1 -19.3,-7.1 z m 57.2,16.6 c 0,2.1 16.3,3.3 15.4,-0.5 -1.3,-6.4 -13.6,-5.9 -15.4,0.5 z m -69.5,11.1 c 3.7,3.2 9.3,-0.7 11.1,-5.2 -3.6,-4.7 -16.9,0.3 -11.1,5.2 z m 67.5,-6.7 c -4.6,4.2 0.8,8.6 5.3,5.7 1.2,-0.8 -0.1,-4.7 -5.3,-5.7 z"
         inkscape:connector-curvature="0" />
    </clipPath>
    <filter
       id="ShadowBlur"
       filterUnits="userSpaceOnUse"
       x="0"
       y="0">
      <feGaussianBlur
         in="SourceAlpha"
         stdDeviation="3"
         result="blur"
         id="feGaussianBlur24" />
    </filter>
    <linearGradient
       gradientUnits="userSpaceOnUse"
       id="linearGradient5785">
      <stop
         id="stop5787"
         offset="0"
         style="stop-color:#c0cdf9;stop-opacity:1" />
      <stop
         id="stop5789"
         offset="1"
         style="stop-color:#07092d;stop-opacity:0.28804347" />
    </linearGradient>
    <clipPath
       clipPathUnits="userSpaceOnUse"
       id="clipPath9086">
      <use
         id="use9088"
         xlink:href="#outline1"
         class="low-specularity"
         style="fill:#ffffff;fill-opacity:1"
         x="0"
         y="0"
         width="400"
         height="300"
         transform="translate(1.009546e-6)" />
    </clipPath>
    <linearGradient
       gradientUnits="userSpaceOnUse"
       y2="60"
       x2="58"
       y1="35"
       x1="33"
       xlink:href="#WhiteTransparent-4"
       id="shinySpecular-4"
       gradientTransform="matrix(1.0764629,0,0,1.0764629,-0.41501205,-0.40873952)" />
    <linearGradient
       gradientUnits="userSpaceOnUse"
       id="WhiteTransparent-4">
      <stop
         id="stop7606-4"
         offset="0"
         style="stop-color:white;stop-opacity:1" />
      <stop
         id="stop7608-7"
         offset="1"
         style="stop-color:white;stop-opacity:0" />
    </linearGradient>
    <linearGradient
       gradientUnits="userSpaceOnUse"
       y2="50"
       x2="90"
       y1="20"
       x1="60"
       xlink:href="#WhiteTransparent-4"
       id="IcecapTip-6"
       gradientTransform="scale(1.0666667)" />
  </defs>
  <style
     type="text/css"
     id="style26">
	.specularity {opacity:0.5;}
	.low-specularity {opacity:0.25;}
	.full-specularity {opacity:1;}
	.black {fill:#000000;}
	.white {fill:#ffffff;}
	.outline-big {stroke-width:16;stroke:none;opacity:0.1;fill:none;}
	.outline-small {stroke-width:8;stroke:none;opacity:0.2;fill:none;}
	.stroke-highlight {fill:none;stroke:none;opacity:0.2;}
       	.base-shadow 	{fill:black;opacity:75;}
	</style>
  <!-- Copyright License -->
  <metadata
     id="metadata49">
    <rdf:RDF>
      <cc:Work
         rdf:about="etiquette-icon">
        <dc:format>image/svg+xml</dc:format>
        <dc:type
           rdf:resource="http://purl.org/dc/dcmitype/StillImage" />
        <dc:creator>
          <cc:Agent>
            <dc:title></dc:title>
          </cc:Agent>
        </dc:creator>
        <dc:rights>
          <cc:Agent>
            <dc:title></dc:title>
          </cc:Agent>
        </dc:rights>
        <dc:publisher>
          <cc:Agent>
            <dc:title></dc:title>
          </cc:Agent>
        </dc:publisher>
        <dc:identifier></dc:identifier>
        <dc:date></dc:date>
        <cc:license
           rdf:resource="http://creativecommons.org/licenses/by-sa/4.0/" />
        <dc:title>lisp-lizard-with-text</dc:title>
      </cc:Work>
      <cc:License
         rdf:about="http://creativecommons.org/licenses/by-sa/4.0/">
        <cc:permits
           rdf:resource="http://creativecommons.org/ns#Reproduction" />
        <cc:permits
           rdf:resource="http://creativecommons.org/ns#Distribution" />
        <cc:requires
           rdf:resource="http://creativecommons.org/ns#Notice" />
        <cc:requires
           rdf:resource="http://creativecommons.org/ns#Attribution" />
        <cc:permits
           rdf:resource="http://creativecommons.org/ns#DerivativeWorks" />
        <cc:requires
           rdf:resource="http://creativecommons.org/ns#ShareAlike" />
      </cc:License>
    </rdf:RDF>
  </metadata>
  <path
     style="color:#000000;clip-rule:nonzero;display:inline;overflow:visible;visibility:visible;opacity:1;isolation:auto;mix-blend-mode:normal;color-interpolation:sRGB;color-interpolation-filters:linearRGB;solid-color:#000000;solid-opacity:1;fill:#1b4165;fill-opacity:1;fill-rule:evenodd;stroke:none;stroke-width:1.1990521;stroke-linecap:square;stroke-linejoin:miter;stroke-miterlimit:4;stroke-dasharray:none;stroke-dashoffset:0;stroke-opacity:1;paint-order:fill markers stroke;color-rendering:auto;image-rendering:auto;shape-rendering:auto;text-rendering:auto;enable-background:accumulate"
     d="m 16.387797,21.321059 c -0.1747,-0.0262 -0.40342,0.10069 -0.6875,0.38477 -0.28659,0.28659 -1.14697,3.26474 -1.91211,6.61914 l -1.39258,6.09961 -1.78515,-2.45313 c -1.6851303,-2.3133 -7.6100803,-5.98632 -9.65430026,-5.98632 -2.04468004,0 -0.72988,1.46021 3.17772996,3.5332 2.82013,1.49607 4.69574,3.32703 5.9707103,5.82617 1.02256,2.00439 3.0543,4.76187 4.51562,6.12695 l 2.65821,2.48243 c 0.99113,0.85033 2.65145,-0.73445 1.03125,-2.22852 0,0 -1.88122,-1.25819 -2.8125,-2.25781 -1.65805,-1.7797 -1.65628,-1.9782 0.0859,-9.48047 1.05041,-4.52327 1.41905,-7.33299 1.11523,-8.29102 -0.0687,-0.10988 -0.13835,-0.21861 -0.20898,-0.32617 -0.0326,-0.0199 -0.0638,-0.0432 -0.10157,-0.0488 z"
     id="path876"
     inkscape:connector-curvature="0"
     sodipodi:nodetypes="cccccsccccccscccc" />
  <path
     style="color:#000000;clip-rule:nonzero;display:inline;overflow:visible;visibility:visible;opacity:1;isolation:auto;mix-blend-mode:normal;color-interpolation:sRGB;color-interpolation-filters:linearRGB;solid-color:#000000;solid-opacity:1;fill:#d6e7bb;fill-opacity:1;fill-rule:evenodd;stroke:none;stroke-width:1;stroke-linecap:square;stroke-linejoin:miter;stroke-miterlimit:4;stroke-dasharray:none;stroke-dashoffset:0;stroke-opacity:1;paint-order:fill markers stroke;color-rendering:auto;image-rendering:auto;shape-rendering:auto;text-rendering:auto;enable-background:accumulate"
     d="m 284.07563,0.00751862 c -0.0224,0.0151 -0.045,0.0514 -0.0664,0.11328 -0.3426,0.98999998 -1.72161,7.47038998 -3.06445,14.40039038 -1.34282,6.93 -2.56229,12.75147 -2.71094,12.93555 -0.14864,0.18408 -3.19925,-2.33997 -6.7793,-5.60742 -3.58005,-3.26745 -6.67746,-5.77175 -6.88281,-5.56641 -0.20534,0.20535 2.30014,4.81199 5.56836,10.23633 3.26823,5.42434 5.94336,10.21109 5.94336,10.63867 0,0.42758 -3.98072,2.12465 -8.8457,3.77149 -4.86497,1.64684 -9.31575,3.28533 -9.89063,3.64062 -0.78474,0.485 -0.70842,2.40766 0.30664,7.71289 0.74361,3.88648 1.23192,7.18605 1.08399,7.33399 -0.14794,0.14793 -2.27926,-0.724 -4.73633,-1.93946 -9.19074,-4.54645 -27.28503,-6.48292 -38.35938,-4.10546 -6.75712,1.45064 -15.47084,4.86386 -31.80859,12.46289 -16.88314,7.85271 -23.17489,10.34972 -33.67383,13.36132 -7.53099,2.16024 -9.36849,2.347 -19.27539,1.95899 -16.89836,-0.66183 -16.60169,-0.005 -5.98437,-13.29688 4.93695,-6.18063 8.97821,-11.64171 8.98047,-12.13671 0.002,-0.49501 -2.12373,-2.8167 -4.72266,-5.15821 l -4.72461,-4.25586 3.15039,-2.86133 c 1.7325,-1.57377 4.7052,-4.24554 6.60547,-5.9375 1.90027,-1.69197 3.27946,-3.25178 3.06641,-3.46484 -0.21306,-0.21306 -3.4622,1.03299 -7.22071,2.76953 -3.75852,1.73654 -7.2282,3.15821 -7.71094,3.15821 -0.48269,0 -1.36616,-2.93665 -1.96289,-6.5254 -1.81701,-10.92758 -3.36797,-18.76446 -3.79882,-19.19531 -0.22498,-0.22497 -0.69411,5.35623 -1.04297,12.4043 -0.34886,7.04807 -0.79516,12.97681 -0.99219,13.17383 -0.19702,0.19702 -2.50493,-1.18189 -5.12695,-3.06446 -2.62201,-1.88258 -6.68977,-4.80055 -9.04102,-6.48437 -2.351243,-1.68382 -4.275383,-2.70576 -4.275383,-2.27149 0,0.43426 3.41543,4.61914 7.589833,9.30079 5.9285,6.64888 7.32436,8.70911 6.37696,9.41211 -0.66709,0.495 -3.7192,2.44496 -6.78125,4.33398 -3.06205,1.88902 -5.362973,3.63897 -5.113273,3.88867 0.2497,0.24969 4.533383,-0.64252 9.519523,-1.98242 l 9.0664,-2.43555 3.21875,2.45508 c 1.77007,1.35011 3.09526,2.78826 2.94532,3.19727 -0.14995,0.40901 -4.69179,4.81614 -10.09375,9.79297 l -9.82227,9.04882 -5.150383,-2.74414 -5.14844,-2.74414 0.46485,-7.4414 c 0.62494,-10.01721 -1.08456,-15.17837 -6.79297,-20.50586 -10.3583,-9.66709 -17.91811,-10.48897 -41.12892,-4.47071 -23.11421,5.99322 -25.71984,6.79822 -25.45312,7.86328 0.39382,1.57264 11.82751,11.47399 22.94336,19.86719 34.75914,26.24546 66.791733,39.159721 93.859373,37.841801 21.66786,-1.05501 40.68588,-8.639951 66.37695,-26.472661 10.68135,-7.41416 16.14425,-9.36954 27.73633,-9.92773 16.43964,-0.79161 21.82482,1.72602 47.63672,22.26562 24.25691,19.302231 31.65124,24.570781 40.5,28.859381 9.40797,4.55963 22.65932,8.02342 34.05273,8.90039 3.00677,0.0308 5.91446,-0.12915 8.83008,-0.45117 l 7.58203,-1.17969 0.33985,-0.10938 -5.15235,-0.002 c -11.68633,-0.004 -30.77125,-4.87631 -42.68554,-10.89062 -13.7978,-6.96511 -26.84263,-17.443901 -39.85352,-32.015631 l -8.11328,-9.08594 -2.48437,-10.67773 c -1.36635,-5.87251 -2.47959,-11.08313 -2.47266,-11.57813 0.007,-0.495 4.56782,-3.69861 10.13476,-7.11914 l 10.1211,-6.21875 7.875,1.30469 c 4.33125,0.71731 7.875,1.0453 7.875,0.73047 0,-0.31483 -3.42691,-2.15204 -7.61524,-4.08398 l -7.61523,-3.51368 8.95313,-12.53711 c 4.92324,-6.89634 8.77372,-12.7165204 8.55664,-12.9335904 -0.21706,-0.21706 -5.17262,3.8673804 -11.01172,9.0781304 l -10.61719,9.4746 -0.44922,-13.1914 C 284.85142,4.7099586 284.41189,-0.21856138 284.07564,0.00746862 Z M 369.29828,124.88057 c -2.57722,0.51026 -5.08293,0.90367 -7.58203,1.17969 l -8.23242,1.28125 7.67578,-0.98828 z M 66.007267,48.271189 c 1.85034,0 4.875,3.31131 4.875,5.33594 0,4.51768 -6.92059,6.30067 -9.45312,2.43555 -2.31419,-3.53191 0.18391,-7.77149 4.57812,-7.77149 z m -22.1582,27.9961 c -2.6675,0.003 -5.37292,1.84622 -5.35156,4.76953 0.017,2.32049 0.79991,3.53536 3.13476,4.85937 2.22978,1.26442 1.7567,1.26245 4.48047,0.0215 2.97898,-1.35731 3.79936,-4.60077 1.89844,-7.50195 -0.9755,-1.48879 -2.56162,-2.14995 -4.16211,-2.14844 z"
     id="path872"
     inkscape:connector-curvature="0"
     sodipodi:nodetypes="ccccsccsscscccscsccccccccsscsccssscscccsccccccsscsssssscccccsccsccccscccccccccccccsscscccccc" />
  <path
     style="fill:#1b4165;fill-opacity:1"
     d="m 19.780707,45.177539 c -0.25114,0.83527 0.38051,6.96223 1.56641,14.28897 2.57216,15.8915 5.29228,28.74382 6.89843,32.58789 2.15744,5.16348 8.76767,11.507211 14.97657,14.375001 4.80341,2.21861 6.71264,2.58917 13.26171,2.57617 6.47792,-0.0129 8.26974,-0.36079 11.69922,-2.27539 l 4.05078,-2.26172 6.88868,4.60156 c 3.78908,2.53089 10.06582,6.16044 13.94922,8.06446 3.88341,1.90402 10.774653,6.28092 15.312493,9.72656 l 8.25,6.26562 -4.20508,7.7461 c -2.31265,4.26138 -4.65185,8.50865 -5.19921,9.4375 -0.95472,1.62 -1.2988,1.57312 -8.421873,-1.17383 -4.08413,-1.57501 -7.65901,-2.63006 -7.94531,-2.34375 -0.28632,0.28631 1.40592,2.47739 3.76172,4.86914 l 4.2832,4.34766 -5.9082,3.05664 c -3.25006,1.68059 -5.91031,3.35919 -5.91211,3.73047 -0.004,0.90652 0.43918,0.86148 7.10156,-0.70899 3.1653,-0.74613 5.960453,-1.14892 6.212883,-0.89648 0.25244,0.25243 -1.242803,6.18219 -3.322263,13.17773 -2.07946,6.99554 -3.58366,12.91635 -3.34375,13.15625 0.38107,0.38107 6.538623,-11.07344 11.720703,-21.80273 0.95632,-1.98 1.85902,-3.75772 2.00586,-3.94922 0.14684,-0.19151 2.92292,1.38254 6.16992,3.49804 3.247,2.1155 6.08247,3.66753 6.30078,3.44922 0.21831,-0.21831 -1.4139,-3.09564 -3.62695,-6.39453 -2.21307,-3.2989 -4.02344,-6.26561 -4.02344,-6.59375 0,-0.32815 4.72163,-6.43306 10.49219,-13.5664 7.94735,-9.82421 10.23845,-13.22249 9.44922,-14.01172 -1.76001,-1.76001 -1.1753,-2.48244 2.00976,-2.48242 3.59786,0 17.80523,-3.62899 24.84961,-6.34766 10.49416,-4.05004 22.54177,-11.08206 34.65039,-20.226561 20.60473,-15.56081 30.79313,-19.54804 47.5586,-18.60938 5.30463,0.297 6.10258,0.5616 5.75195,1.90234 -0.2239,0.85619 -3.73599,6.52459 -7.80469,12.59766 -4.0687,6.073081 -7.21698,11.222461 -6.99609,11.443361 0.22091,0.22089 2.98524,0.83104 6.14453,1.35547 3.15931,0.52443 6.3532,1.08676 7.0957,1.25 0.7425,0.16324 1.54225,0.32733 1.77734,0.36523 0.23513,0.0379 -2.57861,3.09495 -6.25195,6.79297 -3.67334,3.69801 -6.43169,6.97261 -6.1289,7.27539 0.30277,0.30279 4.12901,-1.84137 8.50195,-4.76367 4.37294,-2.9223 8.52172,-5.65356 9.2207,-6.06836 1.08036,-0.64113 1.18193,1.03003 0.66992,11.14649 -0.40036,7.91046 -0.29783,11.71222 0.30469,11.33984 0.49854,-0.30811 0.90625,-1.30581 0.90625,-2.21875 0,-2.05118 3.37838,-19.01315 3.88867,-19.52344 0.32572,-0.32572 14.78335,7.54642 22.88477,12.46094 6.30568,3.82518 2.36136,-0.22479 -9.22461,-9.47266 -6.6825,-5.33395 -12.15039,-10.03526 -12.15039,-10.44726 0,-0.41202 3.34203,-2.07298 7.42578,-3.68945 12.45436,-4.929811 11.81574,-5.709861 -1.86133,-2.273441 -6.94565,1.745111 -9.53521,2.026391 -12.76367,1.388671 -2.2275,-0.44 -4.4463,-0.81639 -4.92969,-0.83789 -1.14017,-0.0508 13.15112,-14.439451 14.3418,-14.439451 1.5585,0 11.32806,6.36232 22.17383,14.439451 26.83971,19.98819 45.40456,27.18342 69.21484,26.83008 7.06815,-0.29561 11.94541,-1.32162 16.1543,-2.57032 -4.65211,0.90895 -9.78826,1.64715 -16.75196,1.74024 -11.39339,-0.87697 -24.64476,-4.34076 -34.05273,-8.90039 -8.84876,-4.2886 -16.24309,-9.55715 -40.5,-28.859381 -25.8119,-20.5396 -31.19708,-23.05723 -47.63672,-22.26562 -11.59208,0.55819 -17.05498,2.51357 -27.73633,9.92773 -25.69107,17.83271 -44.70909,25.417651 -66.37695,26.472661 -27.06764,1.31792 -59.100233,-11.596341 -93.859373,-37.841801 -11.11585,-8.3932 -22.54953,-18.29454 -22.94336,-19.86719 z m 46.22656,3.09365 c -4.3942,0 -6.89232,4.23957 -4.57812,7.77149 2.53252,3.86512 9.45312,2.08213 9.45312,-2.43555 0,-0.96785 -0.25426,-2.58955 -1.17794,-3.64317 -1.00856,-1.15044 -2.73125,-1.69277 -3.69706,-1.69277 z m -22.1582,27.9961 c 1.6005,-0.002 3.18661,0.65964 4.16211,2.14844 1.90092,2.90118 1.08054,6.14464 -1.89844,7.50195 -0.56777,0.14819 -1.83362,0.85873 -4.48047,-0.0215 -2.33485,-1.32401 -3.1178,-2.53888 -3.13476,-4.85937 -0.0214,-2.92331 2.68406,-4.767 5.35156,-4.76953 z M 148.01313,133.43135 c -0.39595,-0.0607 -1.2952,1.2235 -1.99805,2.85352 -1.15616,2.68134 -1.13082,3.01052 0.26953,3.45898 5.10725,1.63558 6.57258,2.56141 7.04688,4.45117 0.3371,1.34311 -1.14977,6.71684 -4.14063,14.96094 -2.567,7.07581 -7.23788,19.95273 -10.3789,28.61523 -3.14103,8.6625 -5.8378,16.30766 -5.99414,16.98829 -0.1585,0.69004 0.82653,1.62374 2.22656,2.11132 2.1461,0.74742 2.85016,0.53459 4.84765,-1.46289 1.2853,-1.28531 2.99032,-2.33217 3.78907,-2.32617 0.79875,0.006 8.94406,1.99532 18.10156,4.41992 9.1575,2.4246 17.05578,4.44448 17.55078,4.48828 0.90257,0.0799 8.10203,-18.66555 7.42773,-19.33984 -0.19739,-0.19741 -1.60499,-0.60967 -3.12695,-0.91406 -2.5175,-0.5035 -2.81972,-0.30859 -3.35937,2.14844 -0.72014,3.27875 -3.25981,5.7355 -6.06446,5.86914 -1.75845,0.0838 -22.22046,-4.59182 -23.06054,-5.26953 -0.27764,-0.22402 16.89477,-48.20066 17.51562,-48.93555 0.17356,-0.20543 2.57098,0.25407 5.32813,1.02148 l 5.01172,1.39453 0.83984,-2.20507 c 0.46116,-1.21295 0.83789,-2.69603 0.83789,-3.29688 0,-0.66858 -6.19789,-2.61071 -15.97461,-5.00586 -8.78625,-2.15249 -16.29935,-3.96469 -16.69531,-4.02539 z m 130.8164,10.19922 -5.19921,2.86719 c -2.85895,1.5768 -5.53866,3.16072 -5.95508,3.52148 -0.41643,0.36077 2.47847,8.29384 6.43164,17.62891 3.95316,9.33508 9.11424,21.53506 11.4707,27.10937 2.38366,5.85036 4.45683,10.66736 6.89258,16.01367 1.28011,2.80955 1.74122,2.77431 7.64844,-0.60546 4.2441,-2.42823 5.5026,-3.50656 5.04101,-5.34571 -1.52733,-2.89104 -3.44441,-8.07919 -5.67578,-13.26172 0,-0.37242 1.42505,-1.44613 3.16797,-2.38476 7.9055,-4.25739 15.39259,-15.7519 16.35937,-25.11914 1.90078,-18.41688 -15.78308,-26.53748 -32.59765,-14.96875 l -4.05078,2.78711 -1.76758,-4.1211 z m -65.98046,2.70508 c -3.82307,-0.17982 -7.87274,2.86738 -7.85157,7.41992 0.0158,3.39166 0.60154,4.50492 3.13477,5.94141 2.31964,1.31539 3.43963,1.3152 6.32617,0 2.35191,-1.0716 4.92383,-4.88985 4.92383,-7.3086 0,-0.70033 -0.83931,-2.34027 -1.86524,-3.64453 -1.24021,-1.57667 -2.93021,-2.32647 -4.66796,-2.4082 z m 86.70507,11.00781 c 2.82358,0.13335 5.36995,1.65227 7.17188,4.53516 3.32682,5.32255 0.0267,14.68197 -6.60352,18.72461 -1.58894,0.96882 -3.32467,1.76362 -3.85742,1.76562 -0.53274,0.002 -2.72016,-4.11603 -4.85937,-9.15039 l -3.88868,-9.1543 3.21094,-2.9414 c 2.9033,-2.66067 6.0026,-3.91265 8.82617,-3.7793 z m -41.8164,5.25586 c -3.60716,0.0588 -7.78148,0.38338 -10.36524,0.9375 -5.93359,1.27253 -11.49737,5.39879 -13.63867,10.11523 -2.20232,4.85086 -2.18688,8.15062 0.0586,12.78907 2.80009,5.78425 5.97908,6.90121 15.5957,5.48047 4.29946,-0.63523 5.50865,-0.52066 6.66211,0.63281 1.27955,1.27949 1.27335,1.6172 -0.0703,3.66797 -1.39385,2.12726 -6.17452,4.13313 -9.88086,4.14453 -2.48219,0.008 -5.11524,-1.68556 -5.11524,-3.28907 0,-1.12752 -0.60611,-1.31003 -2.85937,-0.85937 -1.57266,0.31453 -3.038,0.75089 -3.25586,0.96875 -0.21786,0.21788 -0.0452,2.32025 0.38476,4.67383 0.63046,3.45087 1.21785,4.41156 3.03125,4.95703 4.48612,1.34942 17.30249,0.30349 21.23438,-1.73242 9.6906,-5.01775 13.01046,-15.06451 7.52539,-22.76758 -2.69573,-3.7858 -7.46163,-4.97516 -14.4336,-3.60352 -4.72805,0.93019 -5.77366,0.89626 -6.89257,-0.22265 -3.18321,-3.1832 1.95742,-7.82031 8.66992,-7.82031 2.68174,-1e-5 3.94419,0.50171 4.97851,1.97851 1.16814,1.66776 1.7733,1.84408 3.84571,1.11523 2.2921,-0.80606 2.44047,-1.17037 2.18359,-5.34765 -0.15158,-2.46494 -0.46527,-4.78873 -0.69727,-5.16406 -0.31328,-0.5069 -3.35378,-0.71309 -6.96093,-0.6543 z m -63.35742,7.17187 -0.3711,3.17774 c -0.44204,3.78637 -0.26511,4.02344 3.00391,4.02344 4.42924,0 5.36497,2.73011 4.33594,12.63086 -1.5924,15.32114 -1.17346,14.36914 -6.30664,14.36914 h -4.45899 v 3.14843 3.15039 h 15.75 15.75 v -3.15039 c 0,-2.89458 -0.21768,-3.14843 -2.67969,-3.14843 -1.85274,0 -3.12626,-0.68265 -4.1289,-2.21289 -1.33123,-2.03163 -1.33359,-3.28521 -0.0215,-15.30469 0.78609,-7.20044 1.4297,-13.89923 1.4297,-14.88672 0,-1.69733 -0.61027,-1.79688 -11.15234,-1.79688 z"
     id="path874"
     inkscape:connector-curvature="0"
     sodipodi:nodetypes="cssccccccccccscccccscscccsscsssccsccsccscccscscsssssscscsccccssssssccscssscscccccccscccccssccccccccccsccccccccscccscccccsccsscsccscccsccccccccscccscscccccscccccsscccccssccsscsc" />
</svg>
