<?xml version="1.0" encoding="UTF-8" standalone="no"?>
<svg
   xmlns:dc="http://purl.org/dc/elements/1.1/"
   xmlns:cc="http://creativecommons.org/ns#"
   xmlns:rdf="http://www.w3.org/1999/02/22-rdf-syntax-ns#"
   xmlns:svg="http://www.w3.org/2000/svg"
   xmlns="http://www.w3.org/2000/svg"
   xmlns:xlink="http://www.w3.org/1999/xlink"
   xmlns:sodipodi="http://sodipodi.sourceforge.net/DTD/sodipodi-0.dtd"
   xmlns:inkscape="http://www.inkscape.org/namespaces/inkscape"
   version="1.0"
   width="369.63812"
   height="187.53238"
   id="svg2"
   sodipodi:version="0.32"
   inkscape:version="0.92.2 5c3e80d, 2017-08-06"
   sodipodi:docname="lisp-lizard.svg"
   inkscape:output_extension="org.inkscape.output.svg.inkscape"
   inkscape:export-filename="inkscape.png"
   inkscape:export-xdpi="90"
   inkscape:export-ydpi="90">
  <title
     id="title845">lisp-lizard</title>
  <sodipodi:namedview
     bordercohor="#666666"
     inkscape:window-height="715"
     inkscape:window-width="1366"
     inkscape:pageshadow="2"
     inkscape:pageopacity="0.0"
     guidetolerance="10.0"
     gridtolerance="10.0"
     objecttolerance="10.0"
     borderopacity="1.0"
     bordercolor="#666666"
     pagecolor="#ffffff"
     id="base"
     inkscape:zoom="1.4142136"
     inkscape:cx="99.810706"
     inkscape:cy="61.590685"
     inkscape:window-x="0"
     inkscape:window-y="28"
     inkscape:current-layer="svg2"
     showgrid="false"
     inkscape:window-maximized="1"
     fit-margin-top="0"
     fit-margin-left="0"
     fit-margin-right="0"
     fit-margin-bottom="0" />
  <defs
     id="defs4">
    <linearGradient
       id="WhiteTransparent"
       gradientUnits="userSpaceOnUse">
      <stop
         style="stop-color:white;stop-opacity:1"
         offset="0"
         id="stop7" />
      <stop
         style="stop-color:white;stop-opacity:0"
         offset="1"
         id="stop9" />
    </linearGradient>
    <linearGradient
       id="BlackTransparent"
       gradientUnits="userSpaceOnUse">
      <stop
         style="stop-color:black;stop-opacity:1"
         offset="0"
         id="stop12" />
      <stop
         style="stop-color:black;stop-opacity:0"
         offset="1"
         id="stop14" />
    </linearGradient>
    <linearGradient
       id="liquidShade"
       xlink:href="#BlackTransparent"
       x1="0"
       y1="128"
       x2="0"
       y2="64"
       gradientUnits="userSpaceOnUse" />
    <linearGradient
       id="liquidSpecular"
       xlink:href="#WhiteTransparent"
       x1="0"
       y1="128"
       x2="0"
       y2="76"
       gradientUnits="userSpaceOnUse" />
    <linearGradient
       id="sideSpecular"
       xlink:href="#WhiteTransparent"
       x1="80"
       y1="20"
       x2="60"
       y2="40"
       gradientUnits="userSpaceOnUse" />
    <linearGradient
       id="IcecapTip"
       xlink:href="#WhiteTransparent"
       x1="60"
       y1="20"
       x2="90"
       y2="50"
       gradientUnits="userSpaceOnUse" />
    <linearGradient
       id="shinySpecular"
       xlink:href="#WhiteTransparent"
       x1="33"
       y1="35"
       x2="58"
       y2="60"
       gradientUnits="userSpaceOnUse" />
    <clipPath
       clipPathUnits="userSpaceOnUse"
       id="clipoutline1">
      <path
         id="outline1"
         d="M 54.1,12.5 12.9,54.7 C -2.7,70.3 23,69 32.3,74.9 36.6,77.7 18.5,81.3 22.2,85 c 3.6,3.7 21.7,7.1 25.3,10.7 3.6,3.7 -7.3,7.6 -3.7,11.3 3.5,3.7 11.9,0.2 13.4,8.6 1.1,6.2 15.4,3.1 21.8,-2.2 4,-3.4 -6.9,-3.4 -3.3,-7.1 9,-9.1 17,-4.1 20.3,-12.5 1.8,-4.5 -13.6,-7.7 -9.5,-10.6 9.8,-6.9 45.8,-10.4 29.2,-27 L 73,12.5 c -5.3,-5 -14,-5 -18.9,0 z m -9.9,64.7 c 0.9,0 30.8,4 19.3,7.1 -4.4,1.2 -24.6,-7.1 -19.3,-7.1 z m 57.2,16.6 c 0,2.1 16.3,3.3 15.4,-0.5 -1.3,-6.4 -13.6,-5.9 -15.4,0.5 z m -69.5,11.1 c 3.7,3.2 9.3,-0.7 11.1,-5.2 -3.6,-4.7 -16.9,0.3 -11.1,5.2 z m 67.5,-6.7 c -4.6,4.2 0.8,8.6 5.3,5.7 1.2,-0.8 -0.1,-4.7 -5.3,-5.7 z"
         inkscape:connector-curvature="0" />
    </clipPath>
    <filter
       id="ShadowBlur"
       filterUnits="userSpaceOnUse"
       x="0"
       y="0">
      <feGaussianBlur
         in="SourceAlpha"
         stdDeviation="3"
         result="blur"
         id="feGaussianBlur24" />
    </filter>
    <linearGradient
       gradientUnits="userSpaceOnUse"
       id="linearGradient5785">
      <stop
         id="stop5787"
         offset="0"
         style="stop-color:#c0cdf9;stop-opacity:1" />
      <stop
         id="stop5789"
         offset="1"
         style="stop-color:#07092d;stop-opacity:0.28804347" />
    </linearGradient>
    <clipPath
       clipPathUnits="userSpaceOnUse"
       id="clipPath9086">
      <use
         id="use9088"
         xlink:href="#outline1"
         class="low-specularity"
         style="fill:#ffffff;fill-opacity:1"
         x="0"
         y="0"
         width="400"
         height="300"
         transform="translate(1.009546e-6)" />
    </clipPath>
    <linearGradient
       gradientUnits="userSpaceOnUse"
       y2="60"
       x2="58"
       y1="35"
       x1="33"
       xlink:href="#WhiteTransparent-4"
       id="shinySpecular-4"
       gradientTransform="matrix(1.0764629,0,0,1.0764629,-0.41501205,-0.40873952)" />
    <linearGradient
       gradientUnits="userSpaceOnUse"
       id="WhiteTransparent-4">
      <stop
         id="stop7606-4"
         offset="0"
         style="stop-color:white;stop-opacity:1" />
      <stop
         id="stop7608-7"
         offset="1"
         style="stop-color:white;stop-opacity:0" />
    </linearGradient>
    <linearGradient
       gradientUnits="userSpaceOnUse"
       y2="50"
       x2="90"
       y1="20"
       x1="60"
       xlink:href="#WhiteTransparent-4"
       id="IcecapTip-6"
       gradientTransform="scale(1.0666667)" />
  </defs>
  <style
     type="text/css"
     id="style26">
	.specularity {opacity:0.5;}
	.low-specularity {opacity:0.25;}
	.full-specularity {opacity:1;}
	.black {fill:#000000;}
	.white {fill:#ffffff;}
	.outline-big {stroke-width:16;stroke:none;opacity:0.1;fill:none;}
	.outline-small {stroke-width:8;stroke:none;opacity:0.2;fill:none;}
	.stroke-highlight {fill:none;stroke:none;opacity:0.2;}
       	.base-shadow 	{fill:black;opacity:75;}
	</style>
  <!-- Copyright License -->
  <metadata
     id="metadata49">
    <rdf:RDF>
      <cc:Work
         rdf:about="etiquette-icon">
        <dc:format>image/svg+xml</dc:format>
        <dc:type
           rdf:resource="http://purl.org/dc/dcmitype/StillImage" />
        <dc:creator>
          <cc:Agent>
            <dc:title></dc:title>
          </cc:Agent>
        </dc:creator>
        <dc:rights>
          <cc:Agent>
            <dc:title></dc:title>
          </cc:Agent>
        </dc:rights>
        <dc:publisher>
          <cc:Agent>
            <dc:title></dc:title>
          </cc:Agent>
        </dc:publisher>
        <dc:identifier></dc:identifier>
        <dc:date></dc:date>
        <cc:license
           rdf:resource="http://creativecommons.org/licenses/by-sa/4.0/" />
        <dc:title>lisp-lizard</dc:title>
      </cc:Work>
      <cc:License
         rdf:about="http://creativecommons.org/licenses/by-sa/4.0/">
        <cc:permits
           rdf:resource="http://creativecommons.org/ns#Reproduction" />
        <cc:permits
           rdf:resource="http://creativecommons.org/ns#Distribution" />
        <cc:requires
           rdf:resource="http://creativecommons.org/ns#Notice" />
        <cc:requires
           rdf:resource="http://creativecommons.org/ns#Attribution" />
        <cc:permits
           rdf:resource="http://creativecommons.org/ns#DerivativeWorks" />
        <cc:requires
           rdf:resource="http://creativecommons.org/ns#ShareAlike" />
      </cc:License>
    </rdf:RDF>
  </metadata>
  <path
     sodipodi:nodetypes="cccccsccccccscccc"
     inkscape:connector-curvature="0"
     id="path917"
     d="m 16.387797,21.31906 c -0.1747,-0.0262 -0.40342,0.10069 -0.6875,0.38477 -0.28659,0.28659 -1.14697,3.26474 -1.91211,6.61914 l -1.39258,6.09965 -1.78515,-2.4532 c -1.6851303,-2.3133 -7.6100803,-5.98629 -9.65430026,-5.98629 -2.04468004,0 -0.72988,1.46021 3.17772996,3.53319 2.82013,1.4961 4.69574,3.327 5.9707103,5.8262 1.02256,2.0044 3.0543,4.7619 4.51562,6.1269 l 2.65821,2.482499 c 0.99113,0.8503 2.65145,-0.734499 1.03125,-2.228599 0,0 -1.88122,-1.2581 -2.8125,-2.2578 -1.65805,-1.7797 -1.65628,-1.9782 0.0859,-9.4804 1.05041,-4.52331 1.41905,-7.33303 1.11523,-8.29106 -0.0687,-0.10988 -0.13835,-0.21861 -0.20898,-0.32617 -0.0326,-0.0199 -0.0638,-0.0432 -0.10157,-0.0488 z"
     style="color:#000000;clip-rule:nonzero;display:inline;overflow:visible;visibility:visible;opacity:1;isolation:auto;mix-blend-mode:normal;color-interpolation:sRGB;color-interpolation-filters:linearRGB;solid-color:#000000;solid-opacity:1;fill:#1b4165;fill-opacity:1;fill-rule:evenodd;stroke:none;stroke-width:1.1990521;stroke-linecap:square;stroke-linejoin:miter;stroke-miterlimit:4;stroke-dasharray:none;stroke-dashoffset:0;stroke-opacity:1;paint-order:fill markers stroke;color-rendering:auto;image-rendering:auto;shape-rendering:auto;text-rendering:auto;enable-background:accumulate" />
  <path
     sodipodi:nodetypes="ccccsccsscscccscsccccccccsscsccssscscccsccccccsscsssssscccccsccsccccscccccccccscccsccscssssscs"
     inkscape:connector-curvature="0"
     id="path919"
     d="m 284.07563,0.00551862 c -0.0224,0.0151 -0.045,0.0514 -0.0664,0.11328 -0.3426,0.98999998 -1.72161,7.47038998 -3.06445,14.40039138 -1.34282,6.93 -2.56229,12.75147 -2.71094,12.93555 -0.14864,0.18408 -3.19925,-2.33997 -6.7793,-5.60742 -3.58005,-3.26745 -6.67746,-5.77175 -6.88281,-5.56641 -0.20534,0.20535 2.30014,4.81199 5.56836,10.23633 3.26823,5.42438 5.94336,10.21108 5.94336,10.63868 0,0.4276 -3.98072,2.1246 -8.8457,3.7715 -4.86497,1.6468 -9.31575,3.285299 -9.89063,3.640599 -0.78474,0.485 -0.70842,2.4077 0.30664,7.7129 0.74361,3.8865 1.23192,7.186 1.08399,7.334 -0.14794,0.1479 -2.27926,-0.724 -4.73633,-1.9395 -9.19074,-4.5464 -27.28503,-6.4829 -38.35938,-4.1054 -6.75712,1.4506 -15.47084,4.8638 -31.80859,12.462901 -16.88314,7.8527 -23.17489,10.3497 -33.67383,13.3613 -7.53099,2.1602 -9.36849,2.347 -19.27539,1.959 -16.89836,-0.6619 -16.60169,0 -5.98437,-13.2969 4.93695,-6.180701 8.97821,-11.641701 8.98047,-12.136701 0.002,-0.495 -2.12373,-2.8167 -4.72266,-5.1582 l -4.72461,-4.2559 3.15039,-2.8613 c 1.7325,-1.573799 4.7052,-4.245599 6.60547,-5.937499 1.90027,-1.692 3.27946,-3.2518 3.06641,-3.4649 -0.21306,-0.213 -3.4622,1.033 -7.22071,2.7696 -3.75852,1.7365 -7.2282,3.1582 -7.71094,3.1582 -0.48269,0 -1.36616,-2.9367 -1.96289,-6.5254 -1.81701,-10.92761 -3.36797,-18.76449 -3.79882,-19.19534 -0.22498,-0.22497 -0.69411,5.35623 -1.04297,12.4043 -0.34886,7.04804 -0.79516,12.97684 -0.99219,13.17384 -0.19702,0.197 -2.50493,-1.1819 -5.12695,-3.0645 -2.62201,-1.8826 -6.68977,-4.8005 -9.04102,-6.4843 -2.351243,-1.6839 -4.275383,-2.7058 -4.275383,-2.27153 0,0.43423 3.41543,4.61913 7.589833,9.30083 5.9285,6.648799 7.32436,8.709099 6.37696,9.412099 -0.66709,0.495 -3.7192,2.4449 -6.78125,4.334 -3.06205,1.889 -5.362973,3.6389 -5.113273,3.8886 0.2497,0.2497 4.533383,-0.6425 9.519523,-1.9824 l 9.0664,-2.4356 3.21875,2.4551 c 1.77007,1.3501 3.09526,2.7883 2.94532,3.1973 -0.14995,0.409 -4.69179,4.8161 -10.09375,9.793001 l -9.82227,9.0488 -5.150383,-2.7441 -5.14844,-2.7442 0.46485,-7.441401 c 0.62494,-10.0172 -1.08456,-15.1784 -6.79297,-20.505899 -10.3583,-9.667 -17.91811,-10.4889 -41.12892,-4.4707 -23.11421,5.9933 -25.71984,6.798299 -25.45312,7.863299 0.39382,1.5727 11.82751,11.474 22.94336,19.867201 34.75914,26.2455 66.791733,39.1597 93.859373,37.8418 21.66786,-1.055 40.68588,-8.6399 66.37695,-26.4726 10.68135,-7.4142 16.14425,-9.3696 27.73633,-9.9278 16.43964,-0.7916 21.82482,1.726 47.63672,22.2656 24.25691,19.3023 31.65124,24.5708 40.5,28.8594 9.40797,4.5596 22.65932,8.0234 34.05273,8.9004 3.00677,0.031 5.91446,-0.1291 8.83008,-0.4512 l 7.58203,-1.1797 0.33985,-0.1093 h -5.15235 c -11.68633,0 -30.77125,-4.8763 -42.68554,-10.8907 -13.7978,-6.9651 -26.84263,-17.4439 -39.85352,-32.0156 l -8.11328,-9.0859 -2.48437,-10.677801 c -1.36635,-5.8725 -2.47959,-11.0831 -2.47266,-11.5781 0.007,-0.495 4.56782,-3.6986 10.13476,-7.1191 l 10.1211,-6.218799 7.875,1.3047 c 4.33125,0.7173 7.875,1.0453 7.875,0.7305 0,-0.3148 -3.42691,-2.1521 -7.61524,-4.084 l -7.61523,-3.5137 8.95313,-12.53708 c 4.92324,-6.89634 8.77372,-12.7165214 8.55664,-12.9335914 -0.21706,-0.21706 -5.17262,3.8673814 -11.01172,9.0781314 l -10.61719,9.4746 -0.44922,-13.1914 C 284.85142,4.7099586 284.41189,-0.21856138 284.07564,0.00746862 Z M 369.29828,124.87862 c -2.57722,0.5102 -5.08293,0.9036 -7.58203,1.1796 l -8.23242,1.2813 7.67578,-0.9883 z M 66.007267,48.269219 c 1.85034,0 4.875,3.3113 4.875,5.3359 0,4.5177 -6.92059,6.3007 -9.45312,2.4356 -2.31419,-3.5319 0.18391,-7.7715 4.57812,-7.7715 z m -22.1582,27.996101 c 0,-2.6675 -5.37295,1.8462 -5.35156,4.7695 0.017,2.3205 0.68726,3.7574 3.13476,4.8594 2.29348,1.0326 2.01741,0.9307 4.48047,0.021 3.07107,-1.1337 3.79936,-4.6008 1.89844,-7.502 -0.9755,-1.4888 -2.20877,-3.735 -4.16211,-2.1484 z"
     style="color:#000000;clip-rule:nonzero;display:inline;overflow:visible;visibility:visible;opacity:1;isolation:auto;mix-blend-mode:normal;color-interpolation:sRGB;color-interpolation-filters:linearRGB;solid-color:#000000;solid-opacity:1;fill:#d6e7bb;fill-opacity:1;fill-rule:evenodd;stroke:none;stroke-width:1;stroke-linecap:square;stroke-linejoin:miter;stroke-miterlimit:4;stroke-dasharray:none;stroke-dashoffset:0;stroke-opacity:1;paint-order:fill markers stroke;color-rendering:auto;image-rendering:auto;shape-rendering:auto;text-rendering:auto;enable-background:accumulate" />
  <path
     sodipodi:nodetypes="cssccccccccccscccccscscccsscsssccsccsccscccscscsssssscscsccccssssssccscssscscccc"
     inkscape:connector-curvature="0"
     id="path921"
     d="m 19.780707,45.175519 c -0.25114,0.8353 0.38051,6.9623 1.56641,14.289 2.57216,15.891501 5.29228,28.743801 6.89843,32.587901 2.15744,5.1635 8.76767,11.5072 14.97657,14.375 4.80341,2.2186 6.71264,2.5892 13.26171,2.5762 6.47792,-0.013 8.26974,-0.3608 11.69922,-2.2754 l 4.05078,-2.2618 6.88868,4.6016 c 3.78908,2.5309 10.06582,6.1604 13.94922,8.0645 3.88341,1.904 10.774653,6.2809 15.312493,9.7265 l 8.25,6.2656 -4.20508,7.7461 c -2.31265,4.2614 -4.65185,8.5087 -5.19921,9.4375 -0.95472,1.62 -1.2988,1.5732 -8.421873,-1.1738 -4.08413,-1.575 -7.65901,-2.63 -7.94531,-2.3437 -0.28632,0.2863 1.40592,2.4774 3.76172,4.8691 l 4.2832,4.3477 -5.9082,3.0566 c -3.25006,1.6806 -5.91031,3.3592 -5.91211,3.7305 -0.004,0.9065 0.43918,0.8615 7.10156,-0.709 3.1653,-0.7461 5.960453,-1.1489 6.212883,-0.8965 0.25244,0.2524 -1.242803,6.1822 -3.322263,13.1777 -2.07946,6.9956 -3.58366,12.9164 -3.34375,13.1563 0.38107,0.3811 6.538623,-11.0735 11.720703,-21.8027 0.95632,-1.98 1.85902,-3.7578 2.00586,-3.9493 0.14684,-0.1915 2.92292,1.3826 6.16992,3.4981 3.247,2.1155 6.08247,3.6675 6.30078,3.4492 0.21831,-0.2183 -1.4139,-3.0956 -3.62695,-6.3945 -2.21307,-3.2989 -4.02344,-6.2656 -4.02344,-6.5938 0,-0.3281 4.72163,-6.433 10.49219,-13.5664 7.94735,-9.8242 10.23845,-13.2225 9.44922,-14.0117 -1.76001,-1.76 -1.1753,-2.4824 2.00976,-2.4824 3.59786,0 17.80523,-3.629 24.84961,-6.3477 10.49416,-4.05 22.54177,-11.0821 34.65039,-20.2265 20.60473,-15.5609 30.79313,-19.5481 47.5586,-18.6094 5.30463,0.297 6.10258,0.5616 5.75195,1.9023 -0.2239,0.8562 -3.73599,6.5246 -7.80469,12.5977 -4.0687,6.0731 -7.21698,11.2224 -6.99609,11.4433 0.22091,0.2209 2.98524,0.8311 6.14453,1.3555 3.15931,0.5244 6.3532,1.0868 7.0957,1.25 0.7425,0.1632 1.54225,0.3273 1.77734,0.3652 0.23513,0.038 -2.57861,3.095 -6.25195,6.793 -3.67334,3.698 -6.43169,6.9726 -6.1289,7.2754 0.30277,0.3028 4.12901,-1.8414 8.50195,-4.7637 4.37294,-2.9223 8.52172,-5.6535 9.2207,-6.0683 1.08036,-0.6412 1.18193,1.03 0.66992,11.1464 -0.40036,7.9105 -0.29783,11.7123 0.30469,11.3399 0.49854,-0.3081 0.90625,-1.3058 0.90625,-2.2188 0,-2.0511 3.37838,-19.0131 3.88867,-19.5234 0.32572,-0.3257 14.78335,7.5464 22.88477,12.4609 6.30568,3.8252 2.36136,-0.2248 -9.22461,-9.4726 -6.6825,-5.334 -12.15039,-10.0353 -12.15039,-10.4473 0,-0.412 3.34203,-2.073 7.42578,-3.6894 12.45436,-4.9298 11.81574,-5.7099 -1.86133,-2.2735 -6.94565,1.7451 -9.53521,2.0264 -12.76367,1.3887 -2.2275,-0.44 -4.4463,-0.8164 -4.92969,-0.8379 -1.14017,-0.051 13.15112,-14.4394 14.3418,-14.4394 1.5585,0 11.32806,6.3623 22.17383,14.4394 26.83971,19.9882 45.40456,27.1834 69.21484,26.8301 7.06815,-0.2956 11.94541,-1.3216 16.1543,-2.5703 -4.65211,0.9089 -9.78826,1.6471 -16.75196,1.7402 -11.39339,-0.877 -24.64476,-4.3408 -34.05273,-8.9004 -8.84876,-4.2886 -16.24309,-9.5571 -40.5,-28.8594 -25.8119,-20.5396 -31.19708,-23.0572 -47.63672,-22.2656 -11.59208,0.5582 -17.05498,2.5136 -27.73633,9.9277 -25.69107,17.8328 -44.70909,25.4177 -66.37695,26.4727 -27.06764,1.3179 -59.100233,-11.5963 -93.859373,-37.8418 -11.11585,-8.393201 -22.54953,-18.294501 -22.94336,-19.867201 z m 46.22656,3.0937 c -4.3942,0 -6.89232,4.2395 -4.57812,7.7715 2.53252,3.8651 9.45312,2.0821 9.45312,-2.4356 0,-0.9942 -0.14783,-2.5895 -1.10937,-3.6598 -0.99652,-1.1093 -2.82394,-1.6761 -3.76563,-1.6761 z m -22.1582,27.996101 c 1.6005,0 3.18661,0.6596 4.16211,2.1484 1.90092,2.9012 1.08054,6.1447 -1.89844,7.502 -0.77124,0.1157 -1.91823,0.9202 -4.48047,-0.021 -2.33485,-1.324 -3.1178,-2.5389 -3.13476,-4.8594 0.53232,-2.8415 3.15741,-4.7104 5.35156,-4.7695 z"
     style="fill:#1b4165;fill-opacity:1" />
</svg>
