<?xml version="1.0" encoding="UTF-8" standalone="no"?>
<svg
   xmlns:dc="http://purl.org/dc/elements/1.1/"
   xmlns:cc="http://creativecommons.org/ns#"
   xmlns:rdf="http://www.w3.org/1999/02/22-rdf-syntax-ns#"
   xmlns:svg="http://www.w3.org/2000/svg"
   xmlns="http://www.w3.org/2000/svg"
   xmlns:xlink="http://www.w3.org/1999/xlink"
   xmlns:sodipodi="http://sodipodi.sourceforge.net/DTD/sodipodi-0.dtd"
   xmlns:inkscape="http://www.inkscape.org/namespaces/inkscape"
   version="1.0"
   width="186.35088"
   height="79.366447"
   id="svg2"
   sodipodi:version="0.32"
   inkscape:version="0.92.2 5c3e80d, 2017-08-06"
   sodipodi:docname="lisp-text.svg"
   inkscape:output_extension="org.inkscape.output.svg.inkscape"
   inkscape:export-filename="inkscape.png"
   inkscape:export-xdpi="90"
   inkscape:export-ydpi="90">
  <title
     id="title838">lisp-text</title>
  <sodipodi:namedview
     bordercohor="#666666"
     inkscape:window-height="715"
     inkscape:window-width="1366"
     inkscape:pageshadow="2"
     inkscape:pageopacity="0.0"
     guidetolerance="10.0"
     gridtolerance="10.0"
     objecttolerance="10.0"
     borderopacity="1.0"
     bordercolor="#666666"
     pagecolor="#ffffff"
     id="base"
     inkscape:zoom="1.4142136"
     inkscape:cx="-231.18857"
     inkscape:cy="59.126516"
     inkscape:window-x="0"
     inkscape:window-y="28"
     inkscape:current-layer="svg2"
     showgrid="false"
     inkscape:window-maximized="1"
     fit-margin-top="0"
     fit-margin-left="0"
     fit-margin-right="0"
     fit-margin-bottom="0" />
  <defs
     id="defs4">
    <linearGradient
       id="WhiteTransparent"
       gradientUnits="userSpaceOnUse">
      <stop
         style="stop-color:white;stop-opacity:1"
         offset="0"
         id="stop7" />
      <stop
         style="stop-color:white;stop-opacity:0"
         offset="1"
         id="stop9" />
    </linearGradient>
    <linearGradient
       id="BlackTransparent"
       gradientUnits="userSpaceOnUse">
      <stop
         style="stop-color:black;stop-opacity:1"
         offset="0"
         id="stop12" />
      <stop
         style="stop-color:black;stop-opacity:0"
         offset="1"
         id="stop14" />
    </linearGradient>
    <linearGradient
       id="liquidShade"
       xlink:href="#BlackTransparent"
       x1="0"
       y1="128"
       x2="0"
       y2="64"
       gradientUnits="userSpaceOnUse" />
    <linearGradient
       id="liquidSpecular"
       xlink:href="#WhiteTransparent"
       x1="0"
       y1="128"
       x2="0"
       y2="76"
       gradientUnits="userSpaceOnUse" />
    <linearGradient
       id="sideSpecular"
       xlink:href="#WhiteTransparent"
       x1="80"
       y1="20"
       x2="60"
       y2="40"
       gradientUnits="userSpaceOnUse" />
    <linearGradient
       id="IcecapTip"
       xlink:href="#WhiteTransparent"
       x1="60"
       y1="20"
       x2="90"
       y2="50"
       gradientUnits="userSpaceOnUse" />
    <linearGradient
       id="shinySpecular"
       xlink:href="#WhiteTransparent"
       x1="33"
       y1="35"
       x2="58"
       y2="60"
       gradientUnits="userSpaceOnUse" />
    <clipPath
       clipPathUnits="userSpaceOnUse"
       id="clipoutline1">
      <path
         id="outline1"
         d="M 54.1,12.5 12.9,54.7 C -2.7,70.3 23,69 32.3,74.9 36.6,77.7 18.5,81.3 22.2,85 c 3.6,3.7 21.7,7.1 25.3,10.7 3.6,3.7 -7.3,7.6 -3.7,11.3 3.5,3.7 11.9,0.2 13.4,8.6 1.1,6.2 15.4,3.1 21.8,-2.2 4,-3.4 -6.9,-3.4 -3.3,-7.1 9,-9.1 17,-4.1 20.3,-12.5 1.8,-4.5 -13.6,-7.7 -9.5,-10.6 9.8,-6.9 45.8,-10.4 29.2,-27 L 73,12.5 c -5.3,-5 -14,-5 -18.9,0 z m -9.9,64.7 c 0.9,0 30.8,4 19.3,7.1 -4.4,1.2 -24.6,-7.1 -19.3,-7.1 z m 57.2,16.6 c 0,2.1 16.3,3.3 15.4,-0.5 -1.3,-6.4 -13.6,-5.9 -15.4,0.5 z m -69.5,11.1 c 3.7,3.2 9.3,-0.7 11.1,-5.2 -3.6,-4.7 -16.9,0.3 -11.1,5.2 z m 67.5,-6.7 c -4.6,4.2 0.8,8.6 5.3,5.7 1.2,-0.8 -0.1,-4.7 -5.3,-5.7 z"
         inkscape:connector-curvature="0" />
    </clipPath>
    <filter
       id="ShadowBlur"
       filterUnits="userSpaceOnUse"
       x="0"
       y="0">
      <feGaussianBlur
         in="SourceAlpha"
         stdDeviation="3"
         result="blur"
         id="feGaussianBlur24" />
    </filter>
    <linearGradient
       gradientUnits="userSpaceOnUse"
       id="linearGradient5785">
      <stop
         id="stop5787"
         offset="0"
         style="stop-color:#c0cdf9;stop-opacity:1" />
      <stop
         id="stop5789"
         offset="1"
         style="stop-color:#07092d;stop-opacity:0.28804347" />
    </linearGradient>
    <clipPath
       clipPathUnits="userSpaceOnUse"
       id="clipPath9086">
      <use
         id="use9088"
         xlink:href="#outline1"
         class="low-specularity"
         style="fill:#ffffff;fill-opacity:1"
         x="0"
         y="0"
         width="400"
         height="300"
         transform="translate(1.009546e-6)" />
    </clipPath>
    <linearGradient
       gradientUnits="userSpaceOnUse"
       y2="60"
       x2="58"
       y1="35"
       x1="33"
       xlink:href="#WhiteTransparent-4"
       id="shinySpecular-4"
       gradientTransform="matrix(1.0764629,0,0,1.0764629,-0.41501205,-0.40873952)" />
    <linearGradient
       gradientUnits="userSpaceOnUse"
       id="WhiteTransparent-4">
      <stop
         id="stop7606-4"
         offset="0"
         style="stop-color:white;stop-opacity:1" />
      <stop
         id="stop7608-7"
         offset="1"
         style="stop-color:white;stop-opacity:0" />
    </linearGradient>
    <linearGradient
       gradientUnits="userSpaceOnUse"
       y2="50"
       x2="90"
       y1="20"
       x1="60"
       xlink:href="#WhiteTransparent-4"
       id="IcecapTip-6"
       gradientTransform="scale(1.0666667)" />
  </defs>
  <style
     type="text/css"
     id="style26">
	.specularity {opacity:0.5;}
	.low-specularity {opacity:0.25;}
	.full-specularity {opacity:1;}
	.black {fill:#000000;}
	.white {fill:#ffffff;}
	.outline-big {stroke-width:16;stroke:none;opacity:0.1;fill:none;}
	.outline-small {stroke-width:8;stroke:none;opacity:0.2;fill:none;}
	.stroke-highlight {fill:none;stroke:none;opacity:0.2;}
       	.base-shadow 	{fill:black;opacity:75;}
	</style>
  <!-- Copyright License -->
  <metadata
     id="metadata49">
    <rdf:RDF>
      <cc:Work
         rdf:about="etiquette-icon">
        <dc:format>image/svg+xml</dc:format>
        <dc:type
           rdf:resource="http://purl.org/dc/dcmitype/StillImage" />
        <dc:creator>
          <cc:Agent>
            <dc:title />
          </cc:Agent>
        </dc:creator>
        <dc:rights>
          <cc:Agent>
            <dc:title />
          </cc:Agent>
        </dc:rights>
        <dc:publisher>
          <cc:Agent>
            <dc:title />
          </cc:Agent>
        </dc:publisher>
        <dc:identifier />
        <dc:date />
        <cc:license
           rdf:resource="http://creativecommons.org/licenses/by-sa/4.0/" />
        <dc:title>lisp-text</dc:title>
      </cc:Work>
      <cc:License
         rdf:about="http://creativecommons.org/licenses/by-sa/4.0/">
        <cc:permits
           rdf:resource="http://creativecommons.org/ns#Reproduction" />
        <cc:permits
           rdf:resource="http://creativecommons.org/ns#Distribution" />
        <cc:requires
           rdf:resource="http://creativecommons.org/ns#Notice" />
        <cc:requires
           rdf:resource="http://creativecommons.org/ns#Attribution" />
        <cc:permits
           rdf:resource="http://creativecommons.org/ns#DerivativeWorks" />
        <cc:requires
           rdf:resource="http://creativecommons.org/ns#ShareAlike" />
      </cc:License>
    </rdf:RDF>
  </metadata>
  <path
     style="fill:#1b4165;fill-opacity:1"
     d="m 15.212038,0.00208578 c -0.39595,-0.061 -1.2952,1.22360002 -1.99805,2.85360002 -1.15616,2.6814 -1.13082,3.0104 0.26953,3.4589 5.10725,1.6356 6.57258,2.5614 7.04688,4.4512002 0.3371,1.3431 -1.14977,6.7168 -4.14063,14.9609 -2.567,7.0758 -7.2378803,19.9528 -10.3789003,28.615297 -3.14103,8.6625 -5.83780003,16.3077 -5.99414003,16.9883 -0.1585,0.6901 0.82653,1.6238 2.22656003,2.1113 2.1461,0.7475 2.85016,0.5345 4.84765,-1.4629 1.2853,-1.2854 2.9903203,-2.3322 3.7890703,-2.3262 0.79875,0.01 8.94406,1.9953 18.10156,4.42 9.1575,2.4246 17.05578,4.4444 17.55078,4.4882 0.90257,0.08 8.10204,-18.6655 7.42773,-19.3398 -0.19739,-0.1974 -1.60499,-0.6097 -3.12695,-0.9141 -2.5175,-0.5035 -2.81972,-0.3085 -3.35937,2.1485 -0.72014,3.2788 -3.25981,5.7354 -6.06446,5.8691 -1.75845,0.084 -22.22046,-4.5918 -23.06054,-5.2695 -0.27764,-0.224 16.89477,-48.200697 17.51562,-48.935597 0.17356,-0.2054 2.57098,0.2541 5.32813,1.0215 l 5.01172,1.3945 0.83984,-2.205 c 0.46116,-1.2129 0.83789,-2.6960002 0.83789,-3.2969002 0,-0.6685 -6.19789,-2.6108 -15.97461,-5.0059 -8.78625,-2.1525 -16.29935,-3.96470002 -16.69531,-4.02540002 z M 146.02844,10.201386 l -5.19921,2.8671 c -2.85895,1.5768 -5.53866,3.1607 -5.95508,3.5215 -0.41643,0.3608 2.47847,8.2938 6.43164,17.6289 3.95316,9.3351 9.11424,21.535097 11.4707,27.109397 2.38366,5.8503 4.45683,10.6674 6.89258,16.0137 1.28011,2.8096 1.74122,2.7742 7.64844,-0.6055 4.2441,-2.4283 5.5026,-3.5066 5.04101,-5.3457 -1.52733,-2.8911 -3.44441,-8.0791 -5.67578,-13.2617 0,-0.3724 1.42505,-1.4462 3.16797,-2.3848 7.9055,-4.2574 15.39259,-15.751797 16.35937,-25.119097 1.90078,-18.4168 -15.78308,-26.5375002 -32.59765,-14.9688 l -4.05078,2.7871 -1.76758,-4.121 z m -65.980462,2.705 c -3.82307,-0.1798 -7.87274,2.8675 -7.85157,7.42 0.0158,3.3917 0.60154,4.5049 3.13477,5.9414 2.31964,1.3154 3.43963,1.3152 6.32617,0 2.35191,-1.0716 4.92383,-4.8898 4.92383,-7.3086 0,-0.7003 -0.83931,-2.3403 -1.86524,-3.6446 -1.24021,-1.5767 -2.93021,-2.3265 -4.66796,-2.4082 z m 86.705072,11.0078 c 2.82358,0.1334 5.36995,1.6523 7.17188,4.5352 3.32682,5.3225 0.0267,14.6819 -6.60352,18.7246 -1.58894,0.968797 -3.32467,1.763597 -3.85742,1.765597 -0.53274,0 -2.72016,-4.115997 -4.85937,-9.150397 l -3.88868,-9.1543 3.21094,-2.9414 c 2.9033,-2.6607 6.0026,-3.9126 8.82617,-3.7793 z m -41.8164,5.2559 c -3.60716,0.059 -7.78148,0.3833 -10.36524,0.9375 -5.93359,1.2725 -11.49737,5.3988 -13.63867,10.1152 -2.202322,4.8509 -2.186892,8.150597 0.0586,12.789097 2.80009,5.7842 5.97908,6.9013 15.5957,5.4805 4.29946,-0.6352 5.50865,-0.5206 6.66211,0.6328 1.27955,1.2795 1.27334,1.6172 -0.0703,3.668 -1.39385,2.1273 -6.17452,4.1331 -9.88086,4.1445 -2.48219,0.01 -5.11524,-1.6856 -5.11524,-3.2891 0,-1.1275 -0.60611,-1.3101 -2.85937,-0.8594 -1.57266,0.3145 -3.038,0.7509 -3.25586,0.9688 -0.21786,0.2178 -0.0452,2.3202 0.38476,4.6738 0.63046,3.4509 1.21785,4.4116 3.03125,4.9571 4.48612,1.3494 17.30249,0.3034 21.23438,-1.7325 9.6906,-5.0178 13.01046,-15.0644 7.52539,-22.7675 -2.69573,-3.785797 -7.46163,-4.975197 -14.4336,-3.603597 -4.72805,0.9302 -5.77366,0.8964 -6.89257,-0.2226 -3.18321,-3.1832 1.95742,-7.8203 8.66992,-7.8203 2.68174,0 3.94419,0.5017 4.97851,1.9785 1.16814,1.6678 1.7733,1.844 3.84571,1.1152 2.2921,-0.8061 2.44047,-1.1703 2.18359,-5.3476 -0.15158,-2.4649 -0.46527,-4.7888 -0.69727,-5.1641 -0.31328,-0.5069 -3.35378,-0.7131 -6.96093,-0.6543 z m -63.357422,7.1719 -0.3711,3.1777 c -0.44204,3.7863 -0.26511,4.0235 3.00391,4.0235 4.42924,0 5.36497,2.73 4.33594,12.630797 -1.5924,15.3211 -1.17347,14.3692 -6.30664,14.3692 h -4.45899 v 3.1484 3.1504 h 15.75 15.75 v -3.1504 c 0,-2.8945 -0.21768,-3.1484 -2.67969,-3.1484 -1.85274,0 -3.12626,-0.6826 -4.1289,-2.2129 -1.33123,-2.0316 -1.33358,-3.2852 -0.0215,-15.3047 0.78609,-7.200397 1.42969,-13.899197 1.42969,-14.886697 0,-1.6973 -0.61027,-1.7969 -11.15234,-1.7969 z"
     id="path896"
     inkscape:connector-curvature="0" />
</svg>
