<?xml version="1.0" encoding="UTF-8" standalone="no"?>
<svg
   xmlns:dc="http://purl.org/dc/elements/1.1/"
   xmlns:cc="http://creativecommons.org/ns#"
   xmlns:rdf="http://www.w3.org/1999/02/22-rdf-syntax-ns#"
   xmlns:svg="http://www.w3.org/2000/svg"
   xmlns="http://www.w3.org/2000/svg"
   xmlns:xlink="http://www.w3.org/1999/xlink"
   xmlns:sodipodi="http://sodipodi.sourceforge.net/DTD/sodipodi-0.dtd"
   xmlns:inkscape="http://www.inkscape.org/namespaces/inkscape"
   version="1.0"
   width="400.99048"
   height="282.55386"
   id="svg2"
   sodipodi:version="0.32"
   inkscape:version="0.92.2 5c3e80d, 2017-08-06"
   sodipodi:docname="made-with-lisp-shadow.svg"
   inkscape:output_extension="org.inkscape.output.svg.inkscape"
   inkscape:export-filename="inkscape.png"
   inkscape:export-xdpi="90"
   inkscape:export-ydpi="90">
  <title
     id="title858">made-with-lisp-shadow</title>
  <sodipodi:namedview
     bordercohor="#666666"
     inkscape:window-height="715"
     inkscape:window-width="1366"
     inkscape:pageshadow="2"
     inkscape:pageopacity="0.0"
     guidetolerance="10.0"
     gridtolerance="10.0"
     objecttolerance="10.0"
     borderopacity="1.0"
     bordercolor="#666666"
     pagecolor="#ffffff"
     id="base"
     inkscape:zoom="1"
     inkscape:cx="-389.54707"
     inkscape:cy="153.62314"
     inkscape:window-x="0"
     inkscape:window-y="28"
     inkscape:current-layer="svg2"
     showgrid="false"
     inkscape:window-maximized="1"
     fit-margin-top="0"
     fit-margin-left="0"
     fit-margin-right="0"
     fit-margin-bottom="0" />
  <defs
     id="defs4">
    <linearGradient
       id="WhiteTransparent"
       gradientUnits="userSpaceOnUse">
      <stop
         style="stop-color:white;stop-opacity:1"
         offset="0"
         id="stop7" />
      <stop
         style="stop-color:white;stop-opacity:0"
         offset="1"
         id="stop9" />
    </linearGradient>
    <linearGradient
       id="BlackTransparent"
       gradientUnits="userSpaceOnUse">
      <stop
         style="stop-color:black;stop-opacity:1"
         offset="0"
         id="stop12" />
      <stop
         style="stop-color:black;stop-opacity:0"
         offset="1"
         id="stop14" />
    </linearGradient>
    <linearGradient
       id="liquidShade"
       xlink:href="#BlackTransparent"
       x1="0"
       y1="128"
       x2="0"
       y2="64"
       gradientUnits="userSpaceOnUse" />
    <linearGradient
       id="liquidSpecular"
       xlink:href="#WhiteTransparent"
       x1="0"
       y1="128"
       x2="0"
       y2="76"
       gradientUnits="userSpaceOnUse" />
    <linearGradient
       id="sideSpecular"
       xlink:href="#WhiteTransparent"
       x1="80"
       y1="20"
       x2="60"
       y2="40"
       gradientUnits="userSpaceOnUse" />
    <linearGradient
       id="IcecapTip"
       xlink:href="#WhiteTransparent"
       x1="60"
       y1="20"
       x2="90"
       y2="50"
       gradientUnits="userSpaceOnUse" />
    <linearGradient
       id="shinySpecular"
       xlink:href="#WhiteTransparent"
       x1="33"
       y1="35"
       x2="58"
       y2="60"
       gradientUnits="userSpaceOnUse" />
    <clipPath
       clipPathUnits="userSpaceOnUse"
       id="clipoutline1">
      <path
         id="outline1"
         d="M 54.1,12.5 12.9,54.7 C -2.7,70.3 23,69 32.3,74.9 36.6,77.7 18.5,81.3 22.2,85 c 3.6,3.7 21.7,7.1 25.3,10.7 3.6,3.7 -7.3,7.6 -3.7,11.3 3.5,3.7 11.9,0.2 13.4,8.6 1.1,6.2 15.4,3.1 21.8,-2.2 4,-3.4 -6.9,-3.4 -3.3,-7.1 9,-9.1 17,-4.1 20.3,-12.5 1.8,-4.5 -13.6,-7.7 -9.5,-10.6 9.8,-6.9 45.8,-10.4 29.2,-27 L 73,12.5 c -5.3,-5 -14,-5 -18.9,0 z m -9.9,64.7 c 0.9,0 30.8,4 19.3,7.1 -4.4,1.2 -24.6,-7.1 -19.3,-7.1 z m 57.2,16.6 c 0,2.1 16.3,3.3 15.4,-0.5 -1.3,-6.4 -13.6,-5.9 -15.4,0.5 z m -69.5,11.1 c 3.7,3.2 9.3,-0.7 11.1,-5.2 -3.6,-4.7 -16.9,0.3 -11.1,5.2 z m 67.5,-6.7 c -4.6,4.2 0.8,8.6 5.3,5.7 1.2,-0.8 -0.1,-4.7 -5.3,-5.7 z"
         inkscape:connector-curvature="0" />
    </clipPath>
    <filter
       id="ShadowBlur"
       filterUnits="userSpaceOnUse"
       x="0"
       y="0">
      <feGaussianBlur
         in="SourceAlpha"
         stdDeviation="3"
         result="blur"
         id="feGaussianBlur24" />
    </filter>
    <linearGradient
       gradientUnits="userSpaceOnUse"
       id="linearGradient5785">
      <stop
         id="stop5787"
         offset="0"
         style="stop-color:#c0cdf9;stop-opacity:1" />
      <stop
         id="stop5789"
         offset="1"
         style="stop-color:#07092d;stop-opacity:0.28804347" />
    </linearGradient>
    <clipPath
       clipPathUnits="userSpaceOnUse"
       id="clipPath9086">
      <use
         id="use9088"
         xlink:href="#outline1"
         class="low-specularity"
         style="fill:#ffffff;fill-opacity:1"
         x="0"
         y="0"
         width="400"
         height="300"
         transform="translate(1.009546e-6)" />
    </clipPath>
    <linearGradient
       gradientUnits="userSpaceOnUse"
       y2="60"
       x2="58"
       y1="35"
       x1="33"
       xlink:href="#WhiteTransparent-4"
       id="shinySpecular-4"
       gradientTransform="matrix(1.0764629,0,0,1.0764629,-0.41501205,-0.40873952)" />
    <linearGradient
       gradientUnits="userSpaceOnUse"
       id="WhiteTransparent-4">
      <stop
         id="stop7606-4"
         offset="0"
         style="stop-color:white;stop-opacity:1" />
      <stop
         id="stop7608-7"
         offset="1"
         style="stop-color:white;stop-opacity:0" />
    </linearGradient>
    <linearGradient
       gradientUnits="userSpaceOnUse"
       y2="50"
       x2="90"
       y1="20"
       x1="60"
       xlink:href="#WhiteTransparent-4"
       id="IcecapTip-6"
       gradientTransform="scale(1.0666667)" />
    <linearGradient
       inkscape:collect="always"
       xlink:href="#linearGradient1649"
       id="linearGradient1706"
       gradientUnits="userSpaceOnUse"
       gradientTransform="translate(-21.086924,-288.29484)"
       x1="250.47563"
       y1="246.20464"
       x2="247.18591"
       y2="406.72943" />
    <linearGradient
       id="linearGradient1649"
       inkscape:collect="always">
      <stop
         id="stop1645"
         offset="0"
         style="stop-color:#ffffff;stop-opacity:0.72093022" />
      <stop
         id="stop1647"
         offset="1"
         style="stop-color:#ffffff;stop-opacity:0;" />
    </linearGradient>
    <radialGradient
       inkscape:collect="always"
       xlink:href="#linearGradient1690"
       id="radialGradient1704"
       gradientUnits="userSpaceOnUse"
       gradientTransform="matrix(0.45339982,-0.42065471,0.28136861,0.30327131,107.25815,285.82961)"
       cx="412.08014"
       cy="128.79448"
       fx="412.08014"
       fy="128.79448"
       r="196.50113" />
    <linearGradient
       inkscape:collect="always"
       id="linearGradient1690">
      <stop
         style="stop-color:#395f83;stop-opacity:1"
         offset="0"
         id="stop1686" />
      <stop
         style="stop-color:#1b4165;stop-opacity:1"
         offset="1"
         id="stop1688" />
    </linearGradient>
    <radialGradient
       inkscape:collect="always"
       xlink:href="#linearGradient1657"
       id="radialGradient1702"
       gradientUnits="userSpaceOnUse"
       gradientTransform="matrix(1,0,0,0.70163753,13.212416,-184.4764)"
       cx="203.4072"
       cy="503.91388"
       fx="203.4072"
       fy="503.91388"
       r="186.58937" />
    <linearGradient
       inkscape:collect="always"
       id="linearGradient1657">
      <stop
         style="stop-color:#daebbf;stop-opacity:1"
         offset="0"
         id="stop1653" />
      <stop
         style="stop-color:#afc195;stop-opacity:1"
         offset="1"
         id="stop1655" />
    </linearGradient>
    <filter
       inkscape:collect="always"
       style="color-interpolation-filters:sRGB"
       id="filter1560-6"
       x="-0.010163072"
       width="1.0203261"
       y="-0.014647461"
       height="1.0292948">
      <feGaussianBlur
         inkscape:collect="always"
         stdDeviation="1.6642125"
         id="feGaussianBlur1562-7" />
    </filter>
  </defs>
  <style
     type="text/css"
     id="style26">
	.specularity {opacity:0.5;}
	.low-specularity {opacity:0.25;}
	.full-specularity {opacity:1;}
	.black {fill:#000000;}
	.white {fill:#ffffff;}
	.outline-big {stroke-width:16;stroke:none;opacity:0.1;fill:none;}
	.outline-small {stroke-width:8;stroke:none;opacity:0.2;fill:none;}
	.stroke-highlight {fill:none;stroke:none;opacity:0.2;}
       	.base-shadow 	{fill:black;opacity:75;}
	</style>
  <!-- Copyright License -->
  <metadata
     id="metadata49">
    <rdf:RDF>
      <cc:Work
         rdf:about="etiquette-icon">
        <dc:format>image/svg+xml</dc:format>
        <dc:type
           rdf:resource="http://purl.org/dc/dcmitype/StillImage" />
        <dc:creator>
          <cc:Agent>
            <dc:title />
          </cc:Agent>
        </dc:creator>
        <dc:rights>
          <cc:Agent>
            <dc:title />
          </cc:Agent>
        </dc:rights>
        <dc:publisher>
          <cc:Agent>
            <dc:title />
          </cc:Agent>
        </dc:publisher>
        <dc:identifier />
        <dc:date />
        <cc:license
           rdf:resource="http://creativecommons.org/licenses/by-sa/4.0/" />
        <dc:title>made-with-lisp-shadow</dc:title>
      </cc:Work>
      <cc:License
         rdf:about="http://creativecommons.org/licenses/by-sa/4.0/">
        <cc:permits
           rdf:resource="http://creativecommons.org/ns#Reproduction" />
        <cc:permits
           rdf:resource="http://creativecommons.org/ns#Distribution" />
        <cc:requires
           rdf:resource="http://creativecommons.org/ns#Notice" />
        <cc:requires
           rdf:resource="http://creativecommons.org/ns#Attribution" />
        <cc:permits
           rdf:resource="http://creativecommons.org/ns#DerivativeWorks" />
        <cc:requires
           rdf:resource="http://creativecommons.org/ns#ShareAlike" />
      </cc:License>
    </rdf:RDF>
  </metadata>
  <path
     sodipodi:nodetypes="csccsscsccscscccsssscscsccscc"
     style="fill:#000000;fill-opacity:0.34551499;stroke-width:1.03764725;filter:url(#filter1560-6)"
     d="m 165.58245,272.37038 c -17.90242,-3.59319 -32.05477,-8.0031 -49.10943,-15.30261 C 39.546716,224.14275 -1.4443944,158.90741 18.027026,100.39579 l 3.89523,-10.400035 -2.75698,-2.5754 c -1.51633,-1.41646 -3.62511,-4.27709 -4.68617,-6.35693 -1.32297,-2.59323 -3.27011,-4.49289 -6.1964104,-6.04529 -4.05473,-2.15102 -5.4178,-3.66779 -3.29614,-3.66779 2.12118,0 8.2685204,3.81319 10.0170904,6.21358 l 1.85325,2.54411 1.44354,-6.32851 c 0.79395,-3.48068 1.68685,-6.57181 1.98423,-6.86919 1.57215,-1.57216 1.52923,1.49045 -0.12046,8.59427 -1.80781,7.78471 -1.80966,7.98914 -0.0892,9.83585 0.96634,1.03724 2.91792,2.34389 2.91792,2.34389 0.89108,-1.6083 1.34074,-2.33308 2.38317,-4.37051 9.55435,-18.67392 27.70521,-35.99297 50.38486,-49.46671 14.37965,-8.54279 38.724234,-18.02578 54.822424,-21.35508 39.65394,-8.2009 66.52081,-8.69195 106.36048,-1.94399 74.61135,12.63752 136.11402,56.69862 154.42204,110.629445 14.1387,41.64877 1.3372,83.53093 -34.88508,114.13232 -7.54293,6.37242 -19.73283,14.54256 -27.63505,18.52206 -5.78258,2.91207 -6.41859,3.49908 -5.92441,5.46802 0.47896,1.90839 -0.13257,2.59833 -4.53645,5.11798 -6.12961,3.50701 -6.60925,3.54507 -7.93756,0.62975 l -1.03996,-2.28248 -5.88058,2.33196 c -12.42745,4.92814 -38.59748,10.42416 -59.4443,12.484 -26.08927,2.80004 -56.72391,-0.86732 -78.50006,-5.21073 z"
     id="path1585"
     inkscape:connector-curvature="0" />
  <path
     style="color:#000000;clip-rule:nonzero;display:inline;overflow:visible;visibility:visible;opacity:1;isolation:auto;mix-blend-mode:normal;color-interpolation:sRGB;color-interpolation-filters:linearRGB;solid-color:#000000;solid-opacity:1;fill:url(#radialGradient1702);fill-opacity:1;fill-rule:evenodd;stroke:none;stroke-width:1.03764725;stroke-linecap:square;stroke-linejoin:miter;stroke-miterlimit:4;stroke-dasharray:none;stroke-dashoffset:0;stroke-opacity:1;paint-order:fill markers stroke;color-rendering:auto;image-rendering:auto;shape-rendering:auto;text-rendering:auto;enable-background:accumulate"
     d="m 163.90706,6.970395 -3.10281,0.14389 c -3.80579,0.17789 -4.89164,1.09543 -2.72788,2.30633 0.93237,0.52178 1.6169,1.98557 1.60309,3.43113 -0.0192,2.00798 -0.75938,2.8611 -3.63379,4.18504 -8.35689,3.84913 -6.49611,13.91619 2.25769,12.21465 1.5409,-0.29952 4.23728,-0.81556 5.99282,-1.14506 3.22267,-0.60488 5.21156,-2.92649 2.50697,-2.92649 -1.81623,0 -2.36021,-2.28959 -2.661,-11.20538 z m 60.78546,1.40041 c -1.75584,0 -2.7324,1.56953 -2.06314,3.31359 0.59508,1.55075 1.42634,1.67631 3.28318,0.50058 1.58721,-1.00502 0.68826,-3.81417 -1.22004,-3.81417 z m 22.08648,2.14421 c -1.43604,0.0369 -1.53062,0.84462 -0.11957,2.25567 0.76151,0.76151 0.36796,3.04977 -1.47744,8.59098 -1.98114,5.9488 -2.89609,7.55335 -4.30664,7.55335 -3.49086,0 -1.72411,1.69886 2.92852,2.81502 4.62777,1.11019 7.17813,0.63584 4.72616,-0.87957 -0.84881,-0.5246 -1.0386,-1.68903 -0.59989,-3.68648 0.49719,-2.2637 1.13473,-2.91839 2.84542,-2.91839 3.07222,0 3.44435,1.08383 1.88682,5.49832 l -1.34975,3.82835 2.52318,0.5553 c 1.3884,0.30549 2.94586,0.66569 3.4595,0.80053 1.39418,0.36601 1.79939,-1.45219 0.50262,-2.25364 -0.87493,-0.54074 -0.86631,-1.55345 0.0344,-4.55998 1.03311,-3.44822 0.967,-4.07252 -0.60394,-5.80839 -1.21092,-1.33805 -2.56809,-1.82598 -4.3492,-1.56457 -2.99997,0.44029 -3.03069,0.3216 -1.23829,-4.75859 1.47959,-4.19364 1.42036,-4.29805 -2.98526,-5.24296 -0.77052,-0.16526 -1.398,-0.23727 -1.87668,-0.22495 z m -11.46478,0.82485 c -1.08072,0.0341 -1.79183,0.80837 -2.47658,2.62248 -0.59415,1.5741 -1.5855,2.74588 -2.20297,2.60426 -0.61748,-0.14162 -1.31498,0.26792 -1.55039,0.90996 -0.23543,0.64205 0.26477,1.16736 1.11263,1.16736 1.03055,0 1.38047,0.54095 1.05588,1.63348 -1.55699,5.24091 -1.57417,6.57094 -0.1074,8.03771 1.89749,1.89749 5.6903,2.0059 6.39003,0.18241 0.31414,-0.81863 -0.19986,-1.58188 -1.3011,-1.93141 -2.0637,-0.65499 -2.18289,-1.24168 -0.92821,-4.54174 0.78355,-2.06088 1.2895,-2.27825 4.20125,-1.80574 4.15993,0.67506 4.59601,-1.36524 0.46816,-2.19082 -2.52312,-0.50461 -2.81499,-0.89883 -2.5698,-3.47976 0.22025,-2.31839 -0.10499,-2.96486 -1.60511,-3.17983 -0.17049,-0.0244 -0.33201,-0.0333 -0.48639,-0.0283 z m -18.87627,0.76809 c -0.64204,9.3e-4 -2.36261,1.89082 -3.82227,4.20126 -1.45967,2.31045 -2.99339,4.20126 -3.40883,4.20126 -0.41546,0 -1.12042,-1.54247 -1.5666,-3.4291 -1.11648,-4.72094 -2.60372,-4.82871 -5.14973,-0.37088 -1.18923,2.0822 -2.43225,3.78994 -2.76031,3.7939 -0.32806,0.004 -0.86298,-1.41827 -1.18965,-3.15956 -0.48954,-2.60948 -1.07523,-3.23714 -3.33587,-3.56893 -3.19203,-0.4685 -4.73658,1.83604 -2.38334,3.55677 0.80736,0.59035 2.13088,3.01835 2.94067,5.39496 0.80979,2.3766 1.84975,4.32082 2.31038,4.32082 0.46063,0 1.78636,-1.46546 2.94677,-3.25683 1.16039,-1.79136 2.36424,-3.26264 2.67517,-3.26899 0.31093,-0.006 0.95713,1.3519 1.43487,3.01768 1.40833,4.91055 3.22864,4.13108 8.03975,-3.44125 4.83628,-7.61197 4.99275,-7.99357 3.26899,-7.99111 z m -39.82174,1.93951 c -1.71445,-0.015 -3.53165,0.61663 -5.16189,1.89898 -2.11651,1.66484 -2.46516,2.57825 -2.2273,5.83676 0.25437,3.48465 0.59692,3.96547 3.49599,4.90248 3.48898,1.12769 7.65007,0.45973 8.24443,-1.3234 0.24817,-0.74448 -0.89838,-1.11669 -3.44126,-1.11669 -5.06237,0 -4.83026,-1.22282 0.55125,-2.89406 5.13118,-1.5935 5.67631,-2.53384 3.08254,-5.31794 -1.218,-1.30737 -2.8293,-1.97106 -4.54376,-1.98613 z m -52.86529,0.78027 c -0.56043,0.0436 -1.2436,0.21065 -2.0003,0.53098 -2.70591,1.14548 -2.98631,1.68732 -3.6034,7.00412 -1.30207,11.21877 -1.29616,11.21516 -6.43868,4.21139 -3.36757,-4.5864 -4.92331,-6.01384 -6.05159,-5.54695 -0.83541,0.34569 -2.25461,0.83999 -3.15348,1.09844 -2.1836,0.62785 -2.07069,1.78901 0.23306,2.39146 1.69392,0.44296 1.86858,1.27352 1.86858,8.92538 0,4.64049 -0.42065,8.69711 -0.93428,9.01456 -0.51364,0.31745 -0.9343,1.00003 -0.9343,1.51796 0,0.90746 1.55654,0.6232 6.30493,-1.15316 2.35874,-0.8824 2.84147,-2.69951 0.71744,-2.69951 -1.68938,0 -2.5843,-3.20817 -2.18473,-7.83706 l 0.29994,-3.45749 4.20126,5.62803 c 2.31135,3.0954 4.70331,5.63542 5.31388,5.64626 0.62548,0.0111 1.36088,-1.9167 1.68618,-4.41608 0.31755,-2.43977 0.89656,-5.90559 1.28693,-7.70332 l 0.71135,-3.26899 2.14826,4.15059 c 1.76021,3.39762 1.95044,4.47285 1.04169,5.92796 -1.62577,2.60328 -0.81713,2.78144 4.18505,0.92416 4.4493,-1.65198 7.03314,-4.42189 3.57096,-3.82836 -2.40605,0.41249 -9.89439,-13.7923 -7.92219,-15.02764 1.90616,-1.19396 1.33475,-2.16355 -0.34656,-2.03273 z m 95.82429,0.30805 c -0.77388,0.0205 -1.03764,0.34198 -1.03764,1.02144 0,0.76846 0.45712,1.54874 1.01534,1.73481 0.64904,0.21635 0.77967,1.5919 0.36278,3.81416 -0.49071,2.61565 -1.10658,3.47369 -2.49278,3.47369 -3.56834,0 -1.04523,2.33919 3.05619,2.83326 4.50711,0.54294 6.98309,-0.5241 4.48701,-1.93342 -1.2798,-0.72261 -1.36241,-1.49655 -0.54314,-5.07677 0.53165,-2.32334 0.79034,-4.38672 0.57557,-4.5843 -0.21478,-0.19758 -1.75573,-0.65164 -3.42505,-1.00928 -0.88558,-0.18972 -1.53395,-0.28595 -1.99828,-0.27359 z m -43.32785,2.61438 c 0.35379,-0.025 0.66079,0.0426 0.85322,0.2351 0.27867,0.27865 -0.3697,0.97504 -1.44095,1.54836 -1.35058,0.7228 -1.94761,0.73728 -1.94761,0.0466 0,-0.84911 1.47398,-1.75496 2.53534,-1.83007 z m -32.11437,0.51478 c -0.67712,0.0147 -1.53307,0.19154 -2.6083,0.48842 -7.07589,1.95374 -11.16641,8.8362 -7.26962,12.23086 2.91563,2.53992 4.55185,2.6628 9.10576,0.68704 1.02727,-0.44569 2.88647,-0.93247 4.13033,-1.08224 2.87236,-0.34587 3.55103,-2.21203 1.04373,-2.86771 -1.49808,-0.39177 -1.90801,-1.26642 -1.91925,-4.08776 -0.016,-3.99866 -0.4513,-5.41268 -2.48265,-5.36861 z m 15.17559,0.46815 c 1.26245,-0.0823 1.38996,0.46596 1.15925,2.87177 -0.23042,2.40262 -0.7743,3.17573 -2.40158,3.40681 -1.32083,0.18755 -2.3342,-0.29349 -2.71776,-1.293 -0.8225,-2.14341 0.80915,-4.53832 3.34804,-4.91464 0.22892,-0.0339 0.4317,-0.0591 0.61205,-0.071 z m -18.1183,3.33791 c 0.58962,0.0628 0.76949,0.76436 1.02955,2.47251 0.24878,1.6341 0.26647,3.28707 0.0406,3.6723 -0.67805,1.15593 -3.73251,0.79143 -4.87208,-0.58166 -1.41771,-1.70824 -0.4957,-3.84055 2.19082,-5.06461 0.75433,-0.34369 1.25742,-0.53623 1.61119,-0.49854 z m 163.15382,18.39999 c -0.0232,0.0157 -0.0467,0.0533 -0.0689,0.11755 -0.35549,1.02727 -1.78642,7.75163 -3.17982,14.94252 -1.39337,7.1909 -2.65875,13.23153 -2.81299,13.42254 -0.15424,0.19101 -3.3197,-2.42807 -7.03453,-5.81854 -3.71483,-3.39045 -6.92884,-5.98904 -7.14193,-5.77595 -0.21307,0.21308 2.38674,4.99314 5.778,10.62169 3.39127,5.62856 6.16711,10.59551 6.16711,11.03919 0,0.44368 -4.13058,2.20464 -9.17872,3.91347 -5.04812,1.70884 -9.66646,3.40902 -10.26298,3.77769 -0.81428,0.50325 -0.73509,2.49829 0.31818,8.00326 0.77161,4.03278 1.2783,7.456575 1.1248,7.610085 -0.15351,0.1535 -2.36507,-0.75125 -4.91464,-2.01247 -9.53674,-4.717615 -28.31223,-6.726995 -39.8035,-4.260025 -7.01151,1.50525 -16.05328,5.046975 -33.0061,12.932085 -17.51874,8.14834 -24.04736,10.73937 -34.94155,13.86435 -7.81452,2.24156 -9.72119,2.43534 -20.00106,2.03273 -17.53454,-0.68675 -17.2267,-0.005 -6.20966,-13.79746 5.12281,-6.41332 9.31621,-12.080005 9.31856,-12.593645 0.002,-0.51363 -2.20369,-2.92274 -4.90046,-5.35239 l -4.90248,-4.41608 3.269,-2.96905 c 1.79772,-1.63302 4.88233,-4.40538 6.85414,-6.16103 1.97181,-1.75566 3.40293,-3.3742 3.18185,-3.59528 -0.22108,-0.22109 -3.59254,1.07187 -7.49254,2.87379 -3.90002,1.80192 -7.50034,3.2771 -8.00124,3.2771 -0.50087,0 -1.41759,-3.0472 -2.03679,-6.77106 -1.88541,-11.33897 -3.49476,-19.47089 -3.94183,-19.91796 -0.23345,-0.23345 -0.72024,5.55788 -1.08224,12.87128 -0.36199,7.31341 -0.82509,13.46535 -1.02954,13.66979 -0.20444,0.20445 -2.59923,-1.22636 -5.31997,-3.17982 -2.72072,-1.95345 -6.94162,-4.98129 -9.38139,-6.7285 -2.43976,-1.7472 -4.43634,-2.80761 -4.43634,-2.35699 0,0.45061 3.54401,4.79304 7.87557,9.65093 6.1517,6.8992 7.60011,9.03698 6.61704,9.76645 -0.69221,0.51363 -3.85922,2.53701 -7.03655,4.49714 -3.17732,1.96014 -5.56488,3.77598 -5.30578,4.03508 0.2591,0.25909 4.70406,-0.66671 9.87792,-2.05707 l 9.40772,-2.52723 3.33993,2.54751 c 1.83671,1.40093 3.21179,2.89322 3.0562,3.31763 -0.15559,0.42441 -4.86842,4.997455 -10.47375,10.161655 l -10.19205,9.38949 -5.34429,-2.84745 -5.34227,-2.84745 0.48235,-7.72156 c 0.64847,-10.394335 -1.1254,-15.749785 -7.048734,-21.277855 -10.74825,-10.03103 -18.59267,-10.88385 -42.6773,-4.63901 -23.9844,6.21885 -26.68812,7.05416 -26.41136,8.15931 0.40865,1.63185 12.27278,11.90596 23.80711,20.615145 36.06773,27.23353 69.306284,40.63396 97.392944,39.26643 22.48359,-1.09473 42.21759,-8.96521 68.87586,-27.46927 11.08347,-7.69329 16.75203,-9.72229 28.78052,-10.3015 17.05855,-0.82141 22.64647,1.79101 49.43012,23.10387 25.17011,20.02891 32.84282,25.49579 42.02471,29.94585 9.76215,4.73129 23.51238,8.32548 35.33471,9.23546 l 9.49083,0.7296 -8.87067,0.13173 c -24.70666,0.36665 -43.97043,-7.09946 -71.82058,-27.84015 -11.25408,-8.38122 -21.39144,-14.98306 -23.00861,-14.98306 -1.23551,0 -16.06482,14.93029 -14.88173,14.98306 0.50159,0.0223 2.80392,0.41287 5.11528,0.86943 3.35,0.66173 6.03705,0.36986 13.24419,-1.44095 14.19197,-3.56579 14.85463,-2.75637 1.9314,2.35903 -4.23749,1.67732 -7.70534,3.40082 -7.70534,3.82835 0,0.42751 5.67374,5.30582 12.60782,10.84058 12.02215,9.59602 16.11496,13.79846 9.57189,9.82928 -8.40642,-5.09955 -23.40834,-13.26805 -23.74632,-12.93006 -0.5295,0.5295 -4.03507,18.13003 -4.03507,20.25844 0,0.9473 -0.42306,1.98257 -0.94036,2.30227 -0.62521,0.3864 -0.7316,-3.55849 -0.31617,-11.76675 0.53129,-10.49732 0.4259,-12.23138 -0.69514,-11.56612 -0.72529,0.43042 -5.03026,3.2645 -9.56783,6.29682 -4.53757,3.03232 -8.50786,5.2572 -8.82202,4.94301 -0.31419,-0.31418 2.548,-3.71206 6.35963,-7.54929 3.81163,-3.83724 6.73129,-7.00941 6.48732,-7.04871 -0.24394,-0.0393 -1.0738,-0.2096 -1.84425,-0.37899 -0.77045,-0.16938 -4.08459,-0.75288 -7.36284,-1.29706 -3.27822,-0.54417 -6.14662,-1.17728 -6.37585,-1.40649 -0.22921,-0.22921 3.0376,-5.57245 7.25947,-11.87417 4.22188,-6.3017 7.86619,-12.18552 8.09852,-13.07395 0.36383,-1.39125 -0.46417,-1.66375 -5.9685,-1.97193 -17.39662,-0.974 -27.9686,3.16333 -49.34905,19.30996 -12.56447,9.48877 -25.06564,16.78552 -35.95488,20.98803 -7.30958,2.82102 -22.05182,6.58664 -25.78513,6.58664 -3.30497,0 -3.91169,0.7496 -2.08542,2.57587 0.81894,0.81894 -1.55841,4.34516 -9.80496,14.53922 -5.9878,7.4019 -10.88719,13.73665 -10.88719,14.07715 0,0.3405 1.87853,3.41889 4.17491,6.84199 2.29637,3.42308 3.99003,6.40874 3.7635,6.63527 -0.22653,0.22652 -3.16875,-1.38394 -6.53799,-3.57908 -3.36924,-2.19514 -6.24983,-3.82846 -6.4022,-3.62974 -0.15237,0.19871 -1.08905,2.04336 -2.08137,4.0979 -5.37717,11.13322 -11.76655,23.01897 -12.16197,22.62355 -0.24895,-0.24893 1.31189,-6.39264 3.46964,-13.65155 2.15774,-7.2589 3.70929,-13.41191 3.44734,-13.67384 -0.26193,-0.26195 -3.16232,0.15602 -6.44679,0.93024 -6.91321,1.62959 -7.373584,1.67633 -7.368934,0.73567 0.002,-0.38523 2.762294,-2.12705 6.134694,-3.87091 l 6.13064,-3.17172 -4.44445,-4.51133 c -2.4445,-2.4818 -4.20045,-4.75536 -3.90335,-5.05245 0.29709,-0.29709 4.00655,0.79768 8.24444,2.43198 7.39125,2.85037 7.74829,2.89901 8.73894,1.21802 0.56799,-0.96381 2.99523,-5.37098 5.39495,-9.79279 l 4.36339,-8.03974 -8.56059,-6.49948 c -4.70868,-3.57536 -11.85937,-8.11704 -15.88899,-10.09274 -4.02961,-1.9757 -10.542644,-5.74189 -14.474384,-8.36806 l -7.148,-4.77479 -4.20329,2.34685 c -3.55859,1.98668 -5.41787,2.34769 -12.13966,2.36106 -6.79563,0.0135 -8.77673,-0.37102 -13.76099,-2.67316 -6.44263,-2.97575 -13.30172,-9.55831 -15.54038,-14.91618 -1.66663,-3.98879 -4.48915,-17.32496 -7.15815,-33.81473 -2.71407,-16.768315 -3.73253,-17.369695 -7.73371,-4.574165 -6.48842,20.749635 -5.14445,43.426595 3.8851,65.590665 15.07,36.99107 56.32055,71.97735 105.546174,89.5153 20.50486,7.30542 40.53117,12.15059 58.96755,14.26969 4.87953,0.56085 10.13262,1.16809 11.67353,1.34772 7.987,0.93112 37.72253,0.45439 48.20803,-0.77215 15.96502,-1.86754 32.64321,-5.48856 46.11451,-10.01371 6.16362,-2.07043 11.37611,-3.92198 11.58435,-4.11411 0.20826,-0.19215 -1.62233,-5.08073 -4.06749,-10.86489 -2.44518,-5.78417 -7.80056,-18.44345 -11.90254,-28.12997 -4.102,-9.68651 -7.10588,-17.91823 -6.67378,-18.29258 0.4321,-0.37434 3.21269,-2.0179 6.17928,-3.65407 l 5.39494,-2.97513 1.8321,4.27625 1.83413,4.27624 4.20328,-2.89204 c 17.44759,-12.00426 35.7972,-3.57794 33.82486,15.53228 -1.00319,9.71989 -8.77214,21.64714 -16.97526,26.06481 -1.80853,0.97397 -3.28723,2.08811 -3.28723,2.47455 0,1.08228 2.95247,8.212 3.40072,8.212 1.26357,0 10.55861,-5.36452 19.39712,-11.19321 24.1339,-15.91549 45.62799,-43.43981 49.41794,-63.28432 l 0.57963,-3.03593 -5.34633,-0.002 c -12.12628,-0.006 -31.92969,-5.0599 -44.29252,-11.30063 -14.31725,-7.22733 -27.85318,-18.1006 -41.35389,-33.22092 l -8.41873,-9.428 -2.5779,-11.07973 c -1.41779,-6.093595 -2.57294,-11.500365 -2.56575,-12.014005 0.007,-0.51364 4.73979,-3.83785 10.51631,-7.38716 l 10.50213,-6.45286 8.17147,1.3538 c 4.49431,0.74431 8.17147,1.08465 8.17147,0.75797 0,-0.32668 -3.55592,-2.23307 -7.90193,-4.23774 l -7.90192,-3.64595 9.29019,-13.00909 c 5.10859,-7.15596 9.10403,-13.19528 8.87877,-13.42051 -0.22523,-0.22524 -5.36735,4.01298 -11.42628,9.41989 l -11.01689,9.8313 -0.46614,-13.68803 c -0.24076,-7.05747 -0.69684,-12.17153 -1.04575,-11.93699 z M 78.066056,90.551665 c 1.92,0 5.05853,3.43597 5.05853,5.53682 0,4.687755 -7.18114,6.537865 -9.80901,2.52723 -2.40131,-3.66488 0.19084,-8.06405 4.75048,-8.06405 z m -22.99239,29.050065 c -2.76793,0.003 -5.57521,1.91573 -5.55304,4.94909 0.0176,2.40785 0.83003,3.66847 3.25278,5.04232 2.31373,1.31202 1.82284,1.30999 4.64915,0.0223 3.09113,-1.40841 3.94239,-4.77397 1.96991,-7.78438 -1.01223,-1.54483 -2.65806,-2.23089 -4.3188,-2.22932 z m 108.085564,59.31614 c 0.41086,0.063 8.20681,1.94341 17.32384,4.17693 10.14478,2.48533 16.57601,4.50057 16.57601,5.19432 0,0.62347 -0.39091,2.16238 -0.86944,3.42099 l -0.87145,2.28809 -5.2004,-1.44703 c -2.86095,-0.7963 -5.34863,-1.27311 -5.52872,-1.05994 -0.64422,0.76255 -18.46313,50.54541 -18.17503,50.77784 0.8717,0.70326 22.10405,5.55486 23.9287,5.46791 2.91024,-0.13867 5.54552,-2.68791 6.29277,-6.0901 0.55997,-2.54953 0.87356,-2.75178 3.48584,-2.22932 1.57926,0.31585 3.03983,0.74364 3.24467,0.94848 0.69969,0.69968 -6.77081,20.15086 -7.70736,20.06793 -0.51364,-0.0454 -8.70926,-2.14137 -18.21152,-4.65725 -9.50225,-2.51588 -17.95421,-4.58014 -18.78303,-4.58632 -0.82882,-0.006 -2.59803,1.08005 -3.93172,2.41375 -2.07269,2.07268 -2.80326,2.29352 -5.03015,1.51796 -1.45274,-0.50593 -2.47485,-1.4748 -2.31039,-2.19081 0.16223,-0.70626 2.96053,-8.63923 6.21981,-17.62785 3.25927,-8.98861 8.10599,-22.35033 10.76963,-29.69251 3.10346,-8.55448 4.64631,-14.1305 4.29652,-15.52418 -0.49216,-1.9609 -2.01265,-2.92159 -7.31218,-4.61874 -1.45307,-0.46535 -1.47936,-0.80693 -0.27967,-3.58921 0.72931,-1.69139 1.66241,-3.0239 2.07327,-2.96094 z m 67.27683,13.3901 c 1.80317,0.0848 3.5568,0.86285 4.8437,2.49887 1.06455,1.35337 1.93546,3.05504 1.93546,3.78174 0,2.50981 -2.66875,6.4718 -5.1092,7.58374 -2.99521,1.36471 -4.15737,1.36491 -6.56433,0 -2.6286,-1.49057 -3.23644,-2.64574 -3.25279,-6.16509 -0.022,-4.72392 4.18016,-7.88585 8.14716,-7.69926 z m 89.96928,11.42223 c -2.92987,-0.13838 -6.14585,1.16074 -9.15845,3.92157 l -3.33183,3.05215 4.03508,9.49893 c 2.21975,5.22388 4.48952,9.49681 5.04231,9.49488 0.55281,-0.002 2.35388,-0.82681 4.00264,-1.8321 6.8798,-4.19483 10.30419,-13.90661 6.85213,-19.42954 -1.86977,-2.99142 -4.512,-4.56751 -7.44188,-4.70589 z m -43.39068,5.45372 c 3.74295,-0.061 6.89792,0.15295 7.22299,0.67894 0.24071,0.38946 0.56624,2.80073 0.72352,5.35847 0.26656,4.33454 0.1126,4.71256 -2.26579,5.54898 -2.15043,0.75627 -2.77838,0.57333 -3.99049,-1.15721 -1.07326,-1.5324 -2.38324,-2.05301 -5.16594,-2.05301 -6.96521,0 -12.29937,4.81169 -8.99632,8.11472 1.16104,1.16104 2.24601,1.19626 7.15206,0.23105 7.23444,-1.42328 12.17977,-0.18916 14.97698,3.73917 5.69157,7.99307 2.24673,18.41806 -7.8087,23.62472 -4.07991,2.11255 -17.37878,3.19786 -22.03379,1.79764 -1.88167,-0.56601 -2.49118,-1.56287 -3.14537,-5.14365 -0.44618,-2.44219 -0.62531,-4.6237 -0.39925,-4.84979 0.22607,-0.22606 1.74657,-0.67884 3.37844,-1.00521 2.33809,-0.46763 2.96702,-0.27826 2.96702,0.89172 0,1.66387 2.73217,3.42079 5.30781,3.41289 3.84587,-0.0118 8.80653,-2.09322 10.25285,-4.30056 1.3943,-2.12798 1.40068,-2.4784 0.0729,-3.80606 -1.19688,-1.1969 -2.45159,-1.31576 -6.91292,-0.65663 -9.97866,1.47425 -13.2773,0.31521 -16.18283,-5.6868 -2.32999,-4.81307 -2.34604,-8.23705 -0.0608,-13.27053 2.22192,-4.894 7.99516,-9.17562 14.15213,-10.49605 2.68103,-0.57497 7.0125,-0.91178 10.75546,-0.9728 z m -65.74265,7.44188 h 11.57017 c 10.93895,0 11.5722,0.10128 11.5722,1.8625 0,1.02466 -0.66787,7.97767 -1.48352,15.44919 -1.36152,12.47198 -1.35904,13.77275 0.0223,15.88086 1.04039,1.58785 2.36186,2.2962 4.28435,2.2962 2.55469,0 2.78057,0.26342 2.78057,3.26697 v 3.269 h -16.34295 -16.34294 v -3.269 -3.26697 h 4.62686 c 5.32646,0 4.89172,0.98784 6.54407,-14.91009 1.06777,-10.27349 0.0968,-13.10638 -4.49918,-13.10638 -3.39209,0 -3.57568,-0.246 -3.117,-4.17491 z"
     id="path1696"
     inkscape:connector-curvature="0"
     sodipodi:nodetypes="ccsccscsccsccsccsssccscccscccscscccscsccscsssccccccsccccscssccsscccsscsscccccscccssscscccccccccssscssccsscscsscccsccccssscccccscccccccsccccccsccsscccccscscccccsccsscsccssssscccsccccccsscssssssccccscscsssssscscscccsccsccscsssscsscccscscccccsccccsccccccsssscscscscccccccccssscccsccsccccscccccccccsscscccccccccsccccccccccsccccccsccccssccccccccccscccsccsccscssccscscsccccccssscsscccccssscc" />
  <path
     inkscape:connector-curvature="0"
     id="path1698"
     d="m 206.3978,272.04043 c -16.52202,-1.61932 -24.17483,-2.73034 -38.20859,-5.54705 -17.90242,-3.59319 -32.05477,-8.0031 -49.10943,-15.30261 C 42.153486,218.26575 1.1623656,153.03041 20.633796,94.518775 l 3.89523,-10.40003 -2.75698,-2.5754 c -1.51633,-1.41646 -3.62511,-4.27709 -4.68617,-6.35693 -1.32297,-2.59323 -3.27012,-4.49289 -6.19641,-6.04529 -4.0547304,-2.15102 -5.4178004,-3.66779 -3.2961404,-3.66779 2.12118,0 8.2685204,3.81319 10.0170904,6.21358 l 1.85325,2.54411 1.44354,-6.32851 c 0.79395,-3.48068 1.68685,-6.57181 1.98423,-6.86919 1.57214,-1.57216 1.52922,1.49045 -0.12046,8.59427 -1.80781,7.78471 -1.80966,7.98914 -0.0892,9.83585 0.96634,1.03724 2.91791,2.34389 2.91791,2.34389 0.89108,-1.6083 1.34074,-2.33308 2.38317,-4.37051 9.55435,-18.67392 27.70521,-35.99297 50.38486,-49.46671 14.37966,-8.54279 38.724234,-18.02578 54.822424,-21.35508 39.65394,-8.2009 66.52081,-8.69195 106.36048,-1.94399 74.61135,12.63752 136.11402,56.69862 154.42208,110.629455 14.13865,41.64877 1.33714,83.53093 -34.88512,114.13232 -7.54293,6.37242 -19.73283,14.54256 -27.63505,18.52206 -5.78258,2.91207 -6.41859,3.49908 -5.92441,5.46802 0.47896,1.90839 -0.13257,2.59833 -4.53645,5.11798 -6.12961,3.50701 -6.60925,3.54507 -7.93756,0.62975 l -1.03996,-2.28248 -5.88058,2.33196 c -12.42745,4.92814 -38.59748,10.42416 -59.4443,12.484 -8.94538,0.88387 -32.68314,1.08202 -40.29148,0.33632 z m 45.87418,-4.49378 c 15.96502,-1.86753 32.64195,-5.48926 46.11325,-10.01441 6.16362,-2.07042 11.37698,-3.92163 11.58522,-4.11376 0.20826,-0.19215 -1.62195,-5.08185 -4.06712,-10.86601 -2.44517,-5.78417 -7.80194,-18.44199 -11.90393,-28.12851 -4.10199,-9.68651 -7.10462,-17.91814 -6.67251,-18.29249 0.43209,-0.37434 3.21283,-2.01932 6.17941,-3.65548 l 5.39381,-2.97485 1.83301,4.27625 1.83303,4.27626 4.20299,-2.89172 c 17.44759,-12.00426 35.79711,-3.57847 33.82478,15.53176 -1.00319,9.71989 -8.77108,21.64858 -16.9742,26.06625 -1.80854,0.97396 -3.28825,2.08702 -3.28825,2.47346 0,1.08227 2.95278,8.21147 3.40103,8.21147 1.26355,0 10.56009,-5.36392 19.39859,-11.19261 24.1339,-15.91549 45.62691,-43.44 49.41686,-63.28452 l 0.57965,-3.03512 -5.34648,-0.003 c -12.12629,-0.006 -31.93025,-5.05904 -44.29308,-11.29977 -14.31725,-7.22733 -27.8527,-18.10106 -41.35341,-33.22138 l -8.41882,-9.42865 -2.57781,-11.07925 c -1.41779,-6.093595 -2.57194,-11.499515 -2.56474,-12.013145 0.007,-0.51364 4.73928,-3.83787 10.5158,-7.38718 l 10.50276,-6.45328 8.17147,1.35328 c 4.49431,0.74431 8.17147,1.08602 8.17147,0.75933 0,-0.32668 -3.55582,-2.23415 -7.90183,-4.23883 l -7.90184,-3.64486 9.28836,-13.01083 c 5.10859,-7.15595 9.10407,-13.19512 8.87882,-13.42036 -0.22523,-0.22524 -5.36682,4.01432 -11.42575,9.42123 l -11.01623,9.83076 -0.46694,-13.68723 c -0.25682,-7.52796 -0.7578,-12.84673 -1.11331,-11.81945 -0.35549,1.02727 -1.7864,7.75122 -3.17979,14.94212 -1.39338,7.19089 -2.65963,13.23063 -2.81387,13.42164 -0.15424,0.19101 -3.31985,-2.42671 -7.03468,-5.81717 -3.71483,-3.39046 -6.92858,-5.99013 -7.14166,-5.77705 -0.21307,0.21307 2.38727,4.99258 5.77853,10.62114 3.39127,5.62855 6.16595,10.59674 6.16595,11.04042 0,0.44367 -4.13028,2.20482 -9.17841,3.91366 -5.04813,1.70883 -9.66647,3.40861 -10.26299,3.77728 -0.81428,0.50324 -0.73494,2.49765 0.31833,8.00262 0.7716,4.03279 1.27731,7.457925 1.12381,7.611435 -0.15351,0.1535 -2.36512,-0.7528 -4.91469,-2.01402 -9.53674,-4.717615 -28.3111,-6.727035 -39.80237,-4.260075 -7.01151,1.50525 -16.05382,5.048465 -33.00664,12.933575 -17.51874,8.14834 -24.04654,10.73835 -34.94073,13.86333 -7.81451,2.24157 -9.72168,2.4354 -20.00155,2.03278 -17.53453,-0.68675 -17.22729,-0.004 -6.21025,-13.79652 5.12281,-6.41331 9.31613,-12.080815 9.31847,-12.594455 0.002,-0.51363 -2.20219,-2.92177 -4.89897,-5.35143 l -4.90321,-4.41754 3.26859,-2.96912 c 1.79772,-1.63302 4.88189,-4.40557 6.8537,-6.16124 1.97181,-1.75566 3.40421,-3.37299 3.18314,-3.59407 -0.22108,-0.22108 -3.5929,1.07233 -7.49291,2.87424 -3.90001,1.80192 -7.50075,3.27622 -8.00165,3.27622 -0.50088,0 -1.41732,-3.04679 -2.03651,-6.77065 -1.88542,-11.33897 -3.49496,-19.47195 -3.94203,-19.91902 -0.23345,-0.23345 -0.72062,5.55925 -1.08261,12.87266 -0.362,7.3134 -0.82543,13.46437 -1.02988,13.66881 -0.20444,0.20444 -2.59775,-1.22657 -5.31848,-3.18001 -2.72072,-1.95346 -6.94295,-4.98127 -9.38272,-6.72848 -2.43977,-1.74721 -4.43594,-2.80806 -4.43594,-2.35744 0,0.4506 3.54401,4.79394 7.87558,9.65183 6.15169,6.8992 7.60008,9.03695 6.61701,9.76642 -0.6922,0.51363 -3.85819,2.53762 -7.03552,4.49776 -3.17733,1.96014 -5.56497,3.77586 -5.30587,4.03497 0.2591,0.25909 4.70424,-0.66648 9.8781,-2.05682 l 9.40702,-2.5279 3.3395,2.54715 c 1.83671,1.40094 3.21219,2.8944 3.05661,3.31881 -0.1556,0.42441 -4.86908,4.996895 -10.47441,10.161095 l -10.19151,9.38944 -5.34315,-2.84786 -5.34314,-2.84788 0.48176,-7.72195 c 0.64847,-10.394335 -1.1252,-15.748275 -7.048534,-21.276345 -10.74826,-10.03103 -18.59319,-10.88374 -42.67782,-4.6389 -23.9844,6.21885 -26.68775,7.05399 -26.41099,8.15914 0.40866,1.63185 12.2736,11.9053 23.80792,20.614485 36.06773,27.23353 69.305494,40.63443 97.392154,39.26689 22.4836,-1.09473 42.21854,-8.96542 68.8768,-27.46948 11.08348,-7.69328 16.7514,-9.72199 28.77989,-10.30119 17.05854,-0.82141 22.64616,1.79019 49.42981,23.10305 25.17011,20.0289 32.84282,25.4964 42.02471,29.94646 9.76216,4.73128 23.51289,8.32515 35.33522,9.23514 l 9.49113,0.73055 -8.87188,0.13166 c -24.70666,0.36664 -43.96942,-7.10071 -71.81957,-27.8414 -11.25409,-8.38121 -21.39265,-14.98298 -23.00982,-14.98298 -1.23551,0 -16.06299,14.93003 -14.87989,14.98279 0.50158,0.0223 2.80309,0.41422 5.11445,0.87078 3.35,0.66173 6.03646,0.36932 13.24359,-1.44148 14.19197,-3.5658 14.85523,-2.75571 1.932,2.3597 -4.2375,1.67732 -7.70453,3.39947 -7.70453,3.827 0,0.42751 5.67333,5.30574 12.60741,10.84049 12.02215,9.59603 16.11537,13.79965 9.57229,9.83047 -8.40641,-5.09954 -23.40921,-13.26895 -23.7472,-12.93097 -0.5295,0.52951 -4.0358,18.12987 -4.0358,20.25827 0,0.94731 -0.42325,1.98395 -0.94055,2.30366 -0.62521,0.3864 -0.73102,-3.55881 -0.31558,-11.76707 0.53128,-10.49732 0.42729,-12.23106 -0.69374,-11.5658 -0.7253,0.43042 -5.03129,3.26357 -9.56885,6.29589 -4.53757,3.03231 -8.50721,5.25624 -8.82138,4.94205 -0.31418,-0.31418 2.54737,-3.7108 6.359,-7.54803 3.81163,-3.83724 6.73063,-7.00897 6.48666,-7.04826 -0.24395,-0.0393 -1.07393,-0.21005 -1.84438,-0.37944 -0.77046,-0.16938 -4.08302,-0.75322 -7.36127,-1.29739 -3.27823,-0.54417 -6.14797,-1.17696 -6.37719,-1.40617 -0.22921,-0.22921 3.03752,-5.5727 7.2594,-11.87442 4.22187,-6.3017 7.86622,-12.18455 8.09855,-13.07297 0.36383,-1.39126 -0.46402,-1.66495 -5.96836,-1.97313 -17.39661,-0.974 -27.96894,3.16274 -49.34938,19.30937 -12.56448,9.48877 -25.06524,16.7862 -35.95448,20.98871 -7.30958,2.82102 -22.05069,6.58678 -25.784,6.58678 -3.30497,0 -3.91148,0.74908 -2.08521,2.57535 0.81894,0.81895 -1.55922,4.34507 -9.80576,14.53913 -5.98781,7.40189 -10.88692,13.73657 -10.88692,14.07708 0,0.34049 1.87885,3.4198 4.17524,6.8429 2.29636,3.42308 3.98987,6.40914 3.76335,6.63567 -0.22653,0.22653 -3.16852,-1.38416 -6.53776,-3.5793 -3.36924,-2.19515 -6.25056,-3.8286 -6.40293,-3.62988 -0.15237,0.19871 -1.08893,2.04228 -2.08125,4.09682 -5.37717,11.13322 -11.76684,23.01886 -12.16225,22.62345 -0.24894,-0.24894 1.31282,-6.3917 3.47056,-13.65061 2.15775,-7.2589 3.70887,-13.41231 3.44692,-13.67425 -0.26193,-0.26194 -3.16353,0.1572 -6.448,0.93142 -6.9132,1.62959 -7.373784,1.67553 -7.369144,0.73487 0.002,-0.38523 2.762704,-2.12721 6.135114,-3.87107 l 6.13164,-3.17065 -4.44449,-4.51236 c -2.44449,-2.48179 -4.20144,-4.75543 -3.90434,-5.05252 0.29708,-0.29709 4.00752,0.797 8.24541,2.4313 7.39124,2.85037 7.74734,2.90004 8.73799,1.21905 0.56799,-0.96382 2.99614,-5.37024 5.39586,-9.79205 l 4.36314,-8.03964 -8.56124,-6.50064 c -4.70867,-3.57536 -11.85818,-8.11713 -15.88779,-10.09283 -4.02961,-1.9757 -10.543454,-5.74087 -14.475194,-8.36704 l -7.14862,-4.77487 -4.20247,2.34613 c -3.55859,1.98668 -5.41869,2.34856 -12.14047,2.36193 -6.79564,0.0135 -8.77587,-0.37122 -13.76012,-2.67336 -6.44265,-2.97575 -13.30092,-9.55935 -15.53958,-14.91722 -1.66663,-3.98879 -4.49006,-17.32479 -7.15904,-33.81456 -2.71408,-16.768325 -3.73188,-17.370445 -7.73306,-4.574915 -6.48843,20.749625 -5.14554,43.428015 3.88402,65.592085 15.07,36.99108 56.32138,71.97633 105.546984,89.51428 20.50487,7.30542 40.53081,12.15207 58.96718,14.27116 4.87954,0.56085 10.13263,1.1667 11.67353,1.34634 7.987,0.93111 37.72339,0.45549 48.20889,-0.77106 z m -74.82454,-11.76944 c -9.50225,-2.51588 -17.95496,-4.57939 -18.78378,-4.58556 -0.82882,-0.006 -2.59815,1.07996 -3.93184,2.41366 -2.07269,2.07268 -2.80335,2.29312 -5.03025,1.51756 -1.45273,-0.50594 -2.47482,-1.47542 -2.31035,-2.19144 0.16223,-0.70625 2.96163,-8.63841 6.22091,-17.62703 3.25928,-8.98862 8.10532,-22.35019 10.76896,-29.69238 3.10345,-8.55447 4.64693,-14.13064 4.29714,-15.52431 -0.49215,-1.96091 -2.01253,-2.9212 -7.31206,-4.61835 -1.45307,-0.46535 -1.47977,-0.80731 -0.28008,-3.5896 0.72931,-1.69138 1.66218,-3.02373 2.07303,-2.96077 0.41087,0.063 8.20641,1.94192 17.32344,4.17544 10.14479,2.48532 16.57641,4.5008 16.57641,5.19455 0,0.62347 -0.39152,2.16337 -0.87004,3.42198 l -0.87005,2.2884 -5.20172,-1.44783 c -2.86095,-0.7963 -5.34908,-1.27341 -5.52917,-1.06025 -0.64422,0.76256 -18.46244,50.54511 -18.17435,50.77754 0.87171,0.70326 22.10455,5.55653 23.9292,5.46957 2.91024,-0.13867 5.54465,-2.68907 6.2919,-6.09126 0.55997,-2.54953 0.87461,-2.75059 3.48689,-2.22814 1.57926,0.31585 3.03899,0.74188 3.24384,0.94672 0.69968,0.69968 -6.77077,20.15142 -7.70732,20.06849 -0.51363,-0.0454 -8.70845,-2.14112 -18.21071,-4.657 z m 29.88424,-0.39434 v -3.26859 h 4.6271 c 5.32647,0 4.89289,0.98771 6.54524,-14.91023 1.06777,-10.27348 0.0949,-13.10624 -4.50104,-13.10624 -3.39209,0 -3.57502,-0.24501 -3.11634,-4.17393 l 0.38492,-3.29713 h 11.57136 c 10.93895,0 11.57135,0.10179 11.57135,1.86302 0,1.02467 -0.66734,7.97607 -1.48298,15.44759 -1.36153,12.47198 -1.35976,13.77263 0.0216,15.88075 1.04039,1.58784 2.36213,2.29617 4.28463,2.29617 2.55469,0 2.78012,0.26504 2.78012,3.26859 v 3.26859 H 223.6747 207.33175 v -3.26859 z m 49.49712,-0.31558 c -1.88167,-0.566 -2.49038,-1.56143 -3.14458,-5.14221 -0.44617,-2.44219 -0.62626,-4.6253 -0.4002,-4.85138 0.22607,-0.22606 1.7462,-0.67805 3.37807,-1.00442 2.33808,-0.46763 2.96701,-0.27869 2.96701,0.8913 0,1.66387 2.73279,3.42087 5.30843,3.41297 3.84587,-0.0118 8.80726,-2.09226 10.25356,-4.29961 1.39431,-2.12798 1.40109,-2.47942 0.0734,-3.80708 -1.19688,-1.19689 -2.45343,-1.31632 -6.91475,-0.6572 -9.97866,1.47426 -13.27685,0.31521 -16.18238,-5.68681 -2.32998,-4.81307 -2.34552,-8.236 -0.0603,-13.26948 2.22192,-4.894 7.99547,-9.17612 14.15244,-10.49656 5.36206,-1.14995 17.32778,-1.34498 17.97792,-0.29301 0.2407,0.38946 0.56633,2.80082 0.72362,5.35856 0.26655,4.33454 0.11263,4.71141 -2.26576,5.54784 -2.15043,0.75627 -2.77792,0.57446 -3.99004,-1.15609 -1.07326,-1.53239 -2.38449,-2.05348 -5.16719,-2.05348 -6.96521,0 -12.29955,4.81126 -8.9965,8.1143 1.16104,1.16103 2.24708,1.19608 7.15313,0.23088 7.23444,-1.42328 12.18055,-0.18818 14.97777,3.74014 5.69157,7.99307 2.24512,18.41786 -7.81031,23.62451 -4.07991,2.11256 -17.3783,3.19706 -22.03331,1.79683 z m -31.28641,-48.89531 c -2.6286,-1.49057 -3.23794,-2.64475 -3.25429,-6.1641 -0.032,-6.87116 8.8742,-10.43671 12.99228,-5.20143 1.06455,1.35336 1.93554,3.05522 1.93554,3.78191 0,2.50981 -2.6698,6.47192 -5.11025,7.58386 -2.99521,1.36472 -4.15631,1.36467 -6.56328,-2.4e-4 z M 73.316246,98.616655 c -2.40132,-3.66487 0.18944,-8.06405 4.74908,-8.06405 0.98358,0 2.94158,0.39278 3.97934,1.55472 0.98799,1.10622 1.08063,2.95724 1.08063,3.98186 0,4.687765 -7.18118,6.538115 -9.80905,2.52747 z M 320.9945,227.8663 c 6.8798,-4.19483 10.3056,-13.90713 6.85354,-19.43006 -3.73954,-5.98285 -10.57668,-6.30576 -16.60188,-0.78408 l -3.33139,3.053 4.0359,9.49796 c 2.21974,5.22389 4.4882,9.49642 5.04099,9.49449 0.55281,-0.002 2.35408,-0.82601 4.00284,-1.83131 z M 57.421976,129.61557 c 3.09113,-1.40841 3.94321,-4.7743 1.97074,-7.7847 -2.69926,-4.11959 -9.90837,-2.13367 -9.87289,2.71972 0.0176,2.40785 0.83154,3.66917 3.25429,5.04303 2.0044,0.76408 2.83954,0.52306 4.64786,0.022 z M 109.04055,42.823015 c 2.35874,-0.8824 2.84223,-2.70007 0.7182,-2.70007 -1.68939,0 -2.58358,-3.20908 -2.18401,-7.83797 l 0.29845,-3.45747 4.20248,5.628 c 2.31136,3.0954 4.70203,5.63688 5.3126,5.64772 0.62549,0.0111 1.36218,-1.91684 1.68747,-4.41622 0.31755,-2.43977 0.89675,-5.9068 1.28713,-7.70453 l 0.70977,-3.26859 2.15014,4.15026 c 1.76021,3.39762 1.94885,4.47258 1.04009,5.9277 -1.62577,2.60329 -0.81621,2.78216 4.18598,0.92488 4.44929,-1.65199 7.03305,-4.42247 3.57086,-3.82893 -2.40605,0.41248 -9.89543,-13.79195 -7.92322,-15.02728 2.54155,-1.59196 0.68018,-2.78351 -2.34663,-1.50219 -2.7059,1.14548 -2.98505,1.68834 -3.60214,7.00513 -1.30207,11.21877 -1.29607,11.21485 -6.4386,4.21107 -3.36757,-4.5864 -4.92423,-6.01275 -6.05252,-5.54586 -0.83541,0.34569 -2.25437,0.83999 -3.15323,1.09845 -2.1836,0.62785 -2.07029,1.78797 0.23347,2.39042 1.69391,0.44297 1.86777,1.27384 1.86777,8.9257 0,4.64049 -0.42025,8.69697 -0.9339,9.01442 -0.51363,0.31745 -0.93388,1.00094 -0.93388,1.51887 0,0.90745 1.55533,0.62284 6.30372,-1.15351 z m 148.75789,-10.14819 c -0.87492,-0.54073 -0.86754,-1.55232 0.0332,-4.55884 1.0331,-3.44823 0.96826,-4.07318 -0.60268,-5.80907 -1.21092,-1.33805 -2.56841,-1.82652 -4.34952,-1.56511 -2.99998,0.44029 -3.03075,0.32202 -1.23835,-4.75816 1.47959,-4.19363 1.42047,-4.29747 -2.98515,-5.24237 -3.08208,-0.66105 -3.87843,0.14833 -1.99704,2.02972 0.76152,0.76152 0.36787,3.05051 -1.47752,8.59172 -1.98114,5.94881 -2.89613,7.55364 -4.30667,7.55364 -3.49086,0 -1.72389,1.6976 2.92875,2.81374 4.62777,1.11019 7.17758,0.63532 4.72561,-0.88009 -0.84882,-0.52459 -1.03789,-1.6873 -0.59918,-3.68475 0.49719,-2.2637 1.13567,-2.91831 2.84637,-2.91831 3.07221,0 3.44368,1.08258 1.88615,5.49706 l -1.35065,3.82818 2.52436,0.55543 c 1.38839,0.30548 2.94459,0.66574 3.45822,0.80058 1.39419,0.36602 1.80083,-1.45192 0.50405,-2.25337 z m -114.43771,-1.00265 c 1.02727,-0.44569 2.88546,-0.9329 4.12932,-1.08267 2.87236,-0.34587 3.55253,-2.21195 1.04522,-2.86763 -1.49807,-0.39176 -1.90901,-1.26657 -1.92025,-4.08791 -0.0213,-5.33153 -0.78892,-6.06757 -5.08984,-4.88003 -7.07588,1.95374 -11.1666,8.83586 -7.2698,12.23053 2.91562,2.53992 4.55144,2.66347 9.10535,0.68771 z m -5.972,-4.03828 c -1.41772,-1.70824 -0.49527,-3.84013 2.19125,-5.06419 2.01154,-0.91651 2.22297,-0.7583 2.63907,1.97475 0.24878,1.63409 0.26745,3.28627 0.0415,3.67149 -0.67805,1.15593 -3.73224,0.79104 -4.8718,-0.58205 z m 26.90765,0.47399 c 3.22268,-0.60487 5.21162,-2.92706 2.50703,-2.92706 -1.81623,0 -2.36017,-2.2908 -2.66096,-11.20659 l -0.2363,-7.00411 -3.10231,0.14501 c -3.8058,0.17788 -4.89044,1.09523 -2.72668,2.30614 0.93237,0.52178 1.61623,1.98646 1.60242,3.43201 -0.0192,2.00799 -0.75958,2.86054 -3.634,4.18447 -8.35689,3.84913 -6.49653,13.91535 2.25727,12.21381 1.54091,-0.29952 4.238,-0.81417 5.99353,-1.14368 z m -8.94798,-4.38932 c -0.8225,-2.14339 0.80904,-4.53854 3.34794,-4.91487 1.83136,-0.27145 2.03607,0.0522 1.77239,2.80165 -0.23042,2.40262 -0.77623,3.17644 -2.40352,3.40751 -1.32082,0.18757 -2.33326,-0.29476 -2.71681,-1.29429 z m 82.18689,4.77866 c 0.31414,-0.81863 -0.19966,-1.58118 -1.30091,-1.9307 -2.06369,-0.65499 -2.18371,-1.24166 -0.92903,-4.54172 0.78355,-2.06088 1.29072,-2.27888 4.20248,-1.80637 4.15992,0.67506 4.59464,-1.36483 0.46678,-2.1904 -2.52312,-0.50462 -2.81336,-0.89777 -2.56818,-3.47871 0.22026,-2.31839 -0.10623,-2.96463 -1.60635,-3.17959 -1.36391,-0.19544 -2.1805,0.51893 -2.96306,2.5922 -0.59416,1.57409 -1.58548,2.74612 -2.20296,2.6045 -0.61747,-0.14162 -1.31529,0.26782 -1.5507,0.90986 -0.23542,0.64205 0.26568,1.16736 1.11354,1.16736 1.03055,0 1.38064,0.54176 1.05607,1.63429 -1.557,5.24091 -1.57489,6.57046 -0.10812,8.03722 1.89749,1.89749 5.6907,2.00556 6.39044,0.18206 z m -12.56905,-2.41753 c -1.27981,-0.72261 -1.36265,-1.4966 -0.54339,-5.07683 0.53165,-2.32332 0.79093,-4.38587 0.57616,-4.58345 -0.21479,-0.19758 -1.7563,-0.65183 -3.42562,-1.00947 -2.36154,-0.50592 -3.03512,-0.34015 -3.03512,0.74697 0,0.76847 0.45671,1.54945 1.01494,1.73552 0.64903,0.21634 0.7799,1.59109 0.36301,3.81336 -0.49071,2.61563 -1.10738,3.47503 -2.49358,3.47503 -3.56834,0 -1.04551,2.33815 3.05591,2.83222 4.50711,0.54294 6.98377,-0.52404 4.48769,-1.93335 z m -43.99977,-0.71631 c 0.24816,-0.74448 -0.89833,-1.11644 -3.4412,-1.11644 -5.06237,0 -4.82853,-1.22458 0.55298,-2.89582 5.13118,-1.5935 5.67621,-2.5338 3.08243,-5.3179 -2.436,-2.61474 -6.44557,-2.64997 -9.70606,-0.0853 -2.11651,1.66484 -2.46503,2.57824 -2.22717,5.83677 0.25437,3.48464 0.59681,3.96481 3.49588,4.90182 3.48898,1.12769 7.64877,0.45997 8.24314,-1.32316 z m -7.25456,-5.7823 c 0,-1.13216 2.61909,-2.36517 3.38884,-1.59541 0.27866,0.27865 -0.36982,0.97574 -1.44108,1.54906 -1.35058,0.7228 -1.94776,0.73701 -1.94776,0.0464 z m 27.30748,4.21048 c 1.16039,-1.79136 2.36421,-3.26223 2.67514,-3.26859 0.31092,-0.006 0.95619,1.35136 1.43394,3.01715 1.40832,4.91054 3.22887,4.13138 8.03998,-3.44094 4.83628,-7.61197 4.99235,-7.99351 3.26859,-7.99104 -0.64205,9.1e-4 -2.36163,1.89202 -3.82128,4.20247 -1.45967,2.31044 -2.99385,4.2008 -3.40929,4.2008 -0.41545,0 -1.12042,-1.54361 -1.5666,-3.43025 -1.11647,-4.72093 -2.60409,-4.8278 -5.1501,-0.36997 -1.18922,2.08221 -2.43063,3.78908 -2.75869,3.79303 -0.32806,0.004 -0.86375,-1.4175 -1.19042,-3.15878 -0.48954,-2.60949 -1.07605,-3.23675 -3.33669,-3.56854 -3.19203,-0.46849 -4.73527,1.83541 -2.38203,3.55614 0.80736,0.59034 2.13048,3.01785 2.94027,5.39445 0.80979,2.37661 1.84922,4.3211 2.30985,4.3211 0.46062,0 1.78693,-1.46567 2.94733,-3.25703 z m 24.89256,-11.60514 c 1.58721,-1.00501 0.68929,-3.81548 -1.21902,-3.81548 -1.75583,0 -2.73351,1.56925 -2.06425,3.31331 0.59508,1.55075 1.42643,1.67791 3.28327,0.50217 z"
     style="fill:url(#radialGradient1704);fill-opacity:1;stroke-width:1.03764725"
     sodipodi:nodetypes="cssccsscsccscscccsssscscsccsscccscsscsccccccssscccsccscsccsccscccsccssscsccscccscsccscccccscscccssccscscccscccccssssssssscsssccccssccsccscccccscscsscscsscccccsccscsccccccccsccccscsssscccccccscsccccccscccccccsccccccsssscssscsscccccccccscccscccccccscscscccccscccssscscccccsccsccccsscsccccccsscccsccsscscccccccscsccssccccccccccssccccccccsscccccccccscccccsccccccscccccccsccssccssscccccsccssccccccsscccsccscssss" />
  <ellipse
     style="color:#000000;clip-rule:nonzero;display:inline;overflow:visible;visibility:visible;opacity:1;isolation:auto;mix-blend-mode:normal;color-interpolation:sRGB;color-interpolation-filters:linearRGB;solid-color:#000000;solid-opacity:1;fill:url(#linearGradient1706);fill-opacity:1;fill-rule:evenodd;stroke:none;stroke-width:1.34001517;stroke-linecap:square;stroke-linejoin:miter;stroke-miterlimit:4;stroke-dasharray:none;stroke-dashoffset:0;stroke-opacity:1;paint-order:fill markers stroke;color-rendering:auto;image-rendering:auto;shape-rendering:auto;text-rendering:auto;enable-background:accumulate"
     id="ellipse1700"
     cx="222.75635"
     cy="59.56815"
     rx="151.92595"
     ry="78.20108"
     transform="matrix(0.99352347,0.11362705,-0.11849933,0.99295413,0,0)" />
</svg>
