<?xml version="1.0" encoding="UTF-8" standalone="no"?>
<svg
   xmlns:dc="http://purl.org/dc/elements/1.1/"
   xmlns:cc="http://creativecommons.org/ns#"
   xmlns:rdf="http://www.w3.org/1999/02/22-rdf-syntax-ns#"
   xmlns:svg="http://www.w3.org/2000/svg"
   xmlns="http://www.w3.org/2000/svg"
   xmlns:xlink="http://www.w3.org/1999/xlink"
   xmlns:sodipodi="http://sodipodi.sourceforge.net/DTD/sodipodi-0.dtd"
   xmlns:inkscape="http://www.inkscape.org/namespaces/inkscape"
   version="1.0"
   width="378.74362"
   height="262.61301"
   id="svg2"
   sodipodi:version="0.32"
   inkscape:version="0.92.2 5c3e80d, 2017-08-06"
   sodipodi:docname="made-with-lisp-flat.svg"
   inkscape:output_extension="org.inkscape.output.svg.inkscape"
   inkscape:export-filename="inkscape.png"
   inkscape:export-xdpi="90"
   inkscape:export-ydpi="90">
  <title
     id="title843">made-with-lisp-flat</title>
  <sodipodi:namedview
     bordercohor="#666666"
     inkscape:window-height="715"
     inkscape:window-width="1366"
     inkscape:pageshadow="2"
     inkscape:pageopacity="0.0"
     guidetolerance="10.0"
     gridtolerance="10.0"
     objecttolerance="10.0"
     borderopacity="1.0"
     bordercolor="#666666"
     pagecolor="#ffffff"
     id="base"
     inkscape:zoom="1"
     inkscape:cx="-236.39818"
     inkscape:cy="77.051769"
     inkscape:window-x="0"
     inkscape:window-y="28"
     inkscape:current-layer="svg2"
     showgrid="false"
     inkscape:window-maximized="1"
     fit-margin-top="0"
     fit-margin-left="0"
     fit-margin-right="0"
     fit-margin-bottom="0" />
  <defs
     id="defs4">
    <linearGradient
       id="WhiteTransparent"
       gradientUnits="userSpaceOnUse">
      <stop
         style="stop-color:white;stop-opacity:1"
         offset="0"
         id="stop7" />
      <stop
         style="stop-color:white;stop-opacity:0"
         offset="1"
         id="stop9" />
    </linearGradient>
    <linearGradient
       id="BlackTransparent"
       gradientUnits="userSpaceOnUse">
      <stop
         style="stop-color:black;stop-opacity:1"
         offset="0"
         id="stop12" />
      <stop
         style="stop-color:black;stop-opacity:0"
         offset="1"
         id="stop14" />
    </linearGradient>
    <linearGradient
       id="liquidShade"
       xlink:href="#BlackTransparent"
       x1="0"
       y1="128"
       x2="0"
       y2="64"
       gradientUnits="userSpaceOnUse" />
    <linearGradient
       id="liquidSpecular"
       xlink:href="#WhiteTransparent"
       x1="0"
       y1="128"
       x2="0"
       y2="76"
       gradientUnits="userSpaceOnUse" />
    <linearGradient
       id="sideSpecular"
       xlink:href="#WhiteTransparent"
       x1="80"
       y1="20"
       x2="60"
       y2="40"
       gradientUnits="userSpaceOnUse" />
    <linearGradient
       id="IcecapTip"
       xlink:href="#WhiteTransparent"
       x1="60"
       y1="20"
       x2="90"
       y2="50"
       gradientUnits="userSpaceOnUse" />
    <linearGradient
       id="shinySpecular"
       xlink:href="#WhiteTransparent"
       x1="33"
       y1="35"
       x2="58"
       y2="60"
       gradientUnits="userSpaceOnUse" />
    <clipPath
       clipPathUnits="userSpaceOnUse"
       id="clipoutline1">
      <path
         id="outline1"
         d="M 54.1,12.5 12.9,54.7 C -2.7,70.3 23,69 32.3,74.9 36.6,77.7 18.5,81.3 22.2,85 c 3.6,3.7 21.7,7.1 25.3,10.7 3.6,3.7 -7.3,7.6 -3.7,11.3 3.5,3.7 11.9,0.2 13.4,8.6 1.1,6.2 15.4,3.1 21.8,-2.2 4,-3.4 -6.9,-3.4 -3.3,-7.1 9,-9.1 17,-4.1 20.3,-12.5 1.8,-4.5 -13.6,-7.7 -9.5,-10.6 9.8,-6.9 45.8,-10.4 29.2,-27 L 73,12.5 c -5.3,-5 -14,-5 -18.9,0 z m -9.9,64.7 c 0.9,0 30.8,4 19.3,7.1 -4.4,1.2 -24.6,-7.1 -19.3,-7.1 z m 57.2,16.6 c 0,2.1 16.3,3.3 15.4,-0.5 -1.3,-6.4 -13.6,-5.9 -15.4,0.5 z m -69.5,11.1 c 3.7,3.2 9.3,-0.7 11.1,-5.2 -3.6,-4.7 -16.9,0.3 -11.1,5.2 z m 67.5,-6.7 c -4.6,4.2 0.8,8.6 5.3,5.7 1.2,-0.8 -0.1,-4.7 -5.3,-5.7 z"
         inkscape:connector-curvature="0" />
    </clipPath>
    <filter
       id="ShadowBlur"
       filterUnits="userSpaceOnUse"
       x="0"
       y="0">
      <feGaussianBlur
         in="SourceAlpha"
         stdDeviation="3"
         result="blur"
         id="feGaussianBlur24" />
    </filter>
    <linearGradient
       gradientUnits="userSpaceOnUse"
       id="linearGradient5785">
      <stop
         id="stop5787"
         offset="0"
         style="stop-color:#c0cdf9;stop-opacity:1" />
      <stop
         id="stop5789"
         offset="1"
         style="stop-color:#07092d;stop-opacity:0.28804347" />
    </linearGradient>
    <clipPath
       clipPathUnits="userSpaceOnUse"
       id="clipPath9086">
      <use
         id="use9088"
         xlink:href="#outline1"
         class="low-specularity"
         style="fill:#ffffff;fill-opacity:1"
         x="0"
         y="0"
         width="400"
         height="300"
         transform="translate(1.009546e-6)" />
    </clipPath>
    <linearGradient
       gradientUnits="userSpaceOnUse"
       y2="60"
       x2="58"
       y1="35"
       x1="33"
       xlink:href="#WhiteTransparent-4"
       id="shinySpecular-4"
       gradientTransform="matrix(1.0764629,0,0,1.0764629,-0.41501205,-0.40873952)" />
    <linearGradient
       gradientUnits="userSpaceOnUse"
       id="WhiteTransparent-4">
      <stop
         id="stop7606-4"
         offset="0"
         style="stop-color:white;stop-opacity:1" />
      <stop
         id="stop7608-7"
         offset="1"
         style="stop-color:white;stop-opacity:0" />
    </linearGradient>
    <linearGradient
       gradientUnits="userSpaceOnUse"
       y2="50"
       x2="90"
       y1="20"
       x1="60"
       xlink:href="#WhiteTransparent-4"
       id="IcecapTip-6"
       gradientTransform="scale(1.0666667)" />
  </defs>
  <style
     type="text/css"
     id="style26">
	.specularity {opacity:0.5;}
	.low-specularity {opacity:0.25;}
	.full-specularity {opacity:1;}
	.black {fill:#000000;}
	.white {fill:#ffffff;}
	.outline-big {stroke-width:16;stroke:none;opacity:0.1;fill:none;}
	.outline-small {stroke-width:8;stroke:none;opacity:0.2;fill:none;}
	.stroke-highlight {fill:none;stroke:none;opacity:0.2;}
       	.base-shadow 	{fill:black;opacity:75;}
	</style>
  <!-- Copyright License -->
  <metadata
     id="metadata49">
    <rdf:RDF>
      <cc:Work
         rdf:about="etiquette-icon">
        <dc:format>image/svg+xml</dc:format>
        <dc:type
           rdf:resource="http://purl.org/dc/dcmitype/StillImage" />
        <dc:creator>
          <cc:Agent>
            <dc:title />
          </cc:Agent>
        </dc:creator>
        <dc:rights>
          <cc:Agent>
            <dc:title />
          </cc:Agent>
        </dc:rights>
        <dc:publisher>
          <cc:Agent>
            <dc:title />
          </cc:Agent>
        </dc:publisher>
        <dc:identifier />
        <dc:date />
        <cc:license
           rdf:resource="http://creativecommons.org/licenses/by-sa/4.0/" />
        <dc:title>made-with-lisp-flat</dc:title>
      </cc:Work>
      <cc:License
         rdf:about="http://creativecommons.org/licenses/by-sa/4.0/">
        <cc:permits
           rdf:resource="http://creativecommons.org/ns#Reproduction" />
        <cc:permits
           rdf:resource="http://creativecommons.org/ns#Distribution" />
        <cc:requires
           rdf:resource="http://creativecommons.org/ns#Notice" />
        <cc:requires
           rdf:resource="http://creativecommons.org/ns#Attribution" />
        <cc:permits
           rdf:resource="http://creativecommons.org/ns#DerivativeWorks" />
        <cc:requires
           rdf:resource="http://creativecommons.org/ns#ShareAlike" />
      </cc:License>
    </rdf:RDF>
  </metadata>
  <g
     transform="translate(-5.4519986,-6.3327627)"
     id="g913">
    <path
       sodipodi:nodetypes="ccsccscsccsccsccsssccscccscccscscccscsccscsssccccccsccccscssccsscccsscsscccccscccssscscccccccccssscssccsscscsscccsccccssscccccscccccccsccccccsccsscccccscscccccsccsscsccssssscccsccccccsscssssssccccscscsssssscscscccsccsccscsssscsscccscscccccsccccsccccccsssscscscscccccccccssscccsccsccccscccccccccsscscccccccccsccccccccccsccccccsccccssccccccccccscccsccsccscssccscscsccccccssscsscccccssscc"
       inkscape:connector-curvature="0"
       id="rect831"
       d="m 157.05078,13.050781 -2.99023,0.138672 c -3.66772,0.171435 -4.71417,1.055686 -2.62891,2.222656 0.89854,0.502849 1.55823,1.913531 1.54492,3.306641 -0.0185,1.935125 -0.73182,2.757302 -3.50195,4.033203 -8.05369,3.70948 -6.26042,13.411286 2.17578,11.771485 1.485,-0.28865 4.08355,-0.785964 5.77539,-1.103516 3.10575,-0.582934 5.02248,-2.820313 2.41602,-2.820313 -1.75034,0 -2.27458,-2.206515 -2.56446,-10.798828 z m 58.58008,1.34961 c -1.69213,0 -2.63326,1.512583 -1.98828,3.193359 0.57349,1.494493 1.37459,1.615503 3.16406,0.482422 1.52962,-0.96855 0.66329,-3.675781 -1.17578,-3.675781 z m 21.28516,2.066406 c -1.38394,0.03561 -1.47509,0.81398 -0.11524,2.173828 0.73389,0.733885 0.35461,2.939124 -1.42383,8.279297 -1.90926,5.732972 -2.79102,7.279297 -4.15039,7.279297 -3.36421,0 -1.66156,1.637235 2.82227,2.71289 4.45987,1.069907 6.9177,0.612769 4.55469,-0.847656 -0.81802,-0.505564 -1.00092,-1.627751 -0.57813,-3.552734 0.47915,-2.181565 1.09356,-2.8125 2.74219,-2.8125 2.96075,0 3.31938,1.044506 1.81836,5.298828 l -1.30078,3.689453 2.43164,0.535156 c 1.33802,0.294399 2.83898,0.641533 3.33398,0.771485 1.3436,0.352733 1.73411,-1.399499 0.48438,-2.171875 -0.84318,-0.521112 -0.83487,-1.497084 0.0332,-4.394532 0.99562,-3.323113 0.93191,-3.924763 -0.58203,-5.597656 -1.16699,-1.289513 -2.47492,-1.759739 -4.19141,-1.507812 -2.89113,0.424327 -2.92073,0.309931 -1.19336,-4.585938 1.42591,-4.041485 1.36883,-4.142111 -2.87695,-5.052734 -0.74257,-0.159264 -1.34728,-0.228668 -1.80859,-0.216797 z m -11.04883,0.794922 c -1.04151,0.03291 -1.72682,0.779053 -2.38672,2.527343 -0.5726,1.516985 -1.52798,2.646247 -2.12305,2.509766 -0.59507,-0.136481 -1.26727,0.258203 -1.49414,0.876953 -0.22688,0.61875 0.25517,1.125 1.07227,1.125 0.99316,0 1.33038,0.521332 1.01757,1.574219 -1.5005,5.050763 -1.51706,6.332545 -0.10351,7.746094 1.82865,1.828642 5.48385,1.933115 6.1582,0.175781 0.30274,-0.788929 -0.19261,-1.524489 -1.2539,-1.861328 -1.98882,-0.631229 -2.10369,-1.196625 -0.89453,-4.376953 0.75512,-1.986111 1.24271,-2.195603 4.04882,-1.740235 4.009,0.650572 4.42926,-1.31571 0.45118,-2.111328 -2.43158,-0.486315 -2.71286,-0.866217 -2.47657,-3.353515 0.21226,-2.234273 -0.10118,-2.857291 -1.54687,-3.064454 -0.16431,-0.02354 -0.31997,-0.03205 -0.46875,-0.02734 z m -18.19141,0.740234 c -0.61875,8.86e-4 -2.27689,1.822214 -3.68359,4.048828 -1.40671,2.226615 -2.88479,4.048828 -3.28516,4.048828 -0.40038,0 -1.07977,-1.486498 -1.50976,-3.304687 -1.07597,-4.549648 -2.50925,-4.653513 -4.96289,-0.357422 -1.14608,2.006664 -2.344,3.652438 -2.66016,3.65625 -0.31616,0.0038 -0.83167,-1.36681 -1.14649,-3.044922 -0.47178,-2.514806 -1.03622,-3.119698 -3.21484,-3.439453 -3.07622,-0.451494 -4.56473,1.769433 -2.29687,3.427734 0.77807,0.568933 2.05357,2.908843 2.83398,5.199219 0.78041,2.290375 1.78264,4.164063 2.22656,4.164063 0.44391,0 1.72155,-1.4123 2.83985,-3.138672 1.11829,-1.726373 2.27847,-3.144264 2.57812,-3.150391 0.29964,-0.0061 0.9224,1.302851 1.38281,2.908203 1.35723,4.732384 3.1115,3.981186 7.74805,-3.316406 4.66082,-7.33579 4.81161,-7.703548 3.15039,-7.701172 z m -38.37695,1.869141 c -1.65225,-0.01451 -3.40352,0.594256 -4.97461,1.830078 -2.03972,1.60444 -2.37572,2.484704 -2.14649,5.625 0.24514,3.358216 0.57526,3.821585 3.36915,4.724609 3.36239,1.086771 7.37251,0.443049 7.94531,-1.27539 0.23916,-0.717467 -0.86579,-1.076172 -3.31641,-1.076172 -4.8787,0 -4.65501,-1.178461 0.53125,-2.789063 4.94502,-1.535682 5.47037,-2.441909 2.9707,-5.125 -1.17381,-1.259934 -2.72665,-1.899548 -4.3789,-1.914062 z m -50.94727,0.751953 c -0.5401,0.04202 -1.19848,0.203011 -1.92773,0.511719 -2.60773,1.103919 -2.87796,1.626106 -3.47266,6.75 -1.25483,10.811735 -1.24913,10.808263 -6.20508,4.058593 -3.24539,-4.419998 -4.74468,-5.795652 -5.83203,-5.345703 -0.8051,0.333156 -2.17281,0.80952 -3.03906,1.058594 -2.10438,0.605071 -1.99557,1.724097 0.22461,2.304688 1.63245,0.426892 1.80078,1.227324 1.80078,8.601562 0,4.472129 -0.40539,8.381573 -0.90039,8.6875 -0.495,0.305927 -0.90039,0.963748 -0.90039,1.462891 0,0.874526 1.50007,0.600582 6.07617,-1.111329 C 106.44894,46.751182 106.91416,45 104.86719,45 c -1.62809,0 -2.49054,-3.09178 -2.10547,-7.552734 l 0.28906,-3.332032 4.04883,5.423828 c 2.2275,2.983095 4.53267,5.430953 5.12109,5.441407 0.60279,0.01071 1.31151,-1.847155 1.625,-4.25586 0.30603,-2.35125 0.86403,-5.691328 1.24024,-7.423828 l 0.68554,-3.15039 2.07032,4 c 1.69635,3.274353 1.87968,4.310564 1.0039,5.71289 -1.56679,2.508834 -0.78749,2.680515 4.03321,0.890625 4.28787,-1.59205 6.77797,-4.261456 3.4414,-3.689453 -2.31876,0.397516 -9.53541,-13.291908 -7.63476,-14.482422 1.837,-1.150646 1.28632,-2.085048 -0.33399,-1.958984 z m 92.34766,0.296875 c -0.74581,0.01985 -1,0.329574 -1,0.984375 0,0.74058 0.44054,1.492555 0.97851,1.671875 0.62549,0.208497 0.75138,1.534143 0.34961,3.675781 -0.4729,2.520746 -1.06643,3.347656 -2.40234,3.347656 -3.43887,0 -1.0073,2.254323 2.94531,2.730469 4.34359,0.523242 6.72974,-0.505092 4.32422,-1.863281 -1.23337,-0.696385 -1.31298,-1.44225 -0.52344,-4.892578 0.51236,-2.239034 0.76167,-4.227563 0.55469,-4.417969 -0.20699,-0.190406 -1.69203,-0.628002 -3.30078,-0.972656 -0.85345,-0.18284 -1.4783,-0.275582 -1.92578,-0.263672 z m -41.75586,2.519531 c 0.34095,-0.02413 0.63681,0.0411 0.82226,0.226563 0.26856,0.268546 -0.35628,0.939666 -1.38867,1.492187 -1.30158,0.696579 -1.87695,0.710527 -1.87695,0.04492 0,-0.818308 1.42051,-1.691286 2.44336,-1.763672 z m -30.94922,0.496094 c -0.65255,0.01415 -1.47745,0.18459 -2.51367,0.470703 -6.81916,1.882861 -10.76127,8.515608 -7.00586,11.787109 2.80984,2.447772 4.3867,2.566191 8.77539,0.66211 0.99,-0.429523 2.78174,-0.898627 3.98047,-1.042969 2.76815,-0.333319 3.4222,-2.131785 1.00586,-2.763672 -1.44372,-0.377544 -1.83878,-1.22047 -1.84961,-3.939453 -0.0154,-3.853572 -0.43493,-5.216294 -2.39258,-5.173828 z m 14.625,0.451172 c 1.21665,-0.07933 1.33953,0.449047 1.11719,2.767578 -0.22206,2.315453 -0.74621,3.06051 -2.31445,3.283203 -1.2729,0.180753 -2.24951,-0.282835 -2.61915,-1.246094 -0.79266,-2.065635 0.77979,-4.373661 3.22657,-4.736328 0.22061,-0.0327 0.41603,-0.05703 0.58984,-0.06836 z m -17.46094,3.216797 c 0.56822,0.06052 0.74157,0.73663 0.99219,2.382812 0.23976,1.57481 0.25681,3.167813 0.0391,3.539063 -0.65345,1.113988 -3.59709,0.762716 -4.69531,-0.560547 -1.36628,-1.646272 -0.47772,-3.701213 2.11133,-4.88086 0.72696,-0.331225 1.2118,-0.516782 1.55273,-0.480468 z m 157.23438,17.732422 c -0.0224,0.01507 -0.045,0.05141 -0.0664,0.113281 -0.3426,0.99 -1.72161,7.47039 -3.06445,14.40039 -1.34282,6.93 -2.56229,12.751466 -2.71094,12.935547 -0.14864,0.184081 -3.19925,-2.339975 -6.7793,-5.607422 -3.58005,-3.267446 -6.67746,-5.771752 -6.88281,-5.566406 -0.20534,0.205347 2.30014,4.811987 5.56836,10.236328 3.26823,5.42434 5.94336,10.21109 5.94336,10.638672 0,0.42758 -3.98072,2.124648 -8.8457,3.771484 -4.86497,1.646838 -9.31575,3.285335 -9.89063,3.640626 -0.78474,0.484994 -0.70842,2.407651 0.30664,7.71289 0.74361,3.886472 1.23192,7.186042 1.08399,7.333982 -0.14794,0.14793 -2.27926,-0.72399 -4.73633,-1.93945 -9.19074,-4.546451 -27.28503,-6.482927 -38.35938,-4.105469 -6.75712,1.450639 -15.47084,4.863859 -31.80859,12.462889 -16.88314,7.85271 -23.17489,10.34973 -33.67383,13.36133 -7.53099,2.16024 -9.36849,2.34699 -19.27539,1.95898 -16.89836,-0.66183 -16.60169,-0.005 -5.98437,-13.29687 4.93695,-6.18063 8.97821,-11.64172 8.98047,-12.13672 0.002,-0.495 -2.12373,-2.8167 -4.72266,-5.158203 l -4.72461,-4.255859 3.15039,-2.861329 c 1.7325,-1.57377 4.7052,-4.245538 6.60547,-5.9375 1.90027,-1.691961 3.27946,-3.251782 3.06641,-3.464843 -0.21306,-0.21306 -3.4622,1.03299 -7.22071,2.769531 -3.75852,1.736541 -7.22821,3.158203 -7.71094,3.158203 -0.4827,0 -1.36616,-2.936641 -1.96289,-6.525391 -1.81701,-10.927577 -3.36797,-18.764462 -3.79882,-19.195312 -0.22498,-0.224978 -0.69411,5.35623 -1.04297,12.404297 -0.34886,7.048067 -0.79516,12.976805 -0.99219,13.173828 -0.19702,0.197025 -2.50493,-1.181876 -5.12695,-3.064453 -2.62201,-1.882577 -6.68977,-4.800557 -9.04102,-6.484375 -2.35125,-1.683818 -4.27539,-2.70575 -4.27539,-2.271485 0,0.434264 3.41543,4.619137 7.58984,9.300782 5.9285,6.648885 7.32436,8.70911 6.37696,9.412109 -0.66709,0.495 -3.7192,2.444965 -6.78125,4.333984 -3.06205,1.889019 -5.36298,3.638976 -5.11328,3.888676 0.2497,0.24969 4.53339,-0.642524 9.51953,-1.982426 l 9.0664,-2.435546 3.21875,2.455078 c 1.77007,1.350108 3.09526,2.788254 2.94532,3.197264 -0.14995,0.40901 -4.69179,4.81614 -10.09375,9.79297 l -9.82227,9.04883 -5.15039,-2.74414 -5.14844,-2.74414 0.46485,-7.44141 C 102.09761,97.601932 100.3881,92.440778 94.67969,87.113281 84.3214,77.446189 76.76159,76.624313 53.55078,82.642578 c -23.11421,5.993218 -25.71984,6.798224 -25.45312,7.863281 0.39382,1.572642 11.82751,11.473991 22.94336,19.867191 34.75914,26.24546 66.79173,39.15971 93.85937,37.84179 21.66786,-1.05501 40.68588,-8.63994 66.37695,-26.47265 10.68135,-7.41416 16.14425,-9.36955 27.73633,-9.92774 16.43964,-0.79161 21.82482,1.72603 47.63672,22.26563 24.25691,19.30223 31.65124,24.57077 40.5,28.85937 9.40797,4.55963 22.65932,8.02342 34.05273,8.90039 l 9.14649,0.70313 -8.54883,0.12695 c -23.81028,0.35334 -42.37513,-6.84189 -69.21484,-26.83008 -10.84577,-8.07713 -20.61533,-14.43945 -22.17383,-14.43945 -1.19068,0 -15.48197,14.3886 -14.3418,14.43945 0.48339,0.0215 2.70219,0.39789 4.92969,0.83789 3.22846,0.63772 5.81802,0.35644 12.76367,-1.38867 13.67707,-3.43642 14.31569,-2.65637 1.86133,2.27344 -4.08375,1.61647 -7.42578,3.27743 -7.42578,3.68945 0,0.412 5.46789,5.11332 12.15039,10.44727 11.58597,9.24787 15.53029,13.29784 9.22461,9.47266 -8.10142,-4.91453 -22.55905,-12.78666 -22.88477,-12.46094 -0.51029,0.51029 -3.88867,17.47225 -3.88867,19.52344 0,0.91293 -0.40771,1.91064 -0.90625,2.21874 -0.60252,0.37238 -0.70505,-3.42938 -0.30469,-11.33984 0.51201,-10.11646 0.41044,-11.78761 -0.66992,-11.14648 -0.69898,0.4148 -4.84776,3.14606 -9.2207,6.06836 -4.37294,2.9223 -8.19918,5.06646 -8.50195,4.76367 -0.30279,-0.30278 2.45556,-3.57738 6.1289,-7.27539 3.67334,-3.69802 6.48707,-6.7551 6.25195,-6.79297 -0.23509,-0.0379 -1.03484,-0.202 -1.77734,-0.36524 -0.7425,-0.16324 -3.93639,-0.72557 -7.0957,-1.25 -3.15929,-0.52443 -5.92362,-1.13457 -6.14453,-1.35546 -0.22089,-0.2209 2.92739,-5.37028 6.99609,-11.44336 4.0687,-6.07307 7.58079,-11.74342 7.80469,-12.59961 0.35063,-1.34078 -0.44733,-1.60339 -5.75195,-1.90039 -16.76545,-0.93866 -26.95387,3.04856 -47.5586,18.60937 -12.10862,9.1445 -24.15623,16.17652 -34.65039,20.22656 C 160.35601,167.37101 146.14864,171 142.55078,171 c -3.18506,0 -3.76977,0.72241 -2.00976,2.48242 0.78923,0.78923 -1.50187,4.18751 -9.44922,14.01172 -5.77056,7.13334 -10.49219,13.23826 -10.49219,13.56641 0,0.32814 1.81037,3.29485 4.02344,6.59375 2.21305,3.29889 3.84526,6.17622 3.62695,6.39453 -0.21831,0.21831 -3.05378,-1.33372 -6.30078,-3.44922 -3.247,-2.1155 -6.02308,-3.68956 -6.16992,-3.49805 -0.14684,0.1915 -1.04954,1.96922 -2.00586,3.94922 -5.18208,10.72929 -11.33964,22.18381 -11.72071,21.80274 -0.23991,-0.2399 1.26429,-6.16071 3.34375,-13.15625 2.07946,-6.99554 3.57471,-12.92531 3.32227,-13.17774 -0.25243,-0.25244 -3.04759,0.15036 -6.21289,0.89649 -6.66238,1.57047 -7.10604,1.61551 -7.10156,0.70898 0.002,-0.37125 2.66206,-2.04988 5.91211,-3.73047 l 5.9082,-3.05664 -4.2832,-4.34766 c -2.3558,-2.39175 -4.04804,-4.58283 -3.76172,-4.86914 0.28631,-0.28631 3.86118,0.76874 7.94531,2.34375 7.12308,2.74695 7.46717,2.79383 8.42188,1.17383 0.54738,-0.92885 2.88656,-5.17612 5.19921,-9.4375 l 4.20508,-7.74805 -8.25,-6.26367 c -4.53784,-3.44564 -11.42909,-7.82254 -15.3125,-9.72656 -3.88341,-1.90402 -10.16013,-5.53356 -13.94922,-8.06445 L 80.55078,149.79688 76.5,152.05859 c -3.42948,1.9146 -5.22131,2.26251 -11.69922,2.27539 -6.54908,0.013 -8.4583,-0.35756 -13.26172,-2.57617 -6.20889,-2.86779 -12.81912,-9.21152 -14.97656,-14.375 -1.60616,-3.84407 -4.32628,-16.69639 -6.89844,-32.58789 -2.6156,-16.159935 -3.59711,-16.739494 -7.45312,-4.4082 -6.25302,19.9968 -4.95781,41.85101 3.74414,63.21094 14.52324,35.64899 54.27717,69.36592 101.7168,86.26757 19.76091,7.04037 39.06064,11.70975 56.82812,13.75196 4.7025,0.5405 9.765,1.12571 11.25,1.29883 7.69722,0.89733 36.35391,0.4379 46.45898,-0.74414 15.38579,-1.79978 31.45887,-5.28943 44.44141,-9.6504 5.94,-1.99531 10.96337,-3.77968 11.16406,-3.96484 0.2007,-0.18518 -1.56347,-4.8964 -3.91992,-10.4707 -2.35646,-5.57431 -7.51754,-17.7743 -11.4707,-27.10938 -3.95317,-9.33507 -6.84807,-17.26813 -6.43164,-17.6289 0.41642,-0.36076 3.09613,-1.94469 5.95508,-3.52149 l 5.19921,-2.86719 1.76563,4.1211 1.76758,4.12109 4.05078,-2.78711 c 16.81457,-11.56873 34.49843,-3.44813 32.59765,14.96875 -0.96679,9.36724 -8.45387,20.86175 -16.35937,25.11914 -1.74292,0.93863 -3.16797,2.01235 -3.16797,2.38477 0,1.04301 2.84535,7.91406 3.27734,7.91406 1.21772,0 10.17553,-5.16989 18.69336,-10.78711 23.25829,-15.33805 43.97256,-41.86375 47.625,-60.98828 l 0.5586,-2.92578 -5.15235,-0.002 c -11.68633,-0.006 -30.77125,-4.87632 -42.68554,-10.89063 -13.7978,-6.96511 -26.84263,-17.44389 -39.85352,-32.01562 l -8.11328,-9.08594 -2.48437,-10.67774 c -1.36635,-5.87251 -2.47959,-11.083121 -2.47266,-11.578121 0.007,-0.495 4.56782,-3.698605 10.13476,-7.11914 l 10.1211,-6.21875 7.875,1.304687 c 4.33125,0.717306 7.875,1.045298 7.875,0.730469 0,-0.314828 -3.42691,-2.152042 -7.61524,-4.083984 l -7.61523,-3.513672 8.95313,-12.53711 c 4.92324,-6.896331 8.77372,-12.716525 8.55664,-12.933593 -0.21706,-0.217067 -5.17262,3.867379 -11.01172,9.078125 L 293.84961,70.0312 293.40039,56.839794 c -0.23203,-6.801421 -0.67156,-11.729938 -1.00781,-11.503906 z M 74.32422,93.599609 c 1.85034,0 4.875,3.311307 4.875,5.335938 0,4.517673 -6.9206,6.300663 -9.45313,2.435543 -2.31419,-3.531909 0.18392,-7.771481 4.57813,-7.771481 z M 52.16602,121.5957 c -2.6675,0.003 -5.37293,1.84622 -5.35157,4.76953 0.017,2.32049 0.79992,3.53537 3.13477,4.85938 2.22978,1.26442 1.7567,1.26246 4.48047,0.0215 2.97898,-1.35731 3.79936,-4.60077 1.89844,-7.50195 -0.9755,-1.48879 -2.56162,-2.14995 -4.16211,-2.14844 z m 104.16406,57.16407 c 0.39596,0.0607 7.90906,1.8729 16.69531,4.02539 9.77672,2.39515 15.97461,4.33728 15.97461,5.00586 0,0.60085 -0.37673,2.08392 -0.83789,3.29687 l -0.83984,2.20508 -5.01172,-1.39453 c -2.75715,-0.76741 -5.15457,-1.22692 -5.32813,-1.02149 -0.62085,0.73489 -17.79326,48.71156 -17.51562,48.93555 0.84008,0.67775 21.30209,5.35333 23.06054,5.26953 2.80465,-0.13364 5.34432,-2.59039 6.06446,-5.86914 0.53965,-2.45703 0.84187,-2.65194 3.35937,-2.14844 1.52196,0.30439 2.92954,0.71666 3.12695,0.91407 0.6743,0.67429 -6.52516,19.41976 -7.42773,19.33984 -0.495,-0.0438 -8.39328,-2.06368 -17.55078,-4.48828 -9.1575,-2.4246 -17.30281,-4.41397 -18.10156,-4.41992 -0.79875,-0.006 -2.50377,1.04086 -3.78907,2.32617 -1.99749,1.99748 -2.70155,2.21031 -4.84765,1.46289 -1.40003,-0.48758 -2.38506,-1.42129 -2.22656,-2.11133 0.15634,-0.68063 2.85311,-8.32578 5.99414,-16.98828 3.14102,-8.6625 7.8119,-21.53943 10.3789,-28.61523 2.99086,-8.24411 4.47773,-13.61783 4.14063,-14.96094 -0.4743,-1.88976 -1.93963,-2.81559 -7.04688,-4.45117 -1.40035,-0.44846 -1.42569,-0.77765 -0.26953,-3.45899 0.70285,-1.63002 1.6021,-2.91419 1.99805,-2.85351 z m 64.83594,12.90429 c 1.73775,0.0817 3.42775,0.83154 4.66796,2.40821 1.02593,1.30426 1.86524,2.9442 1.86524,3.64453 0,2.41875 -2.57192,6.23699 -4.92383,7.30859 -2.88654,1.3152 -4.00653,1.31539 -6.32617,0 -2.53323,-1.43649 -3.11901,-2.54975 -3.13477,-5.94141 -0.0212,-4.55253 4.0285,-7.59974 7.85157,-7.41992 z m 86.70507,11.00782 c -2.82357,-0.13336 -5.92287,1.11862 -8.82617,3.77929 l -3.21094,2.94141 3.88868,9.1543 c 2.13921,5.03435 4.32663,9.15225 4.85937,9.15039 0.53275,-0.002 2.26848,-0.79681 3.85742,-1.76563 6.63019,-4.04264 9.93034,-13.40206 6.60352,-18.72461 -1.80193,-2.88289 -4.3483,-4.4018 -7.17188,-4.53515 z m -41.8164,5.25585 c 3.60715,-0.0588 6.64765,0.1474 6.96093,0.6543 0.23197,0.37533 0.54569,2.69912 0.69727,5.16406 0.25688,4.17728 0.10851,4.54158 -2.18359,5.34766 -2.07241,0.72883 -2.67757,0.55253 -3.84571,-1.11523 C 266.64927,216.50172 265.38682,216 262.70508,216 c -6.7125,0 -11.85313,4.63711 -8.66992,7.82031 1.11891,1.11891 2.16452,1.15285 6.89257,0.22266 6.97197,-1.37164 11.73787,-0.18229 14.4336,3.60351 5.48507,7.70307 2.16521,17.74983 -7.52539,22.76758 -3.93189,2.03591 -16.74826,3.08184 -21.23438,1.73242 -1.8134,-0.54547 -2.40079,-1.50616 -3.03125,-4.95703 -0.42999,-2.35358 -0.60262,-4.45594 -0.38476,-4.67383 0.21786,-0.21786 1.6832,-0.65421 3.25586,-0.96874 2.25326,-0.45066 2.85937,-0.26817 2.85937,0.85937 0,1.6035 2.63305,3.29668 5.11524,3.28906 3.70634,-0.0114 8.48702,-2.01727 9.88086,-4.14453 1.34372,-2.05077 1.34986,-2.38848 0.0703,-3.66797 -1.15346,-1.15347 -2.36265,-1.26802 -6.66211,-0.63281 -9.61662,1.42077 -12.79559,0.30378 -15.5957,-5.48047 -2.24545,-4.63845 -2.26092,-7.9382 -0.0586,-12.78906 2.1413,-4.71644 7.70508,-8.84271 13.63867,-10.11524 2.58376,-0.55411 6.75808,-0.8787 10.36524,-0.9375 z m -63.35742,7.17188 h 11.15039 c 10.54207,0 11.15234,0.0976 11.15234,1.79492 0,0.98749 -0.64364,7.68823 -1.42969,14.88867 -1.31213,12.01948 -1.30974,13.27306 0.0215,15.30469 1.00264,1.53024 2.27616,2.21289 4.1289,2.21289 2.46201,0 2.67969,0.25386 2.67969,3.14844 v 3.15039 h -15.75 -15.75 v -3.15039 -3.14844 h 4.45899 c 5.13321,0 4.71424,0.952 6.30664,-14.36914 1.02903,-9.90075 0.0933,-12.63086 -4.33594,-12.63086 -3.26902,0 -3.44595,-0.23707 -3.00391,-4.02344 z"
       style="color:#000000;clip-rule:nonzero;display:inline;overflow:visible;visibility:visible;opacity:1;isolation:auto;mix-blend-mode:normal;color-interpolation:sRGB;color-interpolation-filters:linearRGB;solid-color:#000000;solid-opacity:1;fill:#d6e7bb;fill-opacity:1;fill-rule:evenodd;stroke:none;stroke-width:1;stroke-linecap:square;stroke-linejoin:miter;stroke-miterlimit:4;stroke-dasharray:none;stroke-dashoffset:0;stroke-opacity:1;paint-order:fill markers stroke;color-rendering:auto;image-rendering:auto;shape-rendering:auto;text-rendering:auto;enable-background:accumulate" />
    <path
       style="fill:#1b4165;fill-opacity:1"
       d="m 198,268.5032 c -15.92258,-1.56057 -23.29773,-2.63128 -36.82233,-5.3458 C 143.92477,259.69458 130.28589,255.44467 113.85,248.40999 39.714697,216.67954 0.21081431,153.81102 18.975783,97.422273 L 22.729676,87.399568 20.07273,84.917612 c -1.461322,-1.365077 -3.493587,-4.12191 -4.516148,-6.126295 -1.274968,-2.499144 -3.151476,-4.329885 -5.9716013,-5.825958 -3.9076095,-2.072982 -5.221226,-3.534714 -3.1765458,-3.534714 2.0442177,0 7.9685281,3.674838 9.6536511,5.988138 l 1.786019,2.451808 1.391166,-6.098901 c 0.765141,-3.354396 1.625648,-6.333384 1.912238,-6.619973 1.515114,-1.515114 1.473744,1.436373 -0.116092,8.282465 -1.742217,7.502272 -1.744004,7.699278 -0.08596,9.478984 0.931285,0.999613 2.812067,2.25885 2.812067,2.25885 0.858746,-1.549942 1.292085,-2.248428 2.296696,-4.211935 C 35.265933,62.963671 52.758248,46.272978 74.615048,33.288092 88.47299,25.05524 111.9343,15.916307 127.44842,12.707805 165.66367,4.804438 191.55577,4.3311961 229.95,10.834336 301.85435,23.013354 361.12563,65.475858 378.76945,117.45 c 13.62568,40.1377 1.28863,80.50032 -33.61945,109.99145 -7.26926,6.14122 -19.0169,14.01494 -26.63241,17.85005 -5.57278,2.80642 -6.18572,3.37213 -5.70947,5.26964 0.46159,1.83915 -0.12776,2.50406 -4.37186,4.93229 -5.90722,3.37977 -6.36946,3.41645 -7.64957,0.6069 l -1.00223,-2.19967 -5.66723,2.24736 c -11.97656,4.74934 -37.19711,10.04595 -57.28758,12.03106 -8.62083,0.8518 -31.49735,1.04276 -38.82965,0.32412 z m 44.2098,-4.33074 c 15.38579,-1.79977 31.45766,-5.2901 44.4402,-9.65107 5.94,-1.99531 10.96421,-3.77935 11.1649,-3.96451 0.2007,-0.18518 -1.56311,-4.89748 -3.91956,-10.47178 -2.35646,-5.57431 -7.51888,-17.77289 -11.47204,-27.10797 -3.95317,-9.33507 -6.84686,-17.26804 -6.43043,-17.62881 0.41642,-0.36076 3.09627,-1.94606 5.95522,-3.52286 l 5.19811,-2.86692 1.76651,4.12111 1.76652,4.12111 4.0505,-2.78681 c 16.81457,-11.56873 34.49835,-3.44863 32.59757,14.96825 -0.96679,9.36724 -8.45285,20.86314 -16.35835,25.12053 -1.74292,0.93863 -3.16895,2.0113 -3.16895,2.38372 0,1.04301 2.84565,7.91355 3.27764,7.91355 1.21771,0 10.17695,-5.16931 18.69478,-10.78653 23.25829,-15.33805 43.97152,-41.86394 47.62396,-60.98847 l 0.55862,-2.925 -5.1525,-0.003 c -11.68633,-0.006 -30.77179,-4.87549 -42.68608,-10.8898 -13.7978,-6.96511 -26.84216,-17.44433 -39.85305,-32.01606 L 282.15,118.10457 279.66571,107.42729 C 278.29936,101.55478 277.18709,96.345 277.19402,95.85 c 0.007,-0.495 4.56734,-3.698622 10.13428,-7.119157 l 10.1217,-6.219157 7.875,1.304193 c 4.33125,0.717306 7.875,1.046607 7.875,0.731778 0,-0.314828 -3.42681,-2.153094 -7.61514,-4.085036 L 297.96971,76.95 306.92107,64.411217 c 4.92325,-6.896331 8.77377,-12.716383 8.55669,-12.933451 -0.21706,-0.217067 -5.17211,3.868671 -11.01121,9.079417 L 293.85,70.031268 293.4,56.840634 C 293.1525,49.585785 292.6697,44.46 292.32709,45.45 c -0.3426,0.99 -1.72159,7.47 -3.06443,14.4 -1.34282,6.93 -2.56313,12.750611 -2.71178,12.934692 -0.14864,0.184081 -3.1994,-2.338674 -6.77945,-5.606121 -3.58005,-3.267446 -6.6772,-5.7728 -6.88255,-5.567454 -0.20534,0.205347 2.30066,4.811454 5.56888,10.235795 3.26823,5.42434 5.94224,10.212275 5.94224,10.639857 0,0.42758 -3.98043,2.12483 -8.84541,3.771666 -4.86497,1.646837 -9.31575,3.28494 -9.89063,3.640231 -0.78474,0.484995 -0.70828,2.407044 0.30678,7.712283 0.74361,3.886471 1.23097,7.187341 1.08304,7.335281 -0.14794,0.14793 -2.27931,-0.72549 -4.73638,-1.94095 -9.19074,-4.54645 -27.28394,-6.482971 -38.35829,-4.105513 -6.75712,1.450643 -15.47136,4.865293 -31.80911,12.464323 -16.88314,7.85271 -23.1741,10.34875 -33.67304,13.36035 -7.53099,2.16024 -9.36896,2.34704 -19.27586,1.95903 -16.89836,-0.66183 -16.60226,-0.004 -5.98494,-13.29596 4.93695,-6.18063 8.97813,-11.64251 8.98039,-12.13751 0.002,-0.495 -2.1223,-2.815767 -4.72123,-5.15727 L 132.75,91.83546 135.9,88.974059 c 1.7325,-1.57377 4.70477,-4.245733 6.60504,-5.937695 1.90027,-1.691961 3.2807,-3.250616 3.06765,-3.463677 -0.21306,-0.21306 -3.46254,1.033424 -7.22105,2.769965 C 134.59312,84.079193 131.12302,85.5 130.6403,85.5 c -0.48271,0 -1.3659,-2.93625 -1.96263,-6.525 -1.81701,-10.927577 -3.36815,-18.765479 -3.799,-19.196329 -0.22498,-0.224978 -0.69448,5.357549 -1.04334,12.405616 -0.34886,7.048067 -0.79548,12.975868 -0.99251,13.172891 -0.19702,0.197025 -2.5035,-1.182064 -5.12552,-3.064641 -2.62201,-1.882577 -6.69105,-4.800536 -9.0423,-6.484354 -2.35125,-1.683818 -4.275,-2.706179 -4.275,-2.271914 0,0.434264 3.41543,4.620007 7.58984,9.301652 5.9285,6.648885 7.32434,8.70908 6.37694,9.412079 -0.66709,0.495 -3.71821,2.445561 -6.78026,4.33458 -3.06205,1.889019 -5.36307,3.63887 -5.11337,3.88857 0.2497,0.24969 4.53357,-0.642288 9.51971,-1.98219 l 9.06572,-2.436192 3.21834,2.454741 c 1.77007,1.350108 3.09565,2.789391 2.94571,3.198401 -0.14995,0.40901 -4.69242,4.8156 -10.09438,9.79243 l -9.82175,9.04878 -5.14929,-2.74454 -5.14929,-2.74455 0.46428,-7.44179 C 102.09715,97.601031 100.38783,92.44134 94.679415,87.113843 84.321125,77.446751 76.760811,76.624974 53.55,82.643239 30.435786,88.636457 27.830522,89.441301 28.097238,90.506358 28.491066,92.079 39.925537,101.97972 51.041385,110.37292 c 34.75914,26.24546 66.790975,39.16015 93.858615,37.84223 21.66786,-1.05501 40.68679,-8.64014 66.37786,-26.47285 10.68135,-7.41416 16.14363,-9.36926 27.73571,-9.92745 16.43964,-0.79161 21.82453,1.72524 47.63643,22.26484 24.25691,19.30223 31.65124,24.57136 40.5,28.85996 9.40797,4.55963 22.65981,8.02311 34.05322,8.90008 l 9.14678,0.70405 -8.55,0.12688 C 337.98972,173.024 319.42584,165.82757 292.58613,145.83938 281.74036,137.76225 271.96964,131.4 270.41114,131.4 c -1.19068,0 -15.4802,14.38835 -14.34003,14.4392 0.48339,0.0215 2.70139,0.39919 4.92889,0.83919 3.22846,0.63772 5.81745,0.35592 12.7631,-1.38919 13.67707,-3.43642 14.31626,-2.65572 1.8619,2.27409 -4.08375,1.61647 -7.425,3.27613 -7.425,3.68815 0,0.412 5.4675,5.11324 12.15,10.44719 11.58597,9.24787 15.53068,13.29898 9.225,9.4738 -8.10142,-4.91452 -22.5599,-12.78753 -22.88562,-12.46181 -0.51029,0.51029 -3.88938,17.47209 -3.88938,19.52327 0,0.91294 -0.40789,1.91197 -0.90643,2.22008 -0.60252,0.37238 -0.70449,-3.42969 -0.30413,-11.34015 0.51201,-10.11646 0.41179,-11.7873 -0.66857,-11.14617 -0.69898,0.4148 -4.84874,3.14516 -9.22168,6.06746 -4.37294,2.9223 -8.19855,5.06554 -8.50132,4.76275 -0.30279,-0.30278 2.45494,-3.57617 6.12828,-7.27418 3.67334,-3.69802 6.48644,-6.75467 6.25132,-6.79254 -0.2351,-0.0379 -1.03497,-0.20243 -1.77747,-0.36567 -0.7425,-0.16324 -3.93488,-0.72589 -7.09419,-1.25032 -3.15929,-0.52443 -5.92491,-1.13426 -6.14582,-1.35515 -0.22089,-0.2209 2.92732,-5.37052 6.99602,-11.4436 4.0687,-6.07307 7.58083,-11.74248 7.80473,-12.59867 0.35063,-1.34078 -0.44719,-1.60454 -5.75182,-1.90154 -16.76544,-0.93866 -26.95419,3.04799 -47.55892,18.6088 -12.10862,9.1445 -24.15584,16.17717 -34.65,20.22721 -7.04438,2.71867 -21.25067,6.3478 -24.84853,6.3478 -3.18506,0 -3.76956,0.72191 -2.00955,2.48192 0.78923,0.78923 -1.50265,4.18742 -9.45,14.01163 -5.77056,7.13334 -10.49192,13.23819 -10.49192,13.56634 0,0.32814 1.81068,3.29573 4.02375,6.59463 2.21305,3.29889 3.84512,6.17661 3.62681,6.39492 -0.21831,0.21831 -3.05356,-1.33394 -6.30056,-3.44944 -3.247,-2.1155 -6.02378,-3.68969 -6.17062,-3.49818 -0.14684,0.1915 -1.04942,1.96818 -2.00574,3.94818 -5.18208,10.72929 -11.33992,22.18371 -11.72099,21.80264 -0.23991,-0.2399 1.26519,-6.1598 3.34465,-13.15534 2.07946,-6.99554 3.5743,-12.9257 3.32186,-13.17813 -0.25243,-0.25244 -3.04876,0.15149 -6.21406,0.89762 -6.662381,1.57047 -7.106243,1.61474 -7.10177,0.70821 0.0018,-0.37125 2.662461,-2.05003 5.91251,-3.73062 l 5.90918,-3.05562 -4.28324,-4.34864 c -2.3558,-2.39175 -4.049006,-4.5829 -3.762689,-4.86921 0.286308,-0.28631 3.862129,0.76808 7.946259,2.34309 7.12308,2.74695 7.46626,2.79482 8.42096,1.17482 0.54739,-0.92885 2.88744,-5.1754 5.20009,-9.43678 l 4.20484,-7.74795 -8.25062,-6.26479 c -4.53784,-3.44564 -11.42795,-7.82263 -15.31136,-9.72665 -3.883413,-1.90402 -10.160913,-5.53258 -13.950001,-8.06347 L 80.55,149.79755 76.5,152.05856 c -3.429482,1.9146 -5.222089,2.26335 -11.7,2.27623 -6.549079,0.013 -8.457469,-0.35775 -13.260881,-2.57636 C 45.330224,148.89064 38.72077,142.5459 36.56333,137.38242 34.957174,133.53835 32.236185,120.6862 29.664028,104.7947 27.048422,88.634763 26.067554,88.054477 22.211541,100.38577 c -6.253023,19.9968 -4.958852,41.85239 3.743095,63.21232 14.523246,35.64899 54.277972,69.36493 101.717594,86.26658 19.76092,7.04037 39.06029,11.71117 56.82777,13.75338 4.7025,0.5405 9.765,1.12437 11.25,1.29749 7.69722,0.89733 36.35473,0.43897 46.4598,-0.74308 z M 170.1,252.83003 c -9.1575,-2.4246 -17.30353,-4.41324 -18.10228,-4.41919 -0.79875,-0.006 -2.50389,1.04078 -3.78919,2.32609 -1.99749,1.99748 -2.70164,2.20992 -4.84774,1.4625 -1.40003,-0.48758 -2.38503,-1.42189 -2.22653,-2.11193 0.15634,-0.68063 2.85418,-8.325 5.99521,-16.9875 3.14102,-8.6625 7.81124,-21.53929 10.37824,-28.6151 2.99086,-8.2441 4.47834,-13.61796 4.14124,-14.96107 -0.4743,-1.88976 -1.93952,-2.81521 -7.04677,-4.45079 -1.40035,-0.44846 -1.42608,-0.77802 -0.26992,-3.45936 0.70285,-1.63002 1.60187,-2.91403 1.99782,-2.85335 0.39596,0.0607 7.90867,1.87146 16.69492,4.02395 9.77672,2.39515 15.975,4.3375 15.975,5.00608 0,0.60085 -0.37732,2.08488 -0.83848,3.29783 l -0.83848,2.20537 -5.013,-1.3953 c -2.75715,-0.76741 -5.155,-1.22721 -5.32856,-1.02178 -0.62085,0.73489 -17.7926,48.71127 -17.51496,48.93526 0.84008,0.67775 21.30257,5.35493 23.06102,5.27113 2.80465,-0.13364 5.34348,-2.59151 6.06362,-5.87026 0.53965,-2.45703 0.84288,-2.6508 3.36038,-2.1473 1.52196,0.30439 2.92873,0.71496 3.12615,0.91237 0.67429,0.67429 -6.52512,19.4203 -7.42769,19.34038 -0.495,-0.0438 -8.3925,-2.06344 -17.55,-4.48804 z M 198.9,252.45 v -3.15 h 4.45922 c 5.13322,0 4.71537,0.95187 6.30777,-14.36927 1.02903,-9.90075 0.0915,-12.63073 -4.33774,-12.63073 -3.26902,0 -3.44531,-0.23612 -3.00327,-4.02249 L 202.69693,215.1 h 11.15154 c 10.54207,0 11.15153,0.0981 11.15153,1.79543 0,0.98749 -0.64313,7.68669 -1.42918,14.88713 -1.31213,12.01948 -1.31043,13.27294 0.0208,15.30457 1.00264,1.53024 2.27643,2.21287 4.12917,2.21287 2.46201,0 2.67926,0.25542 2.67926,3.15 v 3.15 h -15.75 -15.75 v -3.15 z m 47.7013,-0.30413 c -1.8134,-0.54547 -2.40003,-1.50478 -3.03049,-4.95565 -0.42999,-2.35358 -0.60354,-4.45748 -0.38568,-4.67536 0.21786,-0.21786 1.68284,-0.65345 3.2555,-0.96798 2.25326,-0.45066 2.85937,-0.26858 2.85937,0.85896 0,1.6035 2.63364,3.29676 5.11583,3.28914 3.70634,-0.0114 8.48772,-2.01635 9.88155,-4.14361 1.34372,-2.05077 1.35025,-2.38946 0.0707,-3.66895 -1.15346,-1.15347 -2.36442,-1.26857 -6.66388,-0.63336 -9.61662,1.42077 -12.79515,0.30377 -15.59526,-5.48048 -2.24544,-4.63845 -2.26042,-7.93719 -0.0581,-12.78805 2.1413,-4.71644 7.70538,-8.8432 13.63897,-10.11573 5.16752,-1.10823 16.6991,-1.29618 17.32566,-0.28238 0.23196,0.37533 0.54578,2.6992 0.69736,5.16414 0.25688,4.17728 0.10855,4.54048 -2.18355,5.34656 -2.07241,0.72883 -2.67714,0.55362 -3.84528,-1.11414 C 266.64968,216.50218 265.38602,216 262.70428,216 c -6.7125,0 -11.8533,4.6367 -8.67009,7.8199 1.11891,1.11891 2.16555,1.15269 6.8936,0.2225 6.97197,-1.37164 11.73863,-0.18135 14.43436,3.60445 5.48507,7.70307 2.16366,17.74963 -7.52694,22.76738 -3.93189,2.03591 -16.74779,3.08106 -21.23391,1.73164 z M 216.45,205.02454 c -2.53323,-1.43649 -3.12046,-2.54879 -3.13622,-5.94045 -0.0308,-6.62187 8.55223,-10.05806 12.5209,-5.01272 1.02593,1.30426 1.86532,2.94437 1.86532,3.6447 0,2.41875 -2.57294,6.23711 -4.92485,7.30871 -2.88654,1.3152 -4.00551,1.31515 -6.32515,-2.4e-4 z M 69.746837,101.37148 C 67.432639,97.839567 69.929401,93.6 74.323608,93.6 c 0.950873,0 2.777673,0.591681 3.779296,1.716553 0.947475,1.064062 1.097096,2.634968 1.097096,3.61916 0,4.517677 -6.920638,6.300887 -9.453163,2.435767 z M 308.43898,225.93177 c 6.63019,-4.04264 9.9317,-13.40257 6.60488,-18.72512 -3.60386,-5.76578 -10.19294,-6.07697 -15.99954,-0.75563 l -3.21052,2.94223 3.88947,9.15337 c 2.13921,5.03436 4.32536,9.15187 4.8581,9.15001 0.53275,-0.002 2.26867,-0.79604 3.85761,-1.76486 z M 54.429232,131.2457 c 2.978981,-1.35731 3.800157,-4.60108 1.899234,-7.50226 -2.601324,-3.97012 -9.548872,-2.05625 -9.514684,2.62105 0.01696,2.32049 0.801365,3.53605 3.136218,4.86006 1.904412,0.54267 2.754684,0.52839 4.479232,0.0212 z M 104.175,47.602098 C 106.44816,46.751717 106.91411,45 104.86714,45 c -1.62809,0 -2.48984,-3.09265 -2.10477,-7.553604 l 0.28763,-3.332023 4.05,5.423807 c 2.2275,2.983094 4.53144,5.43236 5.11986,5.442814 0.60279,0.01071 1.31275,-1.847289 1.62624,-4.255994 0.30603,-2.35125 0.86422,-5.6925 1.24043,-7.425 l 0.68402,-3.15 2.07213,3.999677 c 1.69635,3.274353 1.87814,4.310315 1.00236,5.712641 -1.56679,2.508834 -0.7866,2.681215 4.0341,0.891325 4.28787,-1.59205 6.77788,-4.26202 3.44131,-3.690017 -2.31876,0.397516 -9.53641,-13.291556 -7.63576,-14.48207 2.44934,-1.534195 0.6555,-2.682516 -2.26149,-1.447684 -2.60773,1.103919 -2.87675,1.627078 -3.47145,6.750972 -1.25483,10.811735 -1.24905,10.807956 -6.205,4.058286 -3.24539,-4.419998 -4.74557,-5.794601 -5.83292,-5.344652 -0.8051,0.333156 -2.17258,0.809525 -3.03883,1.058599 -2.10438,0.605071 -1.995183,1.723107 0.225,2.303697 1.632447,0.426893 1.8,1.227615 1.8,8.601853 0,4.472129 -0.405,8.381446 -0.9,8.687373 -0.495,0.305927 -0.9,0.964621 -0.9,1.463764 0,0.874526 1.498896,0.600244 6.075,-1.111666 z m 143.36076,-9.779997 c -0.84318,-0.521112 -0.83607,-1.495997 0.032,-4.393445 0.99562,-3.323113 0.93313,-3.925398 -0.58081,-5.598291 -1.16699,-1.289513 -2.47523,-1.760266 -4.19172,-1.508339 -2.89113,0.424327 -2.92079,0.310347 -1.19342,-4.585522 1.42591,-4.041485 1.36894,-4.141553 -2.87684,-5.052176 -2.97026,-0.637055 -3.73772,0.142957 -1.92459,1.956087 0.73389,0.733885 0.35453,2.939827 -1.42391,8.28 -1.90926,5.732972 -2.79105,7.279585 -4.15042,7.279585 -3.36421,0 -1.66134,1.635999 2.82249,2.711654 4.45987,1.069907 6.91717,0.612263 4.55416,-0.848162 -0.81802,-0.505564 -1.00023,-1.626081 -0.57744,-3.551064 0.47915,-2.181565 1.09447,-2.812428 2.7431,-2.812428 2.96075,0 3.31874,1.043299 1.81772,5.297621 l -1.30165,3.689285 2.43277,0.535271 c 1.33802,0.294399 2.83776,0.641595 3.33276,0.771547 1.3436,0.352733 1.73549,-1.399247 0.48576,-2.171623 z M 137.25,36.85583 c 0.99,-0.429523 2.78077,-0.899049 3.9795,-1.043391 2.76815,-0.333319 3.42364,-2.131702 1.0073,-2.763589 -1.44372,-0.377544 -1.83975,-1.220609 -1.85058,-3.939592 -0.0205,-5.138096 -0.7603,-5.847433 -4.90517,-4.702982 -6.81916,1.882861 -10.76146,8.515295 -7.00605,11.786796 2.80984,2.447772 4.38631,2.566839 8.775,0.662758 z m -5.75533,-3.891757 c -1.36628,-1.646272 -0.4773,-3.700811 2.11175,-4.880458 1.93856,-0.883267 2.14232,-0.730797 2.54332,1.903095 0.23976,1.57481 0.25775,3.16704 0.04,3.53829 -0.65345,1.113988 -3.59683,0.762336 -4.69505,-0.560927 z m 25.93141,0.456788 C 160.53183,32.837927 162.44861,30.6 159.84215,30.6 c -1.75034,0 -2.27454,-2.207687 -2.56442,-10.8 l -0.22773,-6.75 -2.98975,0.139745 c -3.66772,0.171435 -4.71301,1.055509 -2.62775,2.222479 0.89854,0.502849 1.55759,1.914387 1.54428,3.307497 -0.0185,1.935125 -0.73202,2.756752 -3.50215,4.032653 -8.05369,3.70948 -6.26083,13.410472 2.17537,11.770671 1.485,-0.28865 4.08424,-0.784632 5.77608,-1.102184 z m -8.62334,-4.230068 c -0.79266,-2.065635 0.77969,-4.373886 3.22647,-4.736553 1.76492,-0.261599 1.9622,0.05025 1.70809,2.7 -0.22206,2.315453 -0.74807,3.06119 -2.31632,3.283883 -1.2729,0.180753 -2.2486,-0.284071 -2.61824,-1.24733 z m 79.20504,4.60528 c 0.30274,-0.788929 -0.19242,-1.52381 -1.25371,-1.860649 -1.98882,-0.631229 -2.10448,-1.196615 -0.89532,-4.376943 0.75512,-1.986111 1.24389,-2.196201 4.05,-1.740833 4.009,0.650572 4.42794,-1.31531 0.44985,-2.110928 -2.43158,-0.486315 -2.71129,-0.865202 -2.475,-3.3525 0.21226,-2.234273 -0.10238,-2.857065 -1.54807,-3.064227 -1.31443,-0.188353 -2.10139,0.500101 -2.85556,2.498147 -0.5726,1.516984 -1.52796,2.646488 -2.12303,2.510007 -0.59507,-0.136481 -1.26757,0.258103 -1.49444,0.876853 -0.22688,0.61875 0.25604,1.125 1.07314,1.125 0.99316,0 1.33055,0.522113 1.01775,1.575 -1.50051,5.050763 -1.51775,6.332071 -0.1042,7.74562 1.82865,1.828642 5.48424,1.932787 6.15859,0.175453 z m -12.11303,-2.329827 c -1.23337,-0.696385 -1.31321,-1.442295 -0.52367,-4.892623 0.51236,-2.239034 0.76223,-4.226757 0.55525,-4.417163 -0.20699,-0.190406 -1.69258,-0.628182 -3.30133,-0.972836 -2.27586,-0.487574 -2.925,-0.327815 -2.925,0.719866 0,0.74058 0.44014,1.493226 0.97811,1.672546 0.62549,0.208497 0.75161,1.533362 0.34984,3.675 -0.4729,2.520746 -1.0672,3.348964 -2.40311,3.348964 -3.43887,0 -1.00757,2.253311 2.94504,2.729457 4.34359,0.523242 6.73039,-0.505022 4.32487,-1.863211 z m -42.4034,-0.690314 C 173.73051,30.058465 172.62562,29.7 170.175,29.7 c -4.8787,0 -4.65334,-1.180154 0.53292,-2.790756 4.94502,-1.535682 5.47027,-2.441877 2.9706,-5.124968 -2.34762,-2.519869 -6.21172,-2.553814 -9.35391,-0.08217 -2.03972,1.60444 -2.3756,2.484704 -2.14637,5.625 0.24514,3.358216 0.57516,3.82096 3.36905,4.723984 3.36239,1.086771 7.37126,0.443281 7.94406,-1.275158 z M 166.5,25.203419 c 0,-1.091077 2.52406,-2.279357 3.26589,-1.537522 0.26855,0.268546 -0.35641,0.940329 -1.3888,1.49285 -1.30158,0.696579 -1.87709,0.710275 -1.87709,0.04467 z m 26.31673,4.057722 c 1.11829,-1.726373 2.27843,-3.143873 2.57808,-3.15 0.29964,-0.0061 0.9215,1.302328 1.38191,2.90768 1.35723,4.732384 3.11173,3.981494 7.74828,-3.316098 4.66082,-7.33579 4.81122,-7.70349 3.15,-7.701114 -0.61875,8.86e-4 -2.27594,1.823386 -3.68264,4.05 -1.40671,2.226615 -2.88522,4.048391 -3.28559,4.048391 -0.40038,0 -1.07977,-1.48761 -1.50976,-3.305799 -1.07597,-4.549648 -2.50961,-4.652636 -4.96325,-0.356545 -1.14607,2.006664 -2.34244,3.6516 -2.6586,3.655412 -0.31616,0.0038 -0.83241,-1.366069 -1.14723,-3.044181 -0.47178,-2.514806 -1.03701,-3.119304 -3.21563,-3.439059 -3.07622,-0.451494 -4.56347,1.768808 -2.29561,3.427109 0.77807,0.568933 2.05318,2.908368 2.83359,5.198744 0.78041,2.290375 1.78213,4.164319 2.22605,4.164319 0.44391,0 1.7221,-1.412487 2.8404,-3.138859 z m 23.98942,-11.18409 C 218.33577,17.108501 217.47043,14.4 215.63136,14.4 c -1.69213,0 -2.63434,1.512322 -1.98936,3.193098 0.57349,1.494493 1.37468,1.617034 3.16415,0.483953 z"
       id="path3514"
       inkscape:connector-curvature="0"
       sodipodi:nodetypes="sssccssssscscsccssssscccsscscssscsccsccccccssssccsccccscssscscscscccsccsscccccscsscscssccsscsccssssscscccscccssssssssssscscscscsssssscscscccsccsccscsssscsscccscscscccssccsssccccssssscsscccccccsccccsccccccccccccccsssccssscsscccccssccscccsscccsccsccscscccsccssssscsccsccccsccccsccsccscccsssccsccssssccccscscsssccsccssccssccssscssccccsscssccsccscscscssscscscsccscscssccssccsscsssccccccccssccscsccscssccscc" />
  </g>
</svg>
